<?xml version="1.0" encoding="utf-8"?>
<!-- Generator: Adobe Illustrator 13.0.0, SVG Export Plug-In . SVG Version: 6.00 Build 14948)  -->
<!DOCTYPE svg PUBLIC "-//W3C//DTD SVG 1.1//EN" "http://www.w3.org/Graphics/SVG/1.1/DTD/svg11.dtd">
<svg version="1.1" xmlns="http://www.w3.org/2000/svg" xmlns:xlink="http://www.w3.org/1999/xlink" x="0px" y="0px"
	 width="329.984px" height="329.983px" viewBox="0 0 329.984 329.983" enable-background="new 0 0 329.984 329.983"
	 xml:space="preserve">
<g id="Plantilla" display="none">
	<g id="Objetos">
		<circle id="Aro_exterior" opacity="0.5" fill="#E1007A" cx="832.221" cy="119.817" r="98.792"/>
		<circle id="Aro_interior" opacity="0.5" fill="#FFFFFF" cx="832.221" cy="119.817" r="62.792"/>
		<path id="Aro_hueco" opacity="0.5" fill="#E1007A" d="M832.22,21.024c-54.562,0-98.792,44.231-98.792,98.792
			c0,54.562,44.23,98.792,98.792,98.792c54.563,0,98.793-44.23,98.793-98.792C931.013,65.255,886.783,21.024,832.22,21.024z
			 M832.22,182.609c-34.679,0-62.792-28.113-62.792-62.792c0-34.679,28.113-62.792,62.792-62.792
			c34.68,0,62.793,28.113,62.793,62.792C895.013,154.497,866.9,182.609,832.22,182.609z"/>
		<circle id="Círculo_terminación" opacity="0.5" fill="#E1007A" cx="832.241" cy="39.029" r="18.005"/>
		<circle id="Círculo_terminación_e" opacity="0.5" fill="#E1007A" cx="889.737" cy="176.584" r="18.005"/>
		<circle id="Círculo_terminación_c" opacity="0.5" fill="#E1007A" cx="889.737" cy="63.084" r="18.005"/>
		<path id="Palo_e" opacity="0.5" fill="#E1007A" d="M965.139,27.259c5.386,8.356,2.977,19.496-5.38,24.881L829.365,136.17
			c-8.356,5.385-19.496,2.977-24.882-5.38l0,0c-5.385-8.356-2.978-19.496,5.381-24.881L940.257,21.88
			C948.615,16.494,959.754,18.903,965.139,27.259L965.139,27.259z"/>
		<path id="Palo_1_" opacity="0.5" fill="#E1007A" d="M903.274,39.024c0,9.941-8.059,18-18,18H779.149c-9.941,0-18-8.059-18-18l0,0
			c0-9.941,8.059-18,18-18h106.125C895.215,21.024,903.274,29.083,903.274,39.024L903.274,39.024z"/>
		<path id="Palo_2_" display="inline" opacity="0.5" fill="#E1007A" d="M913.013,142.153c-9.94,0-18-8.059-18-18V-14.971
			c0-9.941,8.06-18,18-18l0,0c9.94,0,18,8.059,18,18v139.125C931.013,134.095,922.954,142.153,913.013,142.153L913.013,142.153z"/>
		<rect id="Palo_cuadrado" x="749.511" y="21.024" opacity="0.5" fill="#E1007A" width="93.125" height="36"/>
		<g id="Cuadrado_exterior" opacity="0.5">
			<path display="inline" fill="#E1007A" d="M931.013,156.522c0,34.242-27.759,62.001-62,62.001h-57.502
				c-34.241,0-62-27.759-62-62.001V83.024c0-34.242,27.759-62,62-62h57.502c34.241,0,62,27.758,62,62V156.522z"/>
		</g>
		<path id="Cuadrado_interior" opacity="0.5" fill="#FFFFFF" d="M785.533,156.464c0,14.398,11.621,26.071,25.955,26.071h57.568
			c14.334,0,25.955-11.673,25.955-26.071V83.096c0-14.399-11.621-26.071-25.955-26.071h-57.568
			c-14.334,0-25.955,11.672-25.955,26.071V156.464z"/>
		<g id="Cuadrado_hueco" display="inline" opacity="0.5">
			<g>
				<path fill="#E1007A" d="M869.013,21.024h-57.502c-34.241,0-62,27.758-62,62v73.498c0,34.242,27.759,62.001,62,62.001h57.502
					c34.241,0,62-27.759,62-62.001V83.024C931.013,48.783,903.254,21.024,869.013,21.024z M895.011,156.464
					c0,14.398-11.621,26.071-25.955,26.071h-57.568c-14.334,0-25.955-11.673-25.955-26.071V83.096
					c0-14.399,11.621-26.071,25.955-26.071h57.568c14.334,0,25.955,11.672,25.955,26.071V156.464z"/>
			</g>
		</g>
		<path id="Pata" opacity="0.5" fill="#E1007A" d="M931.013,119.821v80.719c0,9.941-8.06,18-18,18l0,0c-9.94,0-18-8.059-18-18
			l-0.002-80.719"/>
		<path id="Pata_1_" opacity="0.5" fill="#E1007A" d="M785.515,119.821v80.719c0,9.941-8.06,18-18,18l0,0c-9.94,0-18-8.059-18-18
			l-0.002-80.719"/>
		<g id="Medio_cuadrado_exterior" opacity="0.5">
			<path display="inline" fill="#E1007A" d="M931.013,119.821V83.024c0-34.242-27.759-62-62-62h-57.502c-34.241,0-62,27.758-62,62
				v36.797H931.013z"/>
		</g>
		<g id="Medio_cuadrado_interior" opacity="0.5">
			<path display="inline" fill="#FFFFFF" d="M785.511,122.821l0.021-39.726c0-14.399,11.621-26.071,25.955-26.071h57.568
				c14.334,0,25.955,11.672,25.955,26.071v39.726H785.511z"/>
		</g>
		<g id="Medio_cuadrado_hueco" opacity="0.5">
			<path display="inline" fill="#E1007A" d="M931.013,83.024c0-34.242-27.759-62-62-62h-57.502c-34.241,0-62,27.758-62,62v36.797
				h36.002l0.02-36.726c0-14.399,11.621-26.071,25.955-26.071h57.568c14.334,0,25.955,11.672,25.955,26.071v36.726h36.002V83.024z"
				/>
		</g>
		<polygon id="Esquina_1_" display="inline" opacity="0.5" fill="#E1007A" points="749.511,83.774 749.511,21.024 815.886,21.024 		
			"/>
		<polygon id="Esquina_interior_1_" opacity="0.5" fill="#FFFFFF" points="785.513,119.781 785.513,57.031 851.888,57.031 		"/>
	</g>
	<g>
		<circle display="inline" fill="#E1007A" cx="2022.611" cy="-14.971" r="18.005"/>
		<path display="inline" fill="#E1007A" d="M2022.511,21.029c-9.94,0-18,8.059-18,18v161.125c0,9.941,8.06,18,18,18s18-8.059,18-18
			V39.029C2040.511,29.087,2032.452,21.029,2022.511,21.029z"/>
	</g>
	<path id="s" fill="#E2007A" d="M2957.195,21.125c0,0,15.771-0.119,15.771,16.9c0,19.981-15.771,18.9-15.771,18.9h-80.659
		c0,0-13.044-0.006-13.044,22.434c0,11.983,3,22.667,13.044,22.667c17.07,0,36.112,0,69.29,0c5,0,58.668-1,58.668,56
		c0,61.333-53.124,60.486-53.124,60.486h-110.237c0,0-14.203-0.986-14.203-18.486c0-16.75,13.438-17.326,13.438-17.326h119.176
		c0,0,12.282-2.174,12.282-22.674c0-19.015-13.893-22.112-13.893-22.112l-76.249,0c0,0-50.692-1.888-50.692-58.888
		c0-59,50.31-57.9,50.31-57.9H2957.195z"/>
	<path id="a" fill="#E1007A" d="M913.013,20.995c-9.94,0-18,8.074-18,18.034v4.515c-17.07-14.069-38.944-22.52-62.793-22.52
		c-54.562,0-98.792,44.231-98.792,98.792c0,54.562,44.23,98.792,98.792,98.792c23.849,0,45.723-8.45,62.793-22.52v4.37
		c0,9.961,8.06,18.034,18,18.034s18-8.073,18-18.034V39.029C931.013,29.069,922.954,20.995,913.013,20.995z M832.22,182.609
		c-34.679,0-62.792-28.113-62.792-62.792c0-34.679,28.113-62.792,62.792-62.792c34.68,0,62.793,28.113,62.793,62.792
		C895.013,154.497,866.9,182.609,832.22,182.609z"/>
	<path id="d_3_" fill="#E1007A" d="M913.017-35.271c-9.94,0-18,8.059-18,18v60.816c-17.07-14.069-38.944-22.52-62.793-22.52
		c-54.562,0-98.792,44.231-98.792,98.792c0,54.562,44.23,98.792,98.792,98.792c54.547,0,98.767-44.204,98.792-98.744
		c0-0.004,0.001-0.008,0.001-0.012V-17.271C931.017-27.213,922.958-35.271,913.017-35.271z M832.224,182.609
		c-34.679,0-62.792-28.113-62.792-62.792c0-34.679,28.113-62.792,62.792-62.792c34.68,0,62.793,28.113,62.793,62.792
		C895.017,154.497,866.904,182.609,832.224,182.609z"/>
	<path id="e_1_" fill="#E1007A" d="M889.737,158.579c-5.033,0-9.578,2.07-12.846,5.399l0.022-0.055
		c-11.385,11.536-27.204,18.686-44.693,18.686c-34.679,0-62.792-28.113-62.792-62.792c0-34.679,28.113-62.792,62.792-62.792
		c13.371,0,25.757,4.192,35.941,11.316l-58.298,37.568c-8.358,5.385-10.766,16.525-5.381,24.881
		c5.386,8.357,16.525,10.765,24.882,5.38l61.238-39.464l30.651-19.753c-5.293-10.976-12.56-20.819-21.334-29.079
		c-17.683-16.646-41.498-26.85-67.7-26.85c-54.562,0-98.792,44.231-98.792,98.792c0,54.562,44.23,98.792,98.792,98.792
		c27.299,0,52.011-11.072,69.892-28.97c0.302-0.303,0.598-0.612,0.896-0.919c2.931-3.202,4.733-7.454,4.733-12.137
		C907.742,166.64,899.68,158.579,889.737,158.579z"/>
	<path id="o" fill="#E1007A" d="M832.22,21.024c-54.562,0-98.792,44.231-98.792,98.792c0,54.562,44.23,98.792,98.792,98.792
		c54.563,0,98.793-44.23,98.793-98.792C931.013,65.255,886.783,21.024,832.22,21.024z M832.22,182.609
		c-34.679,0-62.792-28.113-62.792-62.792c0-34.679,28.113-62.792,62.792-62.792c34.68,0,62.793,28.113,62.793,62.792
		C895.013,154.497,866.9,182.609,832.22,182.609z"/>
	<path id="t_2_" fill="#E1007A" d="M1542.711,182.442h-100.243c-14.334,0-25.955-11.672-25.955-26.071v-36.726h-0.002V57.024h69.763
		c9.941,0,18-7.059,18-17s-8.059-18.8-18-18.8h-69.763v-36.196c0-9.941-8.06-18-18-18s-18,8.059-18,18v134.617v4.507v32.29
		c0,33.385,26.391,60.593,59.445,61.935c0.72,0.088,1.449,0.146,2.192,0.146h100.563c9.941,0,18-8.059,18-18
		S1552.653,182.442,1542.711,182.442z"/>
	<path id="n" fill="#E1007A" d="M869.013,21.024h-53.127h-4.375h-62v62v0.75v36.047h0.002l0.002,80.719c0,9.941,8.06,18,18,18
		s18-8.059,18-18v-80.719h-0.002v-0.041l0,0v-62.75h25.725c0.084-0.001,0.166-0.006,0.25-0.006h57.568
		c14.334,0,25.955,11.672,25.955,26.071v36.726l0.002,80.719c0,9.941,8.06,18,18,18s18-8.059,18-18v-80.719V83.024
		C931.013,48.783,903.254,21.024,869.013,21.024z"/>
	<path id="p_2_" fill="#E1007A" d="M869.511,21.024h-53.127h-4.375h-62.498c0,0,0,38.576,0,40.004v139.125c0,9.941,8.06,18,18,18
		s18-8.059,18-18v-34.63h84c34.241,0,61.5-27.759,61.5-62.001V83.024C931.011,48.783,903.752,21.024,869.511,21.024z
		 M895.011,103.464c0,14.398-11.123,26.071-25.457,26.071h-84.043c0,0,0.294-71.221,0-72.511h84.043
		c14.334,0,25.457,11.672,25.457,26.071V103.464z"/>
	<path id="m_2_" fill="#E1007A" d="M2508.013,21.024h-133.127h-1.873h-2.502h-39.625h-4.375h-62v62v0.75v36.047h0.002l0.002,80.719
		c0,9.941,8.06,18,18,18s18-8.059,18-18v-80.719h-0.002v-0.041v-62.75h25.725c0.084-0.001,0.166-0.006,0.25-0.006h43.75v0.006
		c0.084-0.001,0.166-0.006,0.25-0.006h2.568c14.334,0,25.955,11.672,25.955,26.071v36.726l0.002,80.719c0,9.941,8.06,18,18,18
		s18-8.059,18-18v-80.719V83.024c0-9.288-2.057-18.091-5.717-26h78.76c14.334,0,25.955,11.672,25.955,26.071v36.726l0.002,80.719
		c0,9.941,8.06,18,18,18s18-8.059,18-18v-80.719V83.024C2570.013,48.783,2542.254,21.024,2508.013,21.024z"/>
	<path id="c" fill="#E1007A" d="M889.737,158.579c-5.045,0-9.6,2.081-12.869,5.425l-0.021-0.021
		c-11.381,11.499-27.169,18.627-44.626,18.627c-34.679,0-62.792-28.113-62.792-62.792c0-34.679,28.113-62.792,62.792-62.792
		c17.437,0,33.209,7.111,44.586,18.585l0.007-0.006c3.272,3.378,7.849,5.486,12.924,5.486c9.943,0,18.005-8.062,18.005-18.005
		c0-5.009-2.049-9.537-5.35-12.801c-17.903-18.065-42.729-29.259-70.172-29.259c-54.562,0-98.792,44.231-98.792,98.792
		c0,54.562,44.23,98.792,98.792,98.792c27.221,0,51.863-11.017,69.73-28.824c3.554-3.289,5.791-7.979,5.791-13.201
		C907.742,166.64,899.68,158.579,889.737,158.579z"/>
	<path id="r_2_" fill="#E1007A" d="M1333.743,20.997h-7.961h-38.164h-39.338c-34.241,0-62,27.758-62,62v36.797h0.002l0.002,80.718
		c0,9.941,8.06,18,18,18s18-8.059,18-18v-80.718h-0.002l0.02-36.726c0-14.399,11.621-26.071,25.955-26.071h39.361h38.207h7.918
		c9.941,0,18-9.059,18-19S1343.684,20.997,1333.743,20.997z"/>
	<path id="f_1_" fill="#E1007A" d="M1956.957-32.003h-7.961h-11.164h-59.338c-34.241,0-62,27.758-62,62v36.797h0.002l0.002,133.718
		c0,9.941,8.06,18,18,18s18-8.059,18-18v-95.487h67.776c9.941,0,18-8.059,18-18s-8.059-18-18-18h-67.776V30.068
		c0-14.399,11.639-26.071,25.973-26.071h59.361h11.207h7.918c9.941,0,18-8.059,18-18S1966.898-32.003,1956.957-32.003z"/>
	<path id="Acento_1_" display="inline" fill="#E1007A" d="M1576.832-3.957c-7.028-7.029-7.029-18.426,0-25.456l24.837-24.837
		c7.03-7.029,18.427-7.029,25.456,0l0,0c7.029,7.029,7.029,18.426,0,25.456l-24.837,24.837
		C1595.258,3.073,1583.861,3.072,1576.832-3.957L1576.832-3.957z"/>
</g>
<g id="G-FORMS">
	<g id="Normal">
		<g id="Claim_1_" display="none">
			<g>
				
					<text transform="matrix(1 0 0 1 733.2358 295.2686)" display="inline" fill="#686868" font-family="'Expansiva-Bold'" font-size="44.4679">generador de formularios dinámicos</text>
			</g>
			<g display="inline">
				<g>
					<path fill="#686868" d="M733.236,301.094h29.925c1.022,0,1.822-0.845,1.822-1.868v-22.454h-25.122
						c-1.022,0-1.823,0.801-1.823,1.823v10.049c0,1.022,0.801,1.823,1.823,1.823h23.032v4.802h-23.032
						c-3.646,0-6.625-2.979-6.625-6.625v-10.049c0-3.646,2.979-6.625,6.625-6.625h29.925v27.256c0,3.646-2.979,6.625-6.625,6.625
						h-29.925V301.094z"/>
					<path fill="#686868" d="M775.125,288.644v-10.049c0-3.646,2.979-6.625,6.625-6.625h23.3c3.646,0,6.625,2.979,6.625,6.625v7.426
						h-29.658v-4.803h24.855v-2.623c0-1.022-0.8-1.823-1.822-1.823h-23.3c-1.022,0-1.823,0.801-1.823,1.823v10.049
						c0,1.022,0.801,1.823,1.823,1.823h29.925v4.802H781.75C778.104,295.269,775.125,292.289,775.125,288.644z"/>
					<path fill="#686868" d="M848.759,278.595c0-1.022-0.8-1.823-1.822-1.823h-25.123v18.497h-4.802V271.97h29.925
						c3.646,0,6.625,2.979,6.625,6.625v16.674h-4.803V278.595z"/>
					<path fill="#686868" d="M858.9,288.644v-10.049c0-3.646,2.979-6.625,6.625-6.625h23.3c3.646,0,6.625,2.979,6.625,6.625v7.426
						h-29.658v-4.803h24.855v-2.623c0-1.022-0.8-1.823-1.822-1.823h-23.3c-1.022,0-1.823,0.801-1.823,1.823v10.049
						c0,1.022,0.801,1.823,1.823,1.823h29.925v4.802h-29.925C861.879,295.269,858.9,292.289,858.9,288.644z"/>
					<path fill="#686868" d="M900.789,278.595c0-3.646,2.979-6.625,6.625-6.625h17.208v4.802h-17.208
						c-1.022,0-1.823,0.801-1.823,1.823v16.674h-4.802V278.595z"/>
					<path fill="#686868" d="M929.515,288.644v-2.224c0-3.646,2.979-6.625,6.625-6.625h23.032v4.758H936.14
						c-1.022,0-1.823,0.845-1.823,1.867v2.224c0,1.022,0.801,1.823,1.823,1.823h25.122v-11.872c0-1.022-0.8-1.823-1.822-1.823
						h-28.857v-4.802h28.857c3.646,0,6.625,2.979,6.625,6.625v16.674H936.14C932.495,295.269,929.515,292.289,929.515,288.644z"/>
					<path fill="#686868" d="M971.403,288.644v-10.049c0-3.646,2.979-6.625,6.625-6.625h23.032v4.802h-23.032
						c-1.022,0-1.823,0.801-1.823,1.823v10.049c0,1.022,0.801,1.823,1.823,1.823h25.122v-29.08h4.803v33.882h-29.925
						C974.382,295.269,971.403,292.289,971.403,288.644z"/>
					<path fill="#686868" d="M1013.292,288.644v-10.049c0-3.646,2.979-6.625,6.625-6.625h23.3c3.646,0,6.625,2.979,6.625,6.625
						v10.049c0,3.646-2.979,6.625-6.625,6.625h-23.3C1016.271,295.269,1013.292,292.289,1013.292,288.644z M1018.093,278.595v10.049
						c0,1.022,0.801,1.823,1.823,1.823h23.3c1.022,0,1.822-0.801,1.822-1.823v-10.049c0-1.022-0.8-1.823-1.822-1.823h-23.3
						C1018.894,276.771,1018.093,277.572,1018.093,278.595z"/>
					<path fill="#686868" d="M1055.179,278.595c0-3.646,2.979-6.625,6.625-6.625h17.208v4.802h-17.208
						c-1.022,0-1.823,0.801-1.823,1.823v16.674h-4.802V278.595z"/>
					<path fill="#686868" d="M1103.916,288.644v-10.049c0-3.646,2.979-6.625,6.625-6.625h23.032v4.802h-23.032
						c-1.022,0-1.823,0.801-1.823,1.823v10.049c0,1.022,0.801,1.823,1.823,1.823h25.122v-29.08h4.803v33.882h-29.925
						C1106.895,295.269,1103.916,292.289,1103.916,288.644z"/>
					<path fill="#686868" d="M1145.804,288.644v-10.049c0-3.646,2.979-6.625,6.625-6.625h23.3c3.646,0,6.625,2.979,6.625,6.625
						v7.426h-29.658v-4.803h24.855v-2.623c0-1.022-0.8-1.823-1.822-1.823h-23.3c-1.022,0-1.823,0.801-1.823,1.823v10.049
						c0,1.022,0.801,1.823,1.823,1.823h29.925v4.802h-29.925C1148.784,295.269,1145.804,292.289,1145.804,288.644z"/>
					<path fill="#686868" d="M1207.703,268.012c0-3.646,2.979-6.625,6.625-6.625h21.432v4.803h-21.432
						c-1.022,0-1.823,0.8-1.823,1.822v3.958h19.031v4.802h-19.031v18.497h-4.802V268.012z"/>
					<path fill="#686868" d="M1235.317,288.644v-10.049c0-3.646,2.979-6.625,6.625-6.625h23.3c3.646,0,6.625,2.979,6.625,6.625
						v10.049c0,3.646-2.979,6.625-6.625,6.625h-23.3C1238.296,295.269,1235.317,292.289,1235.317,288.644z M1240.119,278.595v10.049
						c0,1.022,0.801,1.823,1.823,1.823h23.3c1.022,0,1.822-0.801,1.822-1.823v-10.049c0-1.022-0.8-1.823-1.822-1.823h-23.3
						C1240.919,276.771,1240.119,277.572,1240.119,278.595z"/>
					<path fill="#686868" d="M1277.205,278.595c0-3.646,2.979-6.625,6.625-6.625h17.208v4.802h-17.208
						c-1.022,0-1.823,0.801-1.823,1.823v16.674h-4.802V278.595z"/>
					<path fill="#686868" d="M1352.53,278.595c0-1.022-0.845-1.823-1.868-1.823h-14.806c-1.023,0-1.868,0.801-1.868,1.823v16.674
						h-4.758v-16.674c0-1.022-0.845-1.823-1.867-1.823h-16.63v18.497h-4.802V271.97h21.432c1.067,0,2.09,0.267,3.023,0.756
						c0.445,0.222,0.845,0.488,1.245,0.8c0.355-0.312,0.756-0.578,1.2-0.8c0.935-0.489,1.957-0.756,3.024-0.756h14.806
						c3.646,0,6.626,2.979,6.626,6.625v16.674h-4.758V278.595z"/>
					<path fill="#686868" d="M1362.627,288.644V271.97h4.802v16.674c0,1.022,0.801,1.823,1.823,1.823h23.3
						c1.022,0,1.822-0.801,1.822-1.823V271.97h4.803v16.674c0,3.646-2.979,6.625-6.625,6.625h-23.3
						C1365.607,295.269,1362.627,292.289,1362.627,288.644z"/>
					<path fill="#686868" d="M1404.515,295.269v-33.882h4.802v33.882H1404.515z"/>
					<path fill="#686868" d="M1414.654,288.644v-2.224c0-3.646,2.979-6.625,6.625-6.625h23.032v4.758h-23.032
						c-1.022,0-1.823,0.845-1.823,1.867v2.224c0,1.022,0.801,1.823,1.823,1.823h25.122v-11.872c0-1.022-0.8-1.823-1.822-1.823
						h-28.857v-4.802h28.857c3.646,0,6.625,2.979,6.625,6.625v16.674h-29.925C1417.633,295.269,1414.654,292.289,1414.654,288.644z"
						/>
					<path fill="#686868" d="M1456.542,278.595c0-3.646,2.979-6.625,6.625-6.625h17.208v4.802h-17.208
						c-1.022,0-1.823,0.801-1.823,1.823v16.674h-4.802V278.595z"/>
					<path fill="#686868" d="M1485.268,264.277h4.802v4.802h-4.802V264.277z M1485.268,271.97h4.802v23.299h-4.802V271.97z"/>
					<path fill="#686868" d="M1495.407,288.644v-10.049c0-3.646,2.979-6.625,6.625-6.625h23.3c3.646,0,6.625,2.979,6.625,6.625
						v10.049c0,3.646-2.979,6.625-6.625,6.625h-23.3C1498.386,295.269,1495.407,292.289,1495.407,288.644z M1500.208,278.595v10.049
						c0,1.022,0.801,1.823,1.823,1.823h23.3c1.022,0,1.822-0.801,1.822-1.823v-10.049c0-1.022-0.8-1.823-1.822-1.823h-23.3
						C1501.009,276.771,1500.208,277.572,1500.208,278.595z"/>
					<path fill="#686868" d="M1538.363,290.467h28.857c1.022,0,1.822-0.801,1.822-1.823v-0.801c0-0.978-0.8-1.822-1.822-1.822h-23.3
						c-3.646,0-6.625-2.979-6.625-6.626v-0.8c0-3.646,2.979-6.625,6.625-6.625h28.857v4.802h-28.857
						c-1.022,0-1.823,0.801-1.823,1.823v0.8c0,1.023,0.801,1.823,1.823,1.823h23.3c3.646,0,6.625,2.979,6.625,6.625v0.801
						c0,3.646-2.979,6.625-6.625,6.625h-28.857V290.467z"/>
					<path fill="#686868" d="M1599.194,288.644v-10.049c0-3.646,2.979-6.625,6.625-6.625h23.032v4.802h-23.032
						c-1.022,0-1.823,0.801-1.823,1.823v10.049c0,1.022,0.801,1.823,1.823,1.823h25.122v-29.08h4.803v33.882h-29.925
						C1602.173,295.269,1599.194,292.289,1599.194,288.644z"/>
					<path fill="#686868" d="M1641.082,264.277h4.802v4.802h-4.802V264.277z M1641.082,271.97h4.802v23.299h-4.802V271.97z"/>
					<path fill="#686868" d="M1682.967,278.595c0-1.022-0.8-1.823-1.822-1.823h-25.123v18.497h-4.802V271.97h29.925
						c3.646,0,6.625,2.979,6.625,6.625v16.674h-4.803V278.595z"/>
					<path fill="#686868" d="M1693.109,288.644v-2.224c0-3.646,2.979-6.625,6.625-6.625h23.032v4.758h-23.032
						c-1.022,0-1.823,0.845-1.823,1.867v2.224c0,1.022,0.801,1.823,1.823,1.823h25.122v-11.872c0-1.022-0.8-1.823-1.822-1.823
						h-28.857v-4.802h28.857c3.646,0,6.625,2.979,6.625,6.625v16.674h-29.925C1696.088,295.269,1693.109,292.289,1693.109,288.644z
						 M1705.159,269.079l6.714-10.094h5.736l-6.715,10.094H1705.159z"/>
					<path fill="#686868" d="M1781.595,278.595c0-1.022-0.845-1.823-1.868-1.823h-14.806c-1.023,0-1.868,0.801-1.868,1.823v16.674
						h-4.758v-16.674c0-1.022-0.845-1.823-1.867-1.823h-16.63v18.497h-4.802V271.97h21.432c1.067,0,2.09,0.267,3.023,0.756
						c0.444,0.222,0.845,0.488,1.245,0.8c0.355-0.312,0.756-0.578,1.2-0.8c0.935-0.489,1.957-0.756,3.024-0.756h14.806
						c3.646,0,6.626,2.979,6.626,6.625v16.674h-4.758V278.595z"/>
					<path fill="#686868" d="M1791.693,264.277h4.802v4.802h-4.802V264.277z M1791.693,271.97h4.802v23.299h-4.802V271.97z"/>
					<path fill="#686868" d="M1801.832,288.644v-10.049c0-3.646,2.979-6.625,6.625-6.625h29.925v4.802h-29.925
						c-1.022,0-1.823,0.801-1.823,1.823v10.049c0,1.022,0.801,1.823,1.823,1.823h29.925v4.802h-29.925
						C1804.811,295.269,1801.832,292.289,1801.832,288.644z"/>
					<path fill="#686868" d="M1843.72,288.644v-10.049c0-3.646,2.979-6.625,6.625-6.625h23.3c3.646,0,6.625,2.979,6.625,6.625
						v10.049c0,3.646-2.979,6.625-6.625,6.625h-23.3C1846.7,295.269,1843.72,292.289,1843.72,288.644z M1848.522,278.595v10.049
						c0,1.022,0.801,1.823,1.823,1.823h23.3c1.022,0,1.822-0.801,1.822-1.823v-10.049c0-1.022-0.8-1.823-1.822-1.823h-23.3
						C1849.323,276.771,1848.522,277.572,1848.522,278.595z"/>
					<path fill="#686868" d="M1886.675,290.467h28.857c1.022,0,1.822-0.801,1.822-1.823v-0.801c0-0.978-0.8-1.822-1.822-1.822h-23.3
						c-3.646,0-6.625-2.979-6.625-6.626v-0.8c0-3.646,2.979-6.625,6.625-6.625h28.857v4.802h-28.857
						c-1.022,0-1.823,0.801-1.823,1.823v0.8c0,1.023,0.801,1.823,1.823,1.823h23.3c3.646,0,6.625,2.979,6.625,6.625v0.801
						c0,3.646-2.979,6.625-6.625,6.625h-28.857V290.467z"/>
				</g>
			</g>
		</g>
		<g id="forms_1_" display="none">
			<path id="s_1_" display="inline" fill="#E2007A" d="M1870.917,25.243c0,0,16.994-0.128,16.994,18.21
				c0,21.53-16.994,20.365-16.994,20.365h-86.911c0,0-14.056-0.006-14.056,24.173c0,12.912,3.232,24.423,14.056,24.423
				c18.394,0,38.911,0,74.661,0c5.388,0,63.216-1.077,63.216,60.341c0,66.088-57.242,65.176-57.242,65.176h-118.783
				c0,0-15.304-1.063-15.304-19.92c0-18.048,14.48-18.669,14.48-18.669h128.414c0,0,13.234-2.343,13.234-24.432
				c0-20.489-14.97-23.826-14.97-23.826l-82.16,0c0,0-54.622-2.035-54.622-63.453c0-63.574,54.21-62.388,54.21-62.388H1870.917z"/>
			<rect id="Separador_54_" x="1697.812" y="-5.234" fill="#8BD1AA" width="36.727" height="392.218"/>
			<path id="m_5_" display="inline" fill="#E2007A" d="M1630.456,25.135h-143.447h-2.019h-2.695h-42.697h-4.714h-66.807v66.806
				v0.808v38.841h0.003l0.002,86.976c0,10.713,8.685,19.396,19.396,19.396s19.395-8.683,19.395-19.396v-86.976h-0.002v-0.044V63.933
				h27.719c0.091-0.001,0.179-0.007,0.27-0.007H1482v0.007c0.091-0.001,0.179-0.007,0.27-0.007h2.768
				c15.445,0,27.967,12.577,27.967,28.092v39.573l0.002,86.976c0,10.713,8.685,19.396,19.396,19.396s19.396-8.683,19.396-19.396
				v-86.976V91.941c0-10.008-2.216-19.493-6.16-28.016h84.865c15.445,0,27.967,12.577,27.967,28.092v39.573l0.003,86.976
				c0,10.713,8.684,19.396,19.396,19.396c10.711,0,19.395-8.683,19.395-19.396v-86.976V91.941
				C1697.261,55.045,1667.351,25.135,1630.456,25.135z"/>
			<rect id="Separador_53_" x="1331.135" y="-5.234" fill="#8BD1AA" width="36.727" height="392.218"/>
			<path id="r_8_" display="inline" fill="#E2007A" d="M1311.181,25.105h-8.578h-41.122h-42.388
				c-36.896,0-66.807,29.91-66.807,66.807v39.649h0.002l0.003,86.975c0,10.712,8.684,19.396,19.395,19.396
				c10.712,0,19.396-8.684,19.396-19.396v-86.975h-0.002l0.021-39.572c0-15.516,12.521-28.092,27.967-28.092h42.413h41.168h8.532
				c10.712,0,19.396-9.761,19.396-20.473C1330.577,32.711,1321.893,25.105,1311.181,25.105z"/>
			<rect id="Separador_52_" x="1116.083" y="-5.234" fill="#8BD1AA" width="36.727" height="392.218"/>
			<path id="o_7_" display="inline" fill="#E2007A" d="M1008.684,25.135c-58.791,0-106.45,47.66-106.45,106.451
				c0,58.792,47.659,106.451,106.45,106.451c58.792,0,106.451-47.659,106.451-106.451
				C1115.135,72.795,1067.476,25.135,1008.684,25.135z M1008.684,199.246c-37.367,0-67.659-30.292-67.659-67.66
				c0-37.368,30.292-67.66,67.659-67.66c37.368,0,67.661,30.292,67.661,67.66C1076.345,168.954,1046.052,199.246,1008.684,199.246z"
				/>
			<rect id="Separador_51_" x="865.38" y="-5.234" fill="#8BD1AA" width="36.727" height="392.218"/>
			<path id="f_5_" display="inline" fill="#E2007A" d="M884.845-32.003h-8.578h-12.029H800.3c-36.896,0-66.807,29.91-66.807,66.806
				v39.649h0.002l0.002,144.083c0,10.712,8.685,19.396,19.396,19.396s19.396-8.684,19.396-19.396V115.647h73.03
				c10.712,0,19.396-8.684,19.396-19.396s-8.684-19.396-19.396-19.396h-73.03V34.88c0-15.516,12.541-28.092,27.986-28.092h63.963
				h12.075h8.532c10.712,0,19.396-8.683,19.396-19.395C904.241-23.32,895.557-32.003,884.845-32.003z"/>
		</g>
		<g id="forms_sin_claim" display="none">
			<path id="s_2_" display="inline" fill="#E2007A" d="M2177.662,40.185c0,0,21.576-0.163,21.576,23.121
				c0,27.336-21.576,25.857-21.576,25.857h-110.351c0,0-17.846-0.008-17.846,30.691c0,16.395,4.103,31.011,17.846,31.011
				c23.354,0,49.405,0,94.796,0c6.84,0,80.265-1.368,80.265,76.614c0,83.909-72.68,82.751-72.68,82.751h-150.817
				c0,0-19.431-1.349-19.431-25.291c0-22.917,18.385-23.705,18.385-23.705h163.045c0,0,16.805-2.974,16.805-31.02
				c0-26.016-19.006-30.252-19.006-30.252l-104.317,0.001c0,0-69.353-2.583-69.353-80.565c0-80.718,68.828-79.213,68.828-79.213
				H2177.662z"/>
			<rect id="Separador_64_" x="1957.873" y="1.488" fill="#8BD1AA" width="46.631" height="497.992"/>
			<path id="m_6_" display="inline" fill="#E2007A" d="M1872.352,40.047h-182.134h-2.563h-3.422h-54.212h-5.985h-84.822v84.823
				v1.026v49.316h0.002l0.002,110.432c0,13.602,11.027,24.627,24.627,24.627c13.601,0,24.627-11.025,24.627-24.627V175.212h-0.003
				v-0.056V89.307h35.192c0.117-0.001,0.229-0.008,0.344-0.008h59.853v0.008c0.116-0.001,0.229-0.008,0.345-0.008h3.513
				c19.61,0,35.51,15.969,35.51,35.669v50.244l0.002,110.432c0,13.602,11.026,24.627,24.626,24.627
				c13.601,0,24.627-11.025,24.627-24.627V175.212V124.87c0-12.708-2.814-24.75-7.823-35.571h107.755
				c19.608,0,35.509,15.969,35.509,35.669v50.244l0.002,110.432c0,13.602,11.025,24.627,24.626,24.627
				c13.599,0,24.625-11.025,24.625-24.627V175.212V124.87C1957.173,78.023,1919.197,40.047,1872.352,40.047z"/>
			<rect id="Separador_60_" x="1492.309" y="1.488" fill="#8BD1AA" width="46.631" height="497.992"/>
			<path id="r_9_" display="inline" fill="#E2007A" d="M1466.974,40.01h-10.893h-52.211h-53.819
				c-46.846,0-84.822,37.975-84.822,84.822v50.344h0.002l0.003,110.429c0,13.602,11.026,24.626,24.625,24.626
				c13.6,0,24.629-11.024,24.629-24.626V175.176h-0.004l0.026-50.246c0-19.7,15.899-35.668,35.509-35.668h53.852h52.271h10.833
				c13.602,0,24.626-12.393,24.626-25.994C1491.6,49.666,1480.576,40.01,1466.974,40.01z"/>
			<rect id="Separador_59_" x="1219.261" y="1.488" fill="#8BD1AA" width="46.63" height="497.992"/>
			<path id="o_8_" display="inline" fill="#E2007A" d="M1082.898,40.047c-74.646,0-135.157,60.513-135.157,135.159
				s60.512,135.158,135.157,135.158c74.647,0,135.16-60.512,135.16-135.158S1157.545,40.047,1082.898,40.047z M1082.898,261.114
				c-47.443,0-85.905-38.461-85.905-85.908c0-47.445,38.462-85.907,85.905-85.907c47.446,0,85.909,38.462,85.909,85.907
				C1168.807,222.653,1130.344,261.114,1082.898,261.114z"/>
			<rect id="Separador_58_" x="900.949" y="1.488" fill="#8BD1AA" width="46.631" height="497.992"/>
			<path id="f_6_" display="inline" fill="#E2007A" d="M925.663-32.5h-10.892h-15.273h-81.182
				c-46.845,0-84.822,37.976-84.822,84.823v50.341h0.003l0.002,182.94c0,13.602,11.026,24.626,24.626,24.626
				s24.626-11.024,24.626-24.626V154.969h92.726c13.6,0,24.626-11.026,24.626-24.627c0-13.6-11.026-24.625-24.626-24.625H782.75
				V52.419c0-19.699,15.924-35.668,35.533-35.668h81.214h15.332h10.833c13.6,0,24.625-11.024,24.625-24.625
				C950.288-21.475,939.262-32.5,925.663-32.5z"/>
		</g>
		<g id="G:_copia_4" display="none">
			<path display="inline" fill="#E2007A" d="M381.697,82.267c1.878-2.18,3.844-4.278,5.901-6.293
				c0.74-0.725,1.492-1.439,2.253-2.142c0.872-0.805,1.757-1.594,2.656-2.368c0.904-0.804,1.82-1.595,2.746-2.375
				c-1.939,1.549-3.82,3.163-5.642,4.843c1.887-1.788,3.827-3.52,5.818-5.194c1.441-1.149,2.914-2.263,4.42-3.339
				c-1.56,1.195-3.093,2.428-4.596,3.69c2.641-2.107,4.843-3.806,6.42-5.001l-1.787,1.282c21.981-16.845,49.476-26.854,79.31-26.854
				c15.12,0,29.637,2.496,43.143,7.225c2.278,0.798,6.267,2.386,11.2,4.782c7.813,3.797,14.902,8.166,20.376,12.922
				c7.678,6.671,13.427,13.715,17.249,21.129c3.821,7.415,5.682,13.99,5.579,19.725c-0.059,3.301-0.765,6.337-2.118,9.109
				c-1.167,2.279-2.777,4.377-4.834,6.292c-4.641,4.324-6.878,3.985-13.258,3.942c-3.518-0.024-6.885-0.872-10.099-2.542
				c-3.215-1.67-4.869-5.977-6.887-8.535c-14.325-18.162-28.988-23.521-36.008-26.875c-7.019-3.354-16.017-5.069-26.994-5.144
				c-11.303-0.078-21.435,1.811-30.393,5.664c-8.959,3.853-16.661,9.481-23.104,16.88c-3.887,4.465-7.247,9.546-10.078,15.243
				c-1.935,3.846-3.626,7.975-5.075,12.388c-3.541,10.784-5.429,22.739-5.664,35.863c-0.508,28.447,5.603,50.38,18.333,65.8
				c12.731,15.418,30.729,23.207,53.997,23.364c11.304,0.08,21.949-1.338,31.934-4.249c9.986-2.91,20.132-7.087,30.438-12.531
				l0.879-39.729l-37.865-0.262c-9.11-0.063-15.972-1.49-20.587-4.282c-4.614-2.792-6.863-7.498-6.745-14.124
				c0.052-2.858,0.641-5.45,1.771-7.776c0.997-1.939,2.378-3.688,4.143-5.249c3.963-3.506,9.294-5.236,15.993-5.191l55.531,0.381
				c6.812,0.048,12.569,0.694,17.271,1.939c4.702,1.246,8.471,3.98,11.305,8.196c2.836,4.217,4.178,10.52,4.028,18.91l-0.831,46.475
				c-0.096,5.335-0.625,9.741-1.591,13.218c-0.193,0.68-0.336,1.133-0.487,1.569c-0.865,2.5-7.159,8.853-12.714,13.533
				c-2.64,2.221-11.077,8.006-12.809,9.225c-21.225,14.94-47.105,23.713-75.035,23.713c-27.15,0-52.361-8.29-73.245-22.478
				c-2.069-1.404-11.598-8.406-14.17-10.593c-2.572-2.185-5.03-4.498-7.375-6.937c-5.534-5.757-9.836-11.915-13.977-18.934
				c-0.278-0.37-0.185-0.315-0.359-0.581c-3.764-6.38-6.953-13.28-9.565-20.701c-5.486-15.588-8.058-32.974-7.714-52.162
				c0.337-18.854,3.446-36.091,9.326-51.71c4.097-10.882,9.453-20.605,16.068-29.168c0.882-1.083,1.781-2.149,2.697-3.202
				c-0.982,1.161-1.94,2.346-2.872,3.553C379.205,85.128,380.436,83.684,381.697,82.267z"/>
			<circle display="inline" fill-rule="evenodd" clip-rule="evenodd" fill="#E2007A" cx="658.577" cy="271.73" r="39.807"/>
			<circle display="inline" fill-rule="evenodd" clip-rule="evenodd" fill="#D1D2D3" cx="658.577" cy="166.218" r="39.807"/>
			<circle display="inline" fill-rule="evenodd" clip-rule="evenodd" fill="#D1D2D3" cx="658.577" cy="60.707" r="39.807"/>
		</g>
		<g id="Icono_GFORMS">
			<circle id="Circulo_5_" display="none" fill="#FFD181" cx="164.098" cy="166.257" r="145.232"/>
			<path fill="#FFD181" d="M244.654,101.641l64.676,64.675c0-0.02,0-0.039,0-0.059c0-80.21-65.022-145.232-145.232-145.232
				S18.866,86.047,18.866,166.257c0,80.209,65.022,145.231,145.232,145.231c1.079,0,2.155-0.018,3.229-0.041l-56.266-56.266
				L244.654,101.641z"/>
			<path fill="#FDAF53" d="M309.33,166.315l-64.676-64.675L111.061,255.182l56.266,56.266
				C246.025,309.73,309.298,245.418,309.33,166.315z"/>
			<path display="none" fill="#FFFFFF" d="M244.682,243.33c0,9.232-7.484,16.716-16.715,16.716H122.8
				c-9.231,0-16.715-7.483-16.715-16.716V78.964c0-9.232,7.484-16.715,16.715-16.715h105.167c9.231,0,16.715,7.483,16.715,16.715
				V243.33z"/>
			<g>
				<path fill="#FFFFFF" d="M131.579,207.521l-2.534-2.534c-0.686-0.686-0.865-2.105-0.391-3.1c0.439-0.923,0.833-1.884,1.172-2.856
					c0.36-1.036,1.483-1.911,2.454-1.912h3.607c2.526,0,4.584-2.057,4.583-4.582l0-5.857c0-1.225-0.476-2.374-1.342-3.24
					c-0.866-0.865-2.017-1.343-3.242-1.343l-3.607-0.001c-0.579,0-1.235-0.308-1.752-0.825c-0.324-0.324-0.566-0.7-0.699-1.084
					c-0.339-0.974-0.733-1.937-1.174-2.861c-0.474-0.995-0.294-2.417,0.392-3.102l2.533-2.534c1.787-1.786,1.787-4.694,0-6.481
					l-4.141-4.141c-1.787-1.788-4.696-1.788-6.483-0.001l-2.533,2.534c-0.686,0.687-2.106,0.865-3.102,0.391
					c-0.923-0.439-1.885-0.835-2.857-1.174c-0.378-0.131-0.762-0.379-1.081-0.698c-0.52-0.521-0.83-1.176-0.831-1.757v-3.602
					c0-1.225-0.477-2.375-1.342-3.241c-0.867-0.866-2.017-1.344-3.242-1.344l-5.859-0.002c-1.224,0-2.375,0.478-3.241,1.343
					c-0.866,0.865-1.343,2.016-1.343,3.241l0.001,3.608c0,0.971-0.875,2.095-1.912,2.454c-0.971,0.339-1.933,0.734-2.854,1.173
					c-0.994,0.474-2.415,0.295-3.101-0.391l-2.533-2.534c-1.787-1.787-4.695-1.786-6.482,0L74.5,165.21
					c-1.786,1.785-1.787,4.693,0,6.48l2.534,2.534c0.686,0.687,0.865,2.106,0.392,3.101c-0.438,0.921-0.833,1.881-1.172,2.856
					c-0.359,1.033-1.486,1.911-2.457,1.909H70.19c-2.527,0-4.583,2.058-4.583,4.585v5.863c0,1.225,0.476,2.374,1.342,3.241
					c0.866,0.866,2.018,1.343,3.241,1.342l3.607,0.001c0.581,0,1.237,0.31,1.756,0.829c0.325,0.325,0.565,0.695,0.699,1.08
					c0.339,0.975,0.734,1.935,1.172,2.857c0.474,0.993,0.295,2.414-0.391,3.1l-2.535,2.535c-1.787,1.786-1.787,4.696,0,6.48
					l4.142,4.145c1.787,1.784,4.695,1.784,6.481,0l2.535-2.536c0.686-0.686,2.104-0.864,3.101-0.392
					c0.923,0.441,1.886,0.836,2.858,1.174c0.378,0.132,0.761,0.381,1.08,0.699c0.519,0.521,0.831,1.177,0.831,1.759l-0.001,3.607
					c0,1.225,0.477,2.373,1.343,3.239c0.866,0.865,2.017,1.344,3.241,1.342l5.861-0.001c2.527-0.001,4.583-2.058,4.584-4.585v-3.604
					c0-0.97,0.875-2.094,1.912-2.456c0.972-0.338,1.933-0.732,2.855-1.173c0.996-0.473,2.414-0.294,3.1,0.393l2.534,2.534
					c1.787,1.786,4.696,1.784,6.482,0l4.141-4.143C133.365,212.218,133.366,209.31,131.579,207.521z M112.537,199.104
					c-5.237,5.236-13.758,5.236-18.996,0c-5.237-5.237-5.237-13.76,0-18.996c5.238-5.238,13.759-5.238,18.996,0
					C117.774,185.345,117.774,193.867,112.537,199.104z"/>
				<path fill="#FFFFFF" d="M109.507,143.862c0.233-0.111,0.583-0.051,0.681,0.044l1.269,1.271c1.191,1.191,3.131,1.191,4.322-0.001
					l2.07-2.07c1.192-1.191,1.191-3.129,0-4.321l-1.269-1.269c-0.097-0.096-0.156-0.446-0.044-0.681
					c0.231-0.486,0.44-0.993,0.618-1.506c0.083-0.24,0.369-0.442,0.502-0.441l1.805,0c1.685-0.001,3.056-1.371,3.056-3.056v-2.928
					c0-0.816-0.318-1.584-0.895-2.161c-0.577-0.578-1.345-0.896-2.163-0.895h-1.803c-0.055,0-0.197-0.051-0.336-0.189
					c-0.079-0.08-0.141-0.17-0.168-0.252c-0.179-0.513-0.387-1.021-0.618-1.506c-0.112-0.235-0.053-0.585,0.044-0.681l1.269-1.27
					c1.192-1.191,1.192-3.13,0-4.321l-2.07-2.071c-1.191-1.192-3.13-1.192-4.322,0l-1.27,1.269c-0.095,0.096-0.446,0.156-0.68,0.044
					c-0.488-0.234-0.996-0.441-1.506-0.618c-0.082-0.028-0.173-0.09-0.252-0.169c-0.139-0.139-0.19-0.28-0.19-0.335l0-1.804
					c0-0.817-0.318-1.583-0.896-2.161c-0.576-0.578-1.343-0.896-2.159-0.896l-2.928,0c-1.685,0-3.055,1.372-3.056,3.057v1.803
					c0,0.136-0.203,0.421-0.442,0.504c-0.514,0.179-1.02,0.386-1.507,0.619c-0.232,0.11-0.584,0.05-0.681-0.046l-1.269-1.268
					c-1.191-1.192-3.13-1.192-4.322,0l-2.071,2.07c-1.192,1.192-1.192,3.13,0,4.321l1.269,1.269
					c0.097,0.096,0.156,0.447,0.045,0.681c-0.232,0.487-0.44,0.994-0.617,1.506c-0.084,0.24-0.37,0.442-0.505,0.442l-1.803-0.001
					c-0.817,0.001-1.585,0.319-2.161,0.896c-0.578,0.577-0.896,1.344-0.896,2.161v2.927c0,0.817,0.318,1.584,0.896,2.16
					c0.577,0.578,1.344,0.896,2.161,0.896l1.803,0c0.057,0,0.198,0.05,0.336,0.188c0.079,0.079,0.139,0.171,0.169,0.252
					c0.178,0.514,0.386,1.021,0.618,1.506c0.111,0.235,0.052,0.585-0.045,0.682l-1.269,1.268c-1.19,1.192-1.19,3.131,0,4.322
					l2.071,2.071c1.192,1.191,3.13,1.191,4.322-0.001l1.269-1.269c0.097-0.096,0.447-0.155,0.68-0.045
					c0.487,0.233,0.994,0.44,1.507,0.619c0.081,0.028,0.173,0.089,0.252,0.168c0.139,0.138,0.19,0.28,0.19,0.336v1.804
					c0,0.817,0.318,1.584,0.895,2.161c0.578,0.578,1.344,0.896,2.16,0.896l2.928,0c1.686,0,3.056-1.371,3.056-3.056v-1.803
					c0-0.136,0.203-0.422,0.442-0.505C108.514,144.302,109.021,144.094,109.507,143.862z M107.248,134.575
					c-2.319,2.32-6.098,2.32-8.418,0c-2.32-2.322-2.32-6.098,0-8.418s6.098-2.321,8.418,0
					C109.569,128.478,109.568,132.254,107.248,134.575z"/>
			</g>
			<g>
				<path fill="#51A9D5" d="M122.8,62.249c-9.231,0-16.715,7.483-16.715,16.715V243.33c0,9.232,7.484,16.716,16.715,16.716h105.167
					c9.231,0,16.715-7.483,16.715-16.716V101.645l-39.396-39.396H122.8z"/>
				<path fill="#3A7A9A" d="M227.015,110.003h17.632v-8.387l-2.315-1.149L210.3,70.606v22.682
					C210.3,102.519,217.784,110.003,227.015,110.003z"/>
				<path fill="#80C9EE" d="M222.001,101.645h22.681l-39.396-39.396V84.93C205.286,94.161,212.77,101.645,222.001,101.645z"/>
			</g>
			<path fill="#FFFFFF" d="M211.217,231.577c0,1.731-1.403,3.135-3.134,3.135H187.45c-1.731,0-3.134-1.403-3.134-3.135v-20.633
				c0-1.731,1.403-3.134,3.134-3.134h20.633c1.731,0,3.134,1.402,3.134,3.134V231.577z"/>
			<path fill="#A0D062" d="M217.395,205.001l-0.799-0.688c-1.328-1.142-3.323-1.014-4.496,0.285l-13.381,14.838l-4.039-3.479
				c-1.326-1.143-3.322-1.019-4.496,0.28l-0.707,0.783c-0.574,0.634-0.872,1.471-0.828,2.325c0.044,0.854,0.424,1.656,1.06,2.229
				l7.404,6.781c0.641,0.603,1.5,0.915,2.378,0.868c0.878-0.046,1.699-0.448,2.273-1.115l15.974-18.562
				c0.558-0.646,0.836-1.49,0.771-2.345C218.444,206.351,218.044,205.559,217.395,205.001z"/>
			<circle fill="#FFFFFF" cx="148.22" cy="220.606" r="15.671"/>
			<circle fill="#FDAF53" cx="148.221" cy="220.606" r="7.313"/>
			<path fill="#FFFFFF" d="M218.424,188.744c0,1.73-1.403,3.135-3.134,3.135h-80.442c-1.731,0-3.134-1.404-3.134-3.135v-19.849
				c0-1.73,1.403-3.135,3.134-3.135h80.442c1.73,0,3.134,1.404,3.134,3.135V188.744z"/>
			<path fill="#D0D0D0" d="M215.291,165.761H190.27v26.118h25.021c1.73,0,3.134-1.404,3.134-3.135v-19.849
				C218.424,167.165,217.021,165.761,215.291,165.761z"/>
			<polygon fill="#6E6E6E" points="212.784,174.173 204.583,186.22 196.384,174.173 			"/>
			<path fill="#FFFFFF" d="M218.738,146.956c0,1.731-1.403,3.134-3.134,3.134h-80.442c-1.73,0-3.134-1.403-3.134-3.134v-19.849
				c0-1.731,1.403-3.134,3.134-3.134h80.442c1.731,0,3.134,1.403,3.134,3.134V146.956z"/>
		</g>
	</g>
	
		<rect x="-61.989" y="-143.976" display="none" fill-rule="evenodd" clip-rule="evenodd" fill="#303030" width="2409.007" height="600"/>
	<g id="Negativo" display="none">
		<g id="Claim">
			<g>
				
					<text transform="matrix(1 0 0 1 733.2358 301.2686)" display="inline" fill="#686868" font-family="'Expansiva-Bold'" font-size="44.4679">generador de formularios dinámicos</text>
			</g>
			<g display="inline">
				<g>
					<path fill="#686868" d="M733.236,307.094h29.925c1.022,0,1.822-0.845,1.822-1.868v-22.454h-25.122
						c-1.022,0-1.823,0.801-1.823,1.823v10.049c0,1.022,0.801,1.823,1.823,1.823h23.032v4.802h-23.032
						c-3.646,0-6.625-2.979-6.625-6.625v-10.049c0-3.646,2.979-6.625,6.625-6.625h29.925v27.256c0,3.646-2.979,6.625-6.625,6.625
						h-29.925V307.094z"/>
					<path fill="#686868" d="M775.125,294.644v-10.049c0-3.646,2.979-6.625,6.625-6.625h23.3c3.646,0,6.625,2.979,6.625,6.625v7.426
						h-29.658v-4.803h24.855v-2.623c0-1.022-0.8-1.823-1.822-1.823h-23.3c-1.022,0-1.823,0.801-1.823,1.823v10.049
						c0,1.022,0.801,1.823,1.823,1.823h29.925v4.802H781.75C778.104,301.269,775.125,298.289,775.125,294.644z"/>
					<path fill="#686868" d="M848.76,284.595c0-1.022-0.8-1.823-1.822-1.823h-25.123v18.497h-4.802V277.97h29.925
						c3.646,0,6.625,2.979,6.625,6.625v16.674h-4.803V284.595z"/>
					<path fill="#686868" d="M858.902,294.644v-10.049c0-3.646,2.979-6.625,6.625-6.625h23.3c3.646,0,6.625,2.979,6.625,6.625v7.426
						h-29.658v-4.803h24.855v-2.623c0-1.022-0.8-1.823-1.822-1.823h-23.3c-1.022,0-1.823,0.801-1.823,1.823v10.049
						c0,1.022,0.801,1.823,1.823,1.823h29.925v4.802h-29.925C861.881,301.269,858.902,298.289,858.902,294.644z"/>
					<path fill="#686868" d="M900.791,284.595c0-3.646,2.979-6.625,6.625-6.625h17.208v4.802h-17.208
						c-1.022,0-1.823,0.801-1.823,1.823v16.674h-4.802V284.595z"/>
					<path fill="#686868" d="M929.517,294.644v-2.224c0-3.646,2.979-6.625,6.625-6.625h23.032v4.758h-23.032
						c-1.022,0-1.823,0.845-1.823,1.867v2.224c0,1.022,0.801,1.823,1.823,1.823h25.122v-11.872c0-1.022-0.8-1.823-1.822-1.823
						h-28.857v-4.802h28.857c3.646,0,6.625,2.979,6.625,6.625v16.674h-29.925C932.497,301.269,929.517,298.289,929.517,294.644z"/>
					<path fill="#686868" d="M971.406,294.644v-10.049c0-3.646,2.979-6.625,6.625-6.625h23.032v4.802h-23.032
						c-1.022,0-1.823,0.801-1.823,1.823v10.049c0,1.022,0.801,1.823,1.823,1.823h25.122v-29.08h4.803v33.882h-29.925
						C974.385,301.269,971.406,298.289,971.406,294.644z"/>
					<path fill="#686868" d="M1013.294,294.644v-10.049c0-3.646,2.979-6.625,6.625-6.625h23.3c3.646,0,6.625,2.979,6.625,6.625
						v10.049c0,3.646-2.979,6.625-6.625,6.625h-23.3C1016.274,301.269,1013.294,298.289,1013.294,294.644z M1018.096,284.595v10.049
						c0,1.022,0.801,1.823,1.823,1.823h23.3c1.022,0,1.822-0.801,1.822-1.823v-10.049c0-1.022-0.8-1.823-1.822-1.823h-23.3
						C1018.897,282.771,1018.096,283.572,1018.096,284.595z"/>
					<path fill="#686868" d="M1055.183,284.595c0-3.646,2.979-6.625,6.625-6.625h17.208v4.802h-17.208
						c-1.022,0-1.823,0.801-1.823,1.823v16.674h-4.802V284.595z"/>
					<path fill="#686868" d="M1103.92,294.644v-10.049c0-3.646,2.979-6.625,6.625-6.625h23.032v4.802h-23.032
						c-1.022,0-1.823,0.801-1.823,1.823v10.049c0,1.022,0.801,1.823,1.823,1.823h25.122v-29.08h4.803v33.882h-29.925
						C1106.9,301.269,1103.92,298.289,1103.92,294.644z"/>
					<path fill="#686868" d="M1145.808,294.644v-10.049c0-3.646,2.979-6.625,6.625-6.625h23.3c3.646,0,6.625,2.979,6.625,6.625
						v7.426H1152.7v-4.803h24.855v-2.623c0-1.022-0.8-1.823-1.822-1.823h-23.3c-1.022,0-1.823,0.801-1.823,1.823v10.049
						c0,1.022,0.801,1.823,1.823,1.823h29.925v4.802h-29.925C1148.788,301.269,1145.808,298.289,1145.808,294.644z"/>
					<path fill="#686868" d="M1207.708,274.012c0-3.646,2.979-6.625,6.625-6.625h21.432v4.803h-21.432
						c-1.022,0-1.823,0.8-1.823,1.822v3.958h19.031v4.802h-19.031v18.497h-4.802V274.012z"/>
					<path fill="#686868" d="M1235.322,294.644v-10.049c0-3.646,2.979-6.625,6.625-6.625h23.3c3.646,0,6.625,2.979,6.625,6.625
						v10.049c0,3.646-2.979,6.625-6.625,6.625h-23.3C1238.301,301.269,1235.322,298.289,1235.322,294.644z M1240.124,284.595v10.049
						c0,1.022,0.801,1.823,1.823,1.823h23.3c1.022,0,1.822-0.801,1.822-1.823v-10.049c0-1.022-0.8-1.823-1.822-1.823h-23.3
						C1240.924,282.771,1240.124,283.572,1240.124,284.595z"/>
					<path fill="#686868" d="M1277.21,284.595c0-3.646,2.979-6.625,6.625-6.625h17.208v4.802h-17.208
						c-1.022,0-1.823,0.801-1.823,1.823v16.674h-4.802V284.595z"/>
					<path fill="#686868" d="M1352.536,284.595c0-1.022-0.845-1.823-1.868-1.823h-14.806c-1.023,0-1.868,0.801-1.868,1.823v16.674
						h-4.758v-16.674c0-1.022-0.845-1.823-1.867-1.823h-16.63v18.497h-4.802V277.97h21.432c1.067,0,2.09,0.267,3.023,0.756
						c0.445,0.222,0.845,0.488,1.245,0.8c0.355-0.312,0.756-0.578,1.2-0.8c0.935-0.489,1.957-0.756,3.024-0.756h14.806
						c3.646,0,6.626,2.979,6.626,6.625v16.674h-4.758V284.595z"/>
					<path fill="#686868" d="M1362.633,294.644V277.97h4.802v16.674c0,1.022,0.801,1.823,1.823,1.823h23.3
						c1.022,0,1.822-0.801,1.822-1.823V277.97h4.803v16.674c0,3.646-2.979,6.625-6.625,6.625h-23.3
						C1365.613,301.269,1362.633,298.289,1362.633,294.644z"/>
					<path fill="#686868" d="M1404.521,301.269v-33.882h4.802v33.882H1404.521z"/>
					<path fill="#686868" d="M1414.66,294.644v-2.224c0-3.646,2.979-6.625,6.625-6.625h23.032v4.758h-23.032
						c-1.022,0-1.823,0.845-1.823,1.867v2.224c0,1.022,0.801,1.823,1.823,1.823h25.122v-11.872c0-1.022-0.8-1.823-1.822-1.823
						h-28.857v-4.802h28.857c3.646,0,6.625,2.979,6.625,6.625v16.674h-29.925C1417.639,301.269,1414.66,298.289,1414.66,294.644z"/>
					<path fill="#686868" d="M1456.548,284.595c0-3.646,2.979-6.625,6.625-6.625h17.208v4.802h-17.208
						c-1.022,0-1.823,0.801-1.823,1.823v16.674h-4.802V284.595z"/>
					<path fill="#686868" d="M1485.275,270.277h4.802v4.802h-4.802V270.277z M1485.275,277.97h4.802v23.299h-4.802V277.97z"/>
					<path fill="#686868" d="M1495.414,294.644v-10.049c0-3.646,2.979-6.625,6.625-6.625h23.3c3.646,0,6.625,2.979,6.625,6.625
						v10.049c0,3.646-2.979,6.625-6.625,6.625h-23.3C1498.393,301.269,1495.414,298.289,1495.414,294.644z M1500.215,284.595v10.049
						c0,1.022,0.801,1.823,1.823,1.823h23.3c1.022,0,1.822-0.801,1.822-1.823v-10.049c0-1.022-0.8-1.823-1.822-1.823h-23.3
						C1501.016,282.771,1500.215,283.572,1500.215,284.595z"/>
					<path fill="#686868" d="M1538.37,296.467h28.857c1.022,0,1.822-0.801,1.822-1.823v-0.801c0-0.978-0.8-1.822-1.822-1.822h-23.3
						c-3.646,0-6.625-2.979-6.625-6.626v-0.8c0-3.646,2.979-6.625,6.625-6.625h28.857v4.802h-28.857
						c-1.022,0-1.823,0.801-1.823,1.823v0.8c0,1.023,0.801,1.823,1.823,1.823h23.3c3.646,0,6.625,2.979,6.625,6.625v0.801
						c0,3.646-2.979,6.625-6.625,6.625h-28.857V296.467z"/>
					<path fill="#686868" d="M1599.202,294.644v-10.049c0-3.646,2.979-6.625,6.625-6.625h23.032v4.802h-23.032
						c-1.022,0-1.823,0.801-1.823,1.823v10.049c0,1.022,0.801,1.823,1.823,1.823h25.122v-29.08h4.803v33.882h-29.925
						C1602.181,301.269,1599.202,298.289,1599.202,294.644z"/>
					<path fill="#686868" d="M1641.089,270.277h4.802v4.802h-4.802V270.277z M1641.089,277.97h4.802v23.299h-4.802V277.97z"/>
					<path fill="#686868" d="M1682.975,284.595c0-1.022-0.8-1.823-1.822-1.823h-25.123v18.497h-4.802V277.97h29.925
						c3.646,0,6.625,2.979,6.625,6.625v16.674h-4.803V284.595z"/>
					<path fill="#686868" d="M1693.117,294.644v-2.224c0-3.646,2.979-6.625,6.625-6.625h23.032v4.758h-23.032
						c-1.022,0-1.823,0.845-1.823,1.867v2.224c0,1.022,0.801,1.823,1.823,1.823h25.122v-11.872c0-1.022-0.8-1.823-1.822-1.823
						h-28.857v-4.802h28.857c3.646,0,6.625,2.979,6.625,6.625v16.674h-29.925C1696.096,301.269,1693.117,298.289,1693.117,294.644z
						 M1705.167,275.079l6.714-10.094h5.736l-6.715,10.094H1705.167z"/>
					<path fill="#686868" d="M1781.604,284.595c0-1.022-0.845-1.823-1.868-1.823h-14.806c-1.023,0-1.868,0.801-1.868,1.823v16.674
						h-4.758v-16.674c0-1.022-0.845-1.823-1.867-1.823h-16.63v18.497h-4.802V277.97h21.432c1.067,0,2.09,0.267,3.023,0.756
						c0.445,0.222,0.845,0.488,1.245,0.8c0.355-0.312,0.756-0.578,1.2-0.8c0.935-0.489,1.957-0.756,3.024-0.756h14.806
						c3.646,0,6.626,2.979,6.626,6.625v16.674h-4.758V284.595z"/>
					<path fill="#686868" d="M1791.702,270.277h4.802v4.802h-4.802V270.277z M1791.702,277.97h4.802v23.299h-4.802V277.97z"/>
					<path fill="#686868" d="M1801.84,294.644v-10.049c0-3.646,2.979-6.625,6.625-6.625h29.925v4.802h-29.925
						c-1.022,0-1.823,0.801-1.823,1.823v10.049c0,1.022,0.801,1.823,1.823,1.823h29.925v4.802h-29.925
						C1804.82,301.269,1801.84,298.289,1801.84,294.644z"/>
					<path fill="#686868" d="M1843.728,294.644v-10.049c0-3.646,2.979-6.625,6.625-6.625h23.3c3.646,0,6.625,2.979,6.625,6.625
						v10.049c0,3.646-2.979,6.625-6.625,6.625h-23.3C1846.708,301.269,1843.728,298.289,1843.728,294.644z M1848.53,284.595v10.049
						c0,1.022,0.801,1.823,1.823,1.823h23.3c1.022,0,1.822-0.801,1.822-1.823v-10.049c0-1.022-0.8-1.823-1.822-1.823h-23.3
						C1849.331,282.771,1848.53,283.572,1848.53,284.595z"/>
					<path fill="#686868" d="M1886.684,296.467h28.857c1.022,0,1.822-0.801,1.822-1.823v-0.801c0-0.978-0.8-1.822-1.822-1.822h-23.3
						c-3.646,0-6.625-2.979-6.625-6.626v-0.8c0-3.646,2.979-6.625,6.625-6.625h28.857v4.802h-28.857
						c-1.022,0-1.823,0.801-1.823,1.823v0.8c0,1.023,0.801,1.823,1.823,1.823h23.3c3.646,0,6.625,2.979,6.625,6.625v0.801
						c0,3.646-2.979,6.625-6.625,6.625h-28.857V296.467z"/>
				</g>
			</g>
			<g id="generador_de_formularios_dinámicos" display="inline" opacity="0.6">
				<g>
					<path fill="#FFFFFF" d="M733.236,307.094h29.925c1.022,0,1.822-0.845,1.822-1.868v-22.454h-25.122
						c-1.022,0-1.823,0.801-1.823,1.823v10.049c0,1.022,0.801,1.823,1.823,1.823h23.032v4.802h-23.032
						c-3.646,0-6.625-2.979-6.625-6.625v-10.049c0-3.646,2.979-6.625,6.625-6.625h29.925v27.256c0,3.646-2.979,6.625-6.625,6.625
						h-29.925V307.094z"/>
					<path fill="#FFFFFF" d="M775.125,294.644v-10.049c0-3.646,2.979-6.625,6.625-6.625h23.3c3.646,0,6.625,2.979,6.625,6.625v7.426
						h-29.658v-4.803h24.855v-2.623c0-1.022-0.8-1.823-1.822-1.823h-23.3c-1.022,0-1.823,0.801-1.823,1.823v10.049
						c0,1.022,0.801,1.823,1.823,1.823h29.925v4.802H781.75C778.104,301.269,775.125,298.289,775.125,294.644z"/>
					<path fill="#FFFFFF" d="M848.759,284.595c0-1.022-0.8-1.823-1.822-1.823h-25.123v18.497h-4.802V277.97h29.925
						c3.646,0,6.625,2.979,6.625,6.625v16.674h-4.803V284.595z"/>
					<path fill="#FFFFFF" d="M858.9,294.644v-10.049c0-3.646,2.979-6.625,6.625-6.625h23.3c3.646,0,6.625,2.979,6.625,6.625v7.426
						h-29.658v-4.803h24.855v-2.623c0-1.022-0.8-1.823-1.822-1.823h-23.3c-1.022,0-1.823,0.801-1.823,1.823v10.049
						c0,1.022,0.801,1.823,1.823,1.823h29.925v4.802h-29.925C861.879,301.269,858.9,298.289,858.9,294.644z"/>
					<path fill="#FFFFFF" d="M900.789,284.595c0-3.646,2.979-6.625,6.625-6.625h17.208v4.802h-17.208
						c-1.022,0-1.823,0.801-1.823,1.823v16.674h-4.802V284.595z"/>
					<path fill="#FFFFFF" d="M929.515,294.644v-2.224c0-3.646,2.979-6.625,6.625-6.625h23.032v4.758H936.14
						c-1.022,0-1.823,0.845-1.823,1.867v2.224c0,1.022,0.801,1.823,1.823,1.823h25.122v-11.872c0-1.022-0.8-1.823-1.822-1.823
						h-28.857v-4.802h28.857c3.646,0,6.625,2.979,6.625,6.625v16.674H936.14C932.495,301.269,929.515,298.289,929.515,294.644z"/>
					<path fill="#FFFFFF" d="M971.403,294.644v-10.049c0-3.646,2.979-6.625,6.625-6.625h23.032v4.802h-23.032
						c-1.022,0-1.823,0.801-1.823,1.823v10.049c0,1.022,0.801,1.823,1.823,1.823h25.122v-29.08h4.803v33.882h-29.925
						C974.382,301.269,971.403,298.289,971.403,294.644z"/>
					<path fill="#FFFFFF" d="M1013.292,294.644v-10.049c0-3.646,2.979-6.625,6.625-6.625h23.3c3.646,0,6.625,2.979,6.625,6.625
						v10.049c0,3.646-2.979,6.625-6.625,6.625h-23.3C1016.271,301.269,1013.292,298.289,1013.292,294.644z M1018.093,284.595v10.049
						c0,1.022,0.801,1.823,1.823,1.823h23.3c1.022,0,1.822-0.801,1.822-1.823v-10.049c0-1.022-0.8-1.823-1.822-1.823h-23.3
						C1018.894,282.771,1018.093,283.572,1018.093,284.595z"/>
					<path fill="#FFFFFF" d="M1055.179,284.595c0-3.646,2.979-6.625,6.625-6.625h17.208v4.802h-17.208
						c-1.022,0-1.823,0.801-1.823,1.823v16.674h-4.802V284.595z"/>
					<path fill="#FFFFFF" d="M1103.916,294.644v-10.049c0-3.646,2.979-6.625,6.625-6.625h23.032v4.802h-23.032
						c-1.022,0-1.823,0.801-1.823,1.823v10.049c0,1.022,0.801,1.823,1.823,1.823h25.122v-29.08h4.803v33.882h-29.925
						C1106.895,301.269,1103.916,298.289,1103.916,294.644z"/>
					<path fill="#FFFFFF" d="M1145.804,294.644v-10.049c0-3.646,2.979-6.625,6.625-6.625h23.3c3.646,0,6.625,2.979,6.625,6.625
						v7.426h-29.658v-4.803h24.855v-2.623c0-1.022-0.8-1.823-1.822-1.823h-23.3c-1.022,0-1.823,0.801-1.823,1.823v10.049
						c0,1.022,0.801,1.823,1.823,1.823h29.925v4.802h-29.925C1148.784,301.269,1145.804,298.289,1145.804,294.644z"/>
					<path fill="#FFFFFF" d="M1207.703,274.012c0-3.646,2.979-6.625,6.625-6.625h21.432v4.803h-21.432
						c-1.022,0-1.823,0.8-1.823,1.822v3.958h19.031v4.802h-19.031v18.497h-4.802V274.012z"/>
					<path fill="#FFFFFF" d="M1235.317,294.644v-10.049c0-3.646,2.979-6.625,6.625-6.625h23.3c3.646,0,6.625,2.979,6.625,6.625
						v10.049c0,3.646-2.979,6.625-6.625,6.625h-23.3C1238.296,301.269,1235.317,298.289,1235.317,294.644z M1240.119,284.595v10.049
						c0,1.022,0.801,1.823,1.823,1.823h23.3c1.022,0,1.822-0.801,1.822-1.823v-10.049c0-1.022-0.8-1.823-1.822-1.823h-23.3
						C1240.919,282.771,1240.119,283.572,1240.119,284.595z"/>
					<path fill="#FFFFFF" d="M1277.205,284.595c0-3.646,2.979-6.625,6.625-6.625h17.208v4.802h-17.208
						c-1.022,0-1.823,0.801-1.823,1.823v16.674h-4.802V284.595z"/>
					<path fill="#FFFFFF" d="M1352.53,284.595c0-1.022-0.845-1.823-1.868-1.823h-14.806c-1.023,0-1.868,0.801-1.868,1.823v16.674
						h-4.758v-16.674c0-1.022-0.845-1.823-1.867-1.823h-16.63v18.497h-4.802V277.97h21.432c1.067,0,2.09,0.267,3.023,0.756
						c0.445,0.222,0.845,0.488,1.245,0.8c0.355-0.312,0.756-0.578,1.2-0.8c0.935-0.489,1.957-0.756,3.024-0.756h14.806
						c3.646,0,6.626,2.979,6.626,6.625v16.674h-4.758V284.595z"/>
					<path fill="#FFFFFF" d="M1362.627,294.644V277.97h4.802v16.674c0,1.022,0.801,1.823,1.823,1.823h23.3
						c1.022,0,1.822-0.801,1.822-1.823V277.97h4.803v16.674c0,3.646-2.979,6.625-6.625,6.625h-23.3
						C1365.607,301.269,1362.627,298.289,1362.627,294.644z"/>
					<path fill="#FFFFFF" d="M1404.515,301.269v-33.882h4.802v33.882H1404.515z"/>
					<path fill="#FFFFFF" d="M1414.654,294.644v-2.224c0-3.646,2.979-6.625,6.625-6.625h23.032v4.758h-23.032
						c-1.022,0-1.823,0.845-1.823,1.867v2.224c0,1.022,0.801,1.823,1.823,1.823h25.122v-11.872c0-1.022-0.8-1.823-1.822-1.823
						h-28.857v-4.802h28.857c3.646,0,6.625,2.979,6.625,6.625v16.674h-29.925C1417.633,301.269,1414.654,298.289,1414.654,294.644z"
						/>
					<path fill="#FFFFFF" d="M1456.542,284.595c0-3.646,2.979-6.625,6.625-6.625h17.208v4.802h-17.208
						c-1.022,0-1.823,0.801-1.823,1.823v16.674h-4.802V284.595z"/>
					<path fill="#FFFFFF" d="M1485.268,270.277h4.802v4.802h-4.802V270.277z M1485.268,277.97h4.802v23.299h-4.802V277.97z"/>
					<path fill="#FFFFFF" d="M1495.407,294.644v-10.049c0-3.646,2.979-6.625,6.625-6.625h23.3c3.646,0,6.625,2.979,6.625,6.625
						v10.049c0,3.646-2.979,6.625-6.625,6.625h-23.3C1498.386,301.269,1495.407,298.289,1495.407,294.644z M1500.208,284.595v10.049
						c0,1.022,0.801,1.823,1.823,1.823h23.3c1.022,0,1.822-0.801,1.822-1.823v-10.049c0-1.022-0.8-1.823-1.822-1.823h-23.3
						C1501.009,282.771,1500.208,283.572,1500.208,284.595z"/>
					<path fill="#FFFFFF" d="M1538.363,296.467h28.857c1.022,0,1.822-0.801,1.822-1.823v-0.801c0-0.978-0.8-1.822-1.822-1.822h-23.3
						c-3.646,0-6.625-2.979-6.625-6.626v-0.8c0-3.646,2.979-6.625,6.625-6.625h28.857v4.802h-28.857
						c-1.022,0-1.823,0.801-1.823,1.823v0.8c0,1.023,0.801,1.823,1.823,1.823h23.3c3.646,0,6.625,2.979,6.625,6.625v0.801
						c0,3.646-2.979,6.625-6.625,6.625h-28.857V296.467z"/>
					<path fill="#FFFFFF" d="M1599.194,294.644v-10.049c0-3.646,2.979-6.625,6.625-6.625h23.032v4.802h-23.032
						c-1.022,0-1.823,0.801-1.823,1.823v10.049c0,1.022,0.801,1.823,1.823,1.823h25.122v-29.08h4.803v33.882h-29.925
						C1602.173,301.269,1599.194,298.289,1599.194,294.644z"/>
					<path fill="#FFFFFF" d="M1641.082,270.277h4.802v4.802h-4.802V270.277z M1641.082,277.97h4.802v23.299h-4.802V277.97z"/>
					<path fill="#FFFFFF" d="M1682.967,284.595c0-1.022-0.8-1.823-1.822-1.823h-25.123v18.497h-4.802V277.97h29.925
						c3.646,0,6.625,2.979,6.625,6.625v16.674h-4.803V284.595z"/>
					<path fill="#FFFFFF" d="M1693.109,294.644v-2.224c0-3.646,2.979-6.625,6.625-6.625h23.032v4.758h-23.032
						c-1.022,0-1.823,0.845-1.823,1.867v2.224c0,1.022,0.801,1.823,1.823,1.823h25.122v-11.872c0-1.022-0.8-1.823-1.822-1.823
						h-28.857v-4.802h28.857c3.646,0,6.625,2.979,6.625,6.625v16.674h-29.925C1696.088,301.269,1693.109,298.289,1693.109,294.644z
						 M1705.159,275.079l6.714-10.094h5.736l-6.715,10.094H1705.159z"/>
					<path fill="#FFFFFF" d="M1781.595,284.595c0-1.022-0.845-1.823-1.868-1.823h-14.806c-1.023,0-1.868,0.801-1.868,1.823v16.674
						h-4.758v-16.674c0-1.022-0.845-1.823-1.867-1.823h-16.63v18.497h-4.802V277.97h21.432c1.067,0,2.09,0.267,3.023,0.756
						c0.444,0.222,0.845,0.488,1.245,0.8c0.355-0.312,0.756-0.578,1.2-0.8c0.935-0.489,1.957-0.756,3.024-0.756h14.806
						c3.646,0,6.626,2.979,6.626,6.625v16.674h-4.758V284.595z"/>
					<path fill="#FFFFFF" d="M1791.693,270.277h4.802v4.802h-4.802V270.277z M1791.693,277.97h4.802v23.299h-4.802V277.97z"/>
					<path fill="#FFFFFF" d="M1801.832,294.644v-10.049c0-3.646,2.979-6.625,6.625-6.625h29.925v4.802h-29.925
						c-1.022,0-1.823,0.801-1.823,1.823v10.049c0,1.022,0.801,1.823,1.823,1.823h29.925v4.802h-29.925
						C1804.811,301.269,1801.832,298.289,1801.832,294.644z"/>
					<path fill="#FFFFFF" d="M1843.72,294.644v-10.049c0-3.646,2.979-6.625,6.625-6.625h23.3c3.646,0,6.625,2.979,6.625,6.625
						v10.049c0,3.646-2.979,6.625-6.625,6.625h-23.3C1846.7,301.269,1843.72,298.289,1843.72,294.644z M1848.522,284.595v10.049
						c0,1.022,0.801,1.823,1.823,1.823h23.3c1.022,0,1.822-0.801,1.822-1.823v-10.049c0-1.022-0.8-1.823-1.822-1.823h-23.3
						C1849.323,282.771,1848.522,283.572,1848.522,284.595z"/>
					<path fill="#FFFFFF" d="M1886.675,296.467h28.857c1.022,0,1.822-0.801,1.822-1.823v-0.801c0-0.978-0.8-1.822-1.822-1.822h-23.3
						c-3.646,0-6.625-2.979-6.625-6.626v-0.8c0-3.646,2.979-6.625,6.625-6.625h28.857v4.802h-28.857
						c-1.022,0-1.823,0.801-1.823,1.823v0.8c0,1.023,0.801,1.823,1.823,1.823h23.3c3.646,0,6.625,2.979,6.625,6.625v0.801
						c0,3.646-2.979,6.625-6.625,6.625h-28.857V296.467z"/>
				</g>
			</g>
		</g>
		<g id="forms">
			<path id="s_3_" display="inline" fill="#FFFFFF" d="M1870.485,25.171c0,0,16.973-0.128,16.973,18.187
				c0,21.503-16.973,20.339-16.973,20.339h-86.802c0,0-14.038-0.006-14.038,24.142c0,12.896,3.229,24.393,14.038,24.393
				c18.37,0,38.862,0,74.566,0c5.381,0,63.137-1.076,63.137,60.265c0,66.005-57.17,65.094-57.17,65.094h-118.634
				c0,0-15.284-1.062-15.284-19.895c0-18.025,14.462-18.646,14.462-18.646h128.252c0,0,13.218-2.34,13.218-24.401
				c0-20.463-14.95-23.796-14.95-23.796l-82.057,0c0,0-54.554-2.032-54.554-63.374c0-63.494,54.142-62.31,54.142-62.31H1870.485z"/>
			<path id="m_8_" display="inline" fill="#FFFFFF" d="M1630.326,25.063H1487.06h-2.016h-2.693h-42.643H1435h-66.723v66.722v0.807
				v38.792h0.003l0.002,86.866c0,10.699,8.673,19.371,19.371,19.371c10.697,0,19.37-8.672,19.37-19.371v-86.866h-0.002v-0.043
				V63.812h27.685c0.09-0.001,0.178-0.007,0.269-0.007h47.082v0.007c0.091-0.001,0.179-0.007,0.27-0.007h2.764
				c15.426,0,27.932,12.561,27.932,28.057v39.523l0.002,86.866c0,10.699,8.674,19.371,19.371,19.371
				c10.698,0,19.371-8.672,19.371-19.371v-86.866v-39.6c0-9.995-2.213-19.469-6.152-27.98h84.759
				c15.426,0,27.932,12.561,27.932,28.057v39.523l0.002,86.866c0,10.699,8.674,19.371,19.371,19.371s19.371-8.672,19.371-19.371
				v-86.866v-39.6C1697.048,54.936,1667.175,25.063,1630.326,25.063z"/>
			<path id="r_10_" display="inline" fill="#FFFFFF" d="M1311.454,25.034h-8.567h-41.07h-42.334
				c-36.85,0-66.723,29.872-66.723,66.722v39.6h0.003l0.002,86.865c0,10.698,8.673,19.371,19.371,19.371
				c10.697,0,19.37-8.673,19.37-19.371v-86.865h-0.002l0.021-39.523c0-15.496,12.506-28.057,27.932-28.057h42.359h41.117h8.521
				c10.699,0,19.371-9.748,19.371-20.447S1322.153,25.034,1311.454,25.034z"/>
			<path id="o_9_" display="inline" fill="#FFFFFF" d="M1009.337,25.063c-58.717,0-106.316,47.6-106.316,106.317
				c0,58.718,47.6,106.317,106.316,106.317c58.719,0,106.317-47.6,106.317-106.317C1115.655,72.663,1068.056,25.063,1009.337,25.063
				z M1009.337,198.955c-37.319,0-67.574-30.254-67.574-67.575c0-37.32,30.255-67.575,67.574-67.575
				c37.321,0,67.576,30.254,67.576,67.575C1076.914,168.701,1046.659,198.955,1009.337,198.955z"/>
			<path id="f_7_" display="inline" fill="#FFFFFF" d="M885.655-32.003h-8.567h-12.015h-63.857
				c-36.849,0-66.722,29.872-66.722,66.722v39.6h0.002l0.002,143.902c0,10.698,8.674,19.371,19.371,19.371
				s19.371-8.673,19.371-19.371v-102.76h72.938c10.698,0,19.371-8.673,19.371-19.371c0-10.698-8.673-19.371-19.371-19.371H773.24
				V34.796c0-15.496,12.525-28.057,27.951-28.057h63.882h12.061h8.521c10.698,0,19.371-8.672,19.371-19.371
				C905.026-23.331,896.353-32.003,885.655-32.003z"/>
		</g>
		<g id="forms_sin_claim_1_">
			<path id="s_4_" display="inline" fill="#FFFFFF" d="M2177.662,40.185c0,0,21.576-0.163,21.576,23.121
				c0,27.336-21.576,25.857-21.576,25.857h-110.351c0,0-17.846-0.008-17.846,30.691c0,16.395,4.103,31.011,17.846,31.011
				c23.354,0,49.405,0,94.796,0c6.84,0,80.265-1.368,80.265,76.614c0,83.909-72.68,82.751-72.68,82.751h-150.817
				c0,0-19.431-1.349-19.431-25.291c0-22.917,18.385-23.705,18.385-23.705h163.045c0,0,16.805-2.974,16.805-31.02
				c0-26.016-19.006-30.252-19.006-30.252l-104.317,0.001c0,0-69.353-2.583-69.353-80.565c0-80.718,68.828-79.213,68.828-79.213
				H2177.662z"/>
			<rect id="Separador_4_" x="1957.873" y="1.488" fill="#8BD1AA" width="46.631" height="497.992"/>
			<path id="m_1_" display="inline" fill="#FFFFFF" d="M1872.352,40.047h-182.134h-2.563h-3.422h-54.212h-5.985h-84.822v84.823
				v1.026v49.316h0.002l0.002,110.432c0,13.602,11.027,24.627,24.627,24.627c13.601,0,24.627-11.025,24.627-24.627V175.212h-0.003
				v-0.056V89.307h35.192c0.117-0.001,0.229-0.008,0.344-0.008h59.853v0.008c0.116-0.001,0.229-0.008,0.345-0.008h3.513
				c19.61,0,35.51,15.969,35.51,35.669v50.244l0.002,110.432c0,13.602,11.026,24.627,24.626,24.627
				c13.601,0,24.627-11.025,24.627-24.627V175.212V124.87c0-12.708-2.814-24.75-7.823-35.571h107.755
				c19.608,0,35.509,15.969,35.509,35.669v50.244l0.002,110.432c0,13.602,11.025,24.627,24.626,24.627
				c13.599,0,24.625-11.025,24.625-24.627V175.212V124.87C1957.173,78.023,1919.197,40.047,1872.352,40.047z"/>
			<rect id="Separador_3_" x="1492.309" y="1.488" fill="#8BD1AA" width="46.631" height="497.992"/>
			<path id="r_1_" display="inline" fill="#FFFFFF" d="M1466.974,40.01h-10.893h-52.211h-53.819
				c-46.846,0-84.822,37.975-84.822,84.822v50.344h0.002l0.003,110.429c0,13.602,11.026,24.626,24.625,24.626
				c13.6,0,24.629-11.024,24.629-24.626V175.176h-0.004l0.026-50.246c0-19.7,15.899-35.668,35.509-35.668h53.852h52.271h10.833
				c13.602,0,24.626-12.393,24.626-25.994C1491.6,49.666,1480.576,40.01,1466.974,40.01z"/>
			<rect id="Separador_2_" x="1219.261" y="1.488" fill="#8BD1AA" width="46.63" height="497.992"/>
			<path id="o_1_" display="inline" fill="#FFFFFF" d="M1082.898,40.047c-74.646,0-135.157,60.513-135.157,135.159
				s60.512,135.158,135.157,135.158c74.647,0,135.16-60.512,135.16-135.158S1157.545,40.047,1082.898,40.047z M1082.898,261.114
				c-47.443,0-85.905-38.461-85.905-85.908c0-47.445,38.462-85.907,85.905-85.907c47.446,0,85.909,38.462,85.909,85.907
				C1168.807,222.653,1130.344,261.114,1082.898,261.114z"/>
			<rect id="Separador_1_" x="900.949" y="1.488" fill="#8BD1AA" width="46.631" height="497.992"/>
			<path id="f_2_" display="inline" fill="#FFFFFF" d="M925.663-32.5h-10.892h-15.273h-81.182
				c-46.845,0-84.822,37.976-84.822,84.823v50.341h0.003l0.002,182.94c0,13.602,11.026,24.626,24.626,24.626
				s24.626-11.024,24.626-24.626V154.969h92.726c13.6,0,24.626-11.026,24.626-24.627c0-13.6-11.026-24.625-24.626-24.625H782.75
				V52.419c0-19.699,15.924-35.668,35.533-35.668h81.214h15.332h10.833c13.6,0,24.625-11.024,24.625-24.625
				C950.288-21.475,939.262-32.5,925.663-32.5z"/>
		</g>
		<g id="G:_copia_6">
			<path display="inline" fill="#FFFFFF" d="M381.697,82.267c1.878-2.18,3.844-4.278,5.901-6.293
				c0.74-0.725,1.492-1.439,2.253-2.142c0.872-0.805,1.757-1.594,2.656-2.368c0.904-0.804,1.82-1.595,2.746-2.375
				c-1.939,1.549-3.82,3.163-5.642,4.843c1.887-1.788,3.827-3.52,5.818-5.194c1.441-1.149,2.914-2.263,4.42-3.339
				c-1.56,1.195-3.093,2.428-4.596,3.69c2.641-2.107,4.843-3.806,6.42-5.001l-1.787,1.282c21.981-16.845,49.476-26.854,79.31-26.854
				c15.12,0,29.637,2.496,43.143,7.225c2.278,0.798,6.267,2.386,11.2,4.782c7.813,3.797,14.902,8.166,20.376,12.922
				c7.678,6.671,13.427,13.715,17.249,21.129c3.821,7.415,5.682,13.99,5.579,19.725c-0.059,3.301-0.765,6.337-2.118,9.109
				c-1.167,2.279-2.777,4.377-4.834,6.292c-4.641,4.324-6.878,3.985-13.258,3.942c-3.518-0.024-6.885-0.872-10.099-2.542
				c-3.215-1.67-4.869-5.977-6.887-8.535c-14.325-18.162-28.988-23.521-36.008-26.875c-7.019-3.354-16.017-5.069-26.994-5.144
				c-11.303-0.078-21.435,1.811-30.393,5.664c-8.959,3.853-16.661,9.481-23.104,16.88c-3.887,4.465-7.247,9.546-10.078,15.243
				c-1.935,3.846-3.626,7.975-5.075,12.388c-3.541,10.784-5.429,22.739-5.664,35.863c-0.508,28.447,5.603,50.38,18.333,65.8
				c12.731,15.418,30.729,23.207,53.997,23.364c11.304,0.08,21.949-1.338,31.934-4.249c9.986-2.91,20.132-7.087,30.438-12.531
				l0.879-39.729l-37.865-0.262c-9.11-0.063-15.972-1.49-20.587-4.282c-4.614-2.792-6.863-7.498-6.745-14.124
				c0.052-2.858,0.641-5.45,1.771-7.776c0.997-1.939,2.378-3.688,4.143-5.249c3.963-3.506,9.294-5.236,15.993-5.191l55.531,0.381
				c6.812,0.048,12.569,0.694,17.271,1.939c4.702,1.246,8.471,3.98,11.305,8.196c2.836,4.217,4.178,10.52,4.028,18.91l-0.831,46.475
				c-0.096,5.335-0.625,9.741-1.591,13.218c-0.193,0.68-0.336,1.133-0.487,1.569c-0.865,2.5-7.159,8.853-12.714,13.533
				c-2.64,2.221-11.077,8.006-12.809,9.225c-21.225,14.94-47.105,23.713-75.035,23.713c-27.15,0-52.361-8.29-73.245-22.478
				c-2.069-1.404-11.598-8.406-14.17-10.593c-2.572-2.185-5.03-4.498-7.375-6.937c-5.534-5.757-9.836-11.915-13.977-18.934
				c-0.278-0.37-0.185-0.315-0.359-0.581c-3.764-6.38-6.953-13.28-9.565-20.701c-5.486-15.588-8.058-32.974-7.714-52.162
				c0.337-18.854,3.446-36.091,9.326-51.71c4.097-10.882,9.453-20.605,16.068-29.168c0.882-1.083,1.781-2.149,2.697-3.202
				c-0.982,1.161-1.94,2.346-2.872,3.553C379.205,85.128,380.436,83.684,381.697,82.267z"/>
			<circle display="inline" fill-rule="evenodd" clip-rule="evenodd" fill="#FFFFFF" cx="658.577" cy="271.73" r="39.807"/>
			
				<circle display="inline" opacity="0.6" fill-rule="evenodd" clip-rule="evenodd" fill="#FFFFFF" cx="658.577" cy="166.218" r="39.807"/>
			
				<circle display="inline" opacity="0.6" fill-rule="evenodd" clip-rule="evenodd" fill="#FFFFFF" cx="658.577" cy="60.707" r="39.807"/>
		</g>
		<g id="Icono_GFORMS_B_x26_N" display="inline">
			<path fill="#FFFFFF" d="M164.098,21.024c-80.209,0-145.232,65.022-145.232,145.232c0,80.209,65.022,145.231,145.232,145.231
				c1.079,0,2.155-0.018,3.229-0.041l-55.807-55.807c-3.333-3.056-5.436-7.432-5.436-12.311v-16.301
				c-0.039,0.001-0.075,0.012-0.115,0.012l-5.861,0.001c-1.224,0.002-2.375-0.477-3.241-1.342c-0.866-0.866-1.343-2.015-1.343-3.239
				l0.001-3.607c0-0.582-0.312-1.238-0.831-1.759c-0.319-0.318-0.702-0.567-1.08-0.699c-0.972-0.338-1.935-0.732-2.858-1.174
				c-0.996-0.473-2.415-0.294-3.101,0.392l-2.535,2.536c-1.787,1.784-4.695,1.784-6.481,0l-4.142-4.145
				c-1.787-1.784-1.787-4.694,0-6.48l2.535-2.535c0.686-0.686,0.864-2.106,0.391-3.1c-0.438-0.923-0.833-1.883-1.172-2.857
				c-0.133-0.385-0.374-0.755-0.699-1.08c-0.519-0.52-1.175-0.829-1.756-0.829l-3.607-0.001c-1.224,0.001-2.375-0.476-3.241-1.342
				c-0.866-0.867-1.342-2.017-1.342-3.241v-5.863c0-2.527,2.057-4.585,4.583-4.585h3.607c0.971,0.002,2.097-0.876,2.457-1.909
				c0.339-0.976,0.734-1.936,1.172-2.856c0.473-0.994,0.294-2.414-0.392-3.101L74.5,171.69c-1.787-1.787-1.786-4.695,0-6.48
				l4.142-4.143c1.787-1.786,4.695-1.787,6.482,0l2.533,2.534c0.687,0.686,2.107,0.864,3.101,0.391
				c0.922-0.438,1.883-0.834,2.854-1.173c1.037-0.359,1.912-1.483,1.912-2.454l-0.001-3.608c0-1.225,0.478-2.376,1.343-3.241
				c0.866-0.865,2.017-1.343,3.241-1.343l5.859,0.002c0.04,0,0.078,0.01,0.117,0.011v-2.796c-0.463,0.282-1.001,0.455-1.583,0.455
				l-2.928,0c-0.816,0-1.583-0.317-2.16-0.896c-0.577-0.577-0.895-1.344-0.895-2.161v-1.804c0-0.057-0.052-0.198-0.19-0.336
				c-0.079-0.079-0.171-0.14-0.252-0.168c-0.514-0.179-1.02-0.386-1.507-0.619c-0.233-0.11-0.583-0.051-0.68,0.045l-1.269,1.269
				c-1.191,1.192-3.13,1.192-4.322,0.001l-2.071-2.071c-1.19-1.191-1.19-3.13,0-4.322l1.269-1.268
				c0.097-0.097,0.156-0.447,0.045-0.682c-0.231-0.486-0.439-0.992-0.618-1.506c-0.03-0.081-0.09-0.173-0.169-0.252
				c-0.138-0.139-0.28-0.189-0.336-0.188l-1.803,0c-0.817,0-1.584-0.318-2.161-0.896c-0.578-0.576-0.896-1.343-0.896-2.16v-2.927
				c0-0.817,0.317-1.584,0.896-2.161c0.576-0.577,1.344-0.896,2.161-0.896l1.803,0.001c0.135,0,0.42-0.202,0.505-0.442
				c0.177-0.513,0.385-1.019,0.617-1.506c0.111-0.234,0.052-0.585-0.045-0.681l-1.269-1.269c-1.191-1.191-1.191-3.129,0-4.321
				l2.071-2.07c1.192-1.192,3.13-1.192,4.322,0l1.269,1.268c0.096,0.096,0.448,0.156,0.681,0.046
				c0.488-0.233,0.994-0.44,1.507-0.619c0.239-0.083,0.442-0.369,0.442-0.504v-1.803c0-1.685,1.371-3.056,3.056-3.057l2.928,0
				c0.568,0,1.109,0.163,1.582,0.452V78.964c0-9.232,7.484-16.715,16.715-16.715h82.486l39.396,39.396v0.024l64.647,64.646
				c0-0.02,0-0.039,0-0.059C309.33,86.047,244.308,21.024,164.098,21.024z"/>
			<path opacity="0.7" fill="#FFFFFF" d="M244.682,101.669L244.682,101.669V243.33c0,9.232-7.484,16.716-16.715,16.716H122.8
				c-4.353,0-8.305-1.678-11.28-4.405l55.807,55.807c78.698-1.717,141.971-66.029,142.003-145.132L244.682,101.669z"/>
			<path fill="#FFFFFF" d="M98.83,126.157c-2.32,2.321-2.32,6.097,0,8.418c1.966,1.965,4.97,2.247,7.255,0.882v-10.184
				C103.799,123.909,100.795,124.191,98.83,126.157z"/>
			<path opacity="0.7" fill="#FFFFFF" d="M101.574,110.888c-1.685,0-3.055,1.372-3.056,3.057v1.803c0,0.136-0.203,0.421-0.442,0.504
				c-0.514,0.179-1.02,0.386-1.507,0.619c-0.232,0.11-0.584,0.05-0.681-0.046l-1.269-1.268c-1.191-1.192-3.13-1.192-4.322,0
				l-2.071,2.07c-1.192,1.192-1.192,3.13,0,4.321l1.269,1.269c0.097,0.096,0.156,0.447,0.045,0.681
				c-0.232,0.487-0.44,0.994-0.617,1.506c-0.084,0.24-0.37,0.442-0.505,0.442l-1.803-0.001c-0.817,0.001-1.585,0.319-2.161,0.896
				c-0.578,0.577-0.896,1.344-0.896,2.161v2.927c0,0.817,0.318,1.584,0.896,2.16c0.577,0.578,1.344,0.896,2.161,0.896l1.803,0
				c0.057,0,0.198,0.05,0.336,0.188c0.079,0.079,0.139,0.171,0.169,0.252c0.178,0.514,0.386,1.021,0.618,1.506
				c0.111,0.235,0.052,0.585-0.045,0.682l-1.269,1.268c-1.19,1.192-1.19,3.131,0,4.322l2.071,2.071
				c1.192,1.191,3.13,1.191,4.322-0.001l1.269-1.269c0.097-0.096,0.447-0.155,0.68-0.045c0.487,0.233,0.994,0.44,1.507,0.619
				c0.081,0.028,0.173,0.089,0.252,0.168c0.139,0.138,0.19,0.28,0.19,0.336v1.804c0,0.817,0.318,1.584,0.895,2.161
				c0.578,0.578,1.344,0.896,2.16,0.896l2.928,0c0.582,0,1.12-0.172,1.583-0.455v-13.934c-2.285,1.364-5.289,1.083-7.255-0.882
				c-2.32-2.322-2.32-6.098,0-8.418c1.966-1.966,4.969-2.248,7.255-0.883V111.34c-0.473-0.289-1.014-0.452-1.582-0.452
				L101.574,110.888z"/>
			<path fill="#FFFFFF" d="M93.541,180.108c-5.237,5.236-5.237,13.759,0,18.996c3.398,3.397,8.175,4.576,12.544,3.565v-26.128
				C101.716,175.531,96.938,176.71,93.541,180.108z"/>
			<path opacity="0.7" fill="#FFFFFF" d="M100.108,152.174c-1.224,0-2.375,0.478-3.241,1.343c-0.866,0.865-1.343,2.016-1.343,3.241
				l0.001,3.608c0,0.971-0.875,2.095-1.912,2.454c-0.971,0.339-1.933,0.734-2.854,1.173c-0.994,0.474-2.415,0.295-3.101-0.391
				l-2.533-2.534c-1.787-1.787-4.695-1.786-6.482,0L74.5,165.21c-1.786,1.785-1.787,4.693,0,6.48l2.534,2.534
				c0.686,0.687,0.865,2.106,0.392,3.101c-0.438,0.921-0.833,1.881-1.172,2.856c-0.359,1.033-1.486,1.911-2.457,1.909H70.19
				c-2.527,0-4.583,2.058-4.583,4.585v5.863c0,1.225,0.476,2.374,1.342,3.241c0.866,0.866,2.018,1.343,3.241,1.342l3.607,0.001
				c0.581,0,1.237,0.31,1.756,0.829c0.325,0.325,0.565,0.695,0.699,1.08c0.339,0.975,0.734,1.935,1.172,2.857
				c0.474,0.993,0.295,2.414-0.391,3.1l-2.535,2.535c-1.787,1.786-1.787,4.696,0,6.48l4.142,4.145c1.787,1.784,4.695,1.784,6.481,0
				l2.535-2.536c0.686-0.686,2.104-0.864,3.101-0.392c0.923,0.441,1.886,0.836,2.858,1.174c0.378,0.132,0.761,0.381,1.08,0.699
				c0.519,0.521,0.831,1.177,0.831,1.759l-0.001,3.607c0,1.225,0.477,2.373,1.343,3.239c0.866,0.865,2.017,1.344,3.241,1.342
				l5.861-0.001c0.04,0,0.076-0.011,0.115-0.012V202.67c-4.369,1.011-9.146-0.168-12.544-3.565c-5.237-5.237-5.237-13.76,0-18.996
				c3.398-3.398,8.175-4.577,12.544-3.566v-24.354c-0.04-0.001-0.077-0.011-0.117-0.011L100.108,152.174z"/>
			<path opacity="0.2" fill="#FFFFFF" d="M244.647,101.645v8.358h-17.632c-7.838,0-14.398-5.403-16.205-12.683
				c-3.385-3.059-5.524-7.469-5.524-12.391V62.249H122.8c-9.231,0-16.715,7.483-16.715,16.715v32.376v13.934v10.184v13.934v2.796
				v24.354v26.128v24.359v16.301c0,4.646,1.92,8.82,4.979,11.849c0.154,0.152,0.296,0.315,0.456,0.462
				c2.975,2.728,6.927,4.405,11.28,4.405h105.167c9.231,0,16.715-7.483,16.715-16.716V101.669v-0.024H244.647z M131.714,168.896
				c0-1.73,1.403-3.135,3.134-3.135h80.442c1.73,0,3.134,1.404,3.134,3.135v19.849c0,1.73-1.403,3.135-3.134,3.135h-80.442
				c-1.731,0-3.134-1.404-3.134-3.135V168.896z M148.221,236.276c-8.655,0-15.671-7.016-15.671-15.67
				c0-8.655,7.016-15.671,15.671-15.671c8.654,0,15.67,7.016,15.67,15.671C163.891,229.261,156.875,236.276,148.221,236.276z
				 M217.738,209.548l-6.521,7.577v14.452c0,1.731-1.403,3.135-3.134,3.135H187.45c-1.731,0-3.134-1.403-3.134-3.135v-20.633
				c0-1.731,1.403-3.134,3.134-3.134h20.633c0.34,0,0.662,0.068,0.969,0.168h0l3.048-3.38c1.172-1.299,3.167-1.427,4.496-0.285
				l0.799,0.688c0.649,0.558,1.049,1.35,1.114,2.202C218.574,208.058,218.295,208.901,217.738,209.548z M218.738,146.956
				c0,1.731-1.403,3.134-3.134,3.134h-80.442c-1.73,0-3.134-1.403-3.134-3.134v-19.849c0-1.731,1.403-3.134,3.134-3.134h80.442
				c1.731,0,3.134,1.403,3.134,3.134V146.956z"/>
			<path opacity="0.1" fill="#FFFFFF" d="M210.81,97.32c1.807,7.28,8.367,12.683,16.205,12.683h17.632v-8.358h-22.646
				C217.691,101.645,213.774,100,210.81,97.32z"/>
			<path opacity="0.5" fill="#FFFFFF" d="M205.286,62.249V84.93c0,4.921,2.14,9.332,5.524,12.391l0,0
				c2.964,2.679,6.881,4.325,11.191,4.325h22.646h0.035L205.286,62.249z"/>
			<path fill="#FFFFFF" d="M199.491,229.225c-0.878,0.047-1.737-0.266-2.378-0.868l-7.404-6.781
				c-0.636-0.572-1.016-1.374-1.06-2.229c-0.043-0.854,0.254-1.691,0.828-2.325l0.707-0.783c1.174-1.299,3.169-1.423,4.496-0.28
				l4.039,3.479l10.333-11.458c-0.307-0.1-0.629-0.168-0.969-0.168H187.45c-1.731,0-3.134,1.402-3.134,3.134v20.633
				c0,1.731,1.403,3.135,3.134,3.135h20.633c1.731,0,3.134-1.403,3.134-3.135v-14.452l-9.453,10.984
				C201.19,228.776,200.37,229.179,199.491,229.225z"/>
			<path opacity="0.6" fill="#FFFFFF" d="M216.596,204.313c-1.328-1.142-3.323-1.014-4.496,0.285l-3.048,3.38h0l-10.333,11.458
				l-4.039-3.479c-1.326-1.143-3.322-1.019-4.496,0.28l-0.707,0.783c-0.574,0.634-0.872,1.471-0.828,2.325
				c0.044,0.854,0.424,1.656,1.06,2.229l7.404,6.781c0.641,0.603,1.5,0.915,2.378,0.868c0.878-0.046,1.699-0.448,2.273-1.115
				l9.453-10.984l6.521-7.577c0.558-0.646,0.836-1.49,0.771-2.345c-0.065-0.853-0.465-1.645-1.114-2.202L216.596,204.313z"/>
			<path fill="#FFFFFF" d="M148.221,204.936c-8.655,0-15.671,7.016-15.671,15.671c0,8.654,7.016,15.67,15.671,15.67
				c8.654,0,15.67-7.016,15.67-15.67C163.891,211.951,156.875,204.936,148.221,204.936z M148.221,227.919
				c-4.039,0-7.313-3.273-7.313-7.313s3.274-7.313,7.313-7.313s7.313,3.274,7.313,7.313S152.259,227.919,148.221,227.919z"/>
			<circle opacity="0.6" fill="#FFFFFF" cx="148.221" cy="220.606" r="7.313"/>
			<path fill="#FFFFFF" d="M134.848,165.761c-1.731,0-3.134,1.404-3.134,3.135v19.849c0,1.73,1.403,3.135,3.134,3.135h55.422
				v-26.118H134.848z"/>
			<path opacity="0.6" fill="#FFFFFF" d="M215.291,165.761H190.27v26.118h25.021c1.73,0,3.134-1.404,3.134-3.135v-19.849
				C218.424,167.165,217.021,165.761,215.291,165.761z M204.583,186.22l-8.199-12.047h16.399L204.583,186.22z"/>
			<polygon opacity="0.25" fill="#FFFFFF" points="204.583,186.22 212.784,174.173 196.384,174.173 			"/>
			<path fill="#FFFFFF" d="M215.604,123.973h-80.442c-1.73,0-3.134,1.403-3.134,3.134v19.849c0,1.731,1.403,3.134,3.134,3.134
				h80.442c1.731,0,3.134-1.403,3.134-3.134v-19.849C218.738,125.376,217.335,123.973,215.604,123.973z"/>
		</g>
	</g>
</g>
<g id="Guías" display="none">
</g>
<g id="Marco_1" display="none">
</g>
<g id="Marco_2" display="none">
</g>
<g id="Marco_3" display="none">
</g>
<g id="Marco_4" display="none">
</g>
<g id="Marco_5">
</g>
</svg>
