<?xml version="1.0" encoding="utf-8"?>
<!-- Generator: Adobe Illustrator 13.0.0, SVG Export Plug-In . SVG Version: 6.00 Build 14948)  -->
<!DOCTYPE svg PUBLIC "-//W3C//DTD SVG 1.1//EN" "http://www.w3.org/Graphics/SVG/1.1/DTD/svg11.dtd">
<svg version="1.1" id="Capa_1" xmlns="http://www.w3.org/2000/svg" xmlns:xlink="http://www.w3.org/1999/xlink" x="0px" y="0px"
	 width="283.465px" height="283.465px" viewBox="0 0 283.465 283.465" enable-background="new 0 0 283.465 283.465"
	 xml:space="preserve">
<g>
	<g>
		<path fill="#565656" d="M283.396,149.605l-38.942-91.033c0.771-2.062,1.214-4.283,1.214-6.606
			c0-10.441-8.468-18.899-18.904-18.899c-6.318,0-11.893,3.108-15.322,7.874h-43.585c-4.302-10.173-14.387-17.315-26.129-17.315
			c-11.746,0-21.821,7.143-26.119,17.324H72.023c-3.435-4.765-9.014-7.873-15.332-7.873c-10.437,0-18.894,8.458-18.894,18.898
			c0,2.324,0.443,4.541,1.213,6.607L0.068,149.605H0c0,29.563,25.389,53.544,56.696,53.544c31.317,0,56.69-23.98,56.69-53.544
			h-0.068L76.271,62.996h39.337c2.168,5.125,5.803,9.48,10.373,12.54v140.212H69.29v12.6c0,17.325,14.173,31.497,31.498,31.497
			h81.889c17.325,0,31.498-14.172,31.498-31.497v-12.6h-56.696V75.531c4.57-3.064,8.205-7.415,10.373-12.535h39.332l-37.101,86.609
			h-0.005v0.005l-0.02,0.044l0.024,0.01c0.034,29.539,25.402,53.485,56.69,53.485c31.317,0,56.691-23.98,56.691-53.544
			C283.465,149.61,283.396,149.61,283.396,149.605z M96.188,149.605h-78.99l34.026-79.55c1.729,0.521,3.562,0.809,5.462,0.809
			s3.741-0.288,5.476-0.813L96.188,149.605z M187.208,149.605l34.08-79.55c1.734,0.525,3.571,0.813,5.476,0.813
			c1.905,0,3.742-0.288,5.477-0.813l34.031,79.55H187.208z"/>
	</g>
</g>
</svg>
