<?xml version="1.0" encoding="utf-8"?>
<!-- Generator: Adobe Illustrator 13.0.0, SVG Export Plug-In . SVG Version: 6.00 Build 14948)  -->
<!DOCTYPE svg PUBLIC "-//W3C//DTD SVG 1.1//EN" "http://www.w3.org/Graphics/SVG/1.1/DTD/svg11.dtd">
<svg version="1.1" id="Capa_1" xmlns="http://www.w3.org/2000/svg" xmlns:xlink="http://www.w3.org/1999/xlink" x="0px" y="0px"
	 width="475.451px" height="475.451px" viewBox="0 0 475.451 475.451" enable-background="new 0 0 475.451 475.451"
	 xml:space="preserve">
<g>
	<path fill="#565656" d="M468.083,118.385c-3.99-5.33-9.61-9.42-16.854-12.275c0.387,6.665-0.086,12.09-1.42,16.281l-85.65,281.789
		c-1.525,4.947-4.858,8.896-9.991,11.848c-5.142,2.953-10.47,4.428-15.989,4.428H74.66c-22.841,0-36.542-6.651-41.112-19.984
		c-1.903-5.141-1.807-9.229,0.288-12.275c2.092-2.857,5.708-4.288,10.85-4.288h248.103c17.701,0,29.93-3.285,36.688-9.852
		c6.763-6.567,13.564-21.178,20.413-43.824l78.228-258.669c4.187-14.084,2.475-26.457-5.141-37.113s-18.462-15.987-32.548-15.987
		H173.163c-2.475,0-7.329,0.854-14.563,2.568l0.284-0.859c-5.33-1.14-9.851-1.661-13.563-1.57c-3.71,0.099-7.137,1.191-10.276,3.289
		c-3.141,2.094-5.664,4.328-7.566,6.706c-1.902,2.38-3.761,5.426-5.567,9.136c-1.806,3.715-3.33,7.142-4.567,10.282
		c-1.237,3.14-2.666,6.473-4.281,9.998c-1.62,3.521-3.186,6.423-4.71,8.706c-1.143,1.522-2.758,3.521-4.854,5.995
		c-2.091,2.475-3.806,4.664-5.138,6.567c-1.331,1.903-2.189,3.616-2.567,5.14c-0.378,1.711-0.19,4.233,0.571,7.566
		c0.76,3.328,1.047,5.753,0.854,7.277c-0.76,7.231-3.378,16.414-7.849,27.552c-4.472,11.136-8.521,19.18-12.136,24.126
		c-0.761,0.95-2.853,3.092-6.279,6.424c-3.428,3.33-5.521,6.23-6.279,8.704c-0.762,0.951-0.81,3.617-0.144,7.994
		c0.666,4.38,0.906,7.423,0.715,9.136c-0.766,6.473-3.141,15.037-7.14,25.697c-3.999,10.657-7.994,19.414-11.992,26.265
		c-0.569,1.142-2.186,3.328-4.854,6.567c-2.662,3.236-4.283,5.901-4.853,7.99c-0.381,1.522-0.33,4.188,0.144,7.993
		c0.473,3.807,0.426,6.66-0.144,8.563c-1.521,7.228-4.377,15.939-8.565,26.125c-4.187,10.178-8.47,18.896-12.851,26.121
		c-1.139,1.906-2.713,4.145-4.708,6.711c-1.999,2.565-3.568,4.805-4.711,6.707c-1.142,1.903-1.903,3.9-2.284,5.996
		c-0.19,1.143,0.098,2.998,0.858,5.57c0.761,2.566,1.047,4.612,0.854,6.141c-0.192,2.662-0.57,6.187-1.142,10.566
		c-0.571,4.373-0.858,6.939-0.858,7.699c-4.188,11.424-3.999,23.511,0.572,36.27c5.329,14.838,14.797,27.36,28.405,37.541
		c13.61,10.185,27.74,15.27,42.398,15.27h263.521c12.367,0,24.026-4.141,34.971-12.416c10.944-8.28,18.228-18.507,21.837-30.695
		l78.512-258.662C477.411,141.51,475.7,129.234,468.083,118.385z M164.31,118.956l5.997-18.273c0.76-2.475,2.329-4.615,4.709-6.424
		c2.38-1.805,4.809-2.712,7.282-2.712h173.589c2.663,0,4.564,0.903,5.708,2.712c1.14,1.81,1.335,3.949,0.575,6.424l-6.002,18.273
		c-0.765,2.476-2.327,4.611-4.714,6.424c-2.382,1.806-4.805,2.708-7.277,2.708H170.593c-2.666,0-4.568-0.899-5.711-2.708
		C163.74,123.567,163.55,121.431,164.31,118.956z M140.615,192.045l5.995-18.271c0.761-2.475,2.331-4.615,4.709-6.423
		c2.381-1.81,4.806-2.712,7.282-2.712h173.583c2.666,0,4.572,0.899,5.712,2.712c1.14,1.809,1.331,3.948,0.568,6.423l-5.996,18.271
		c-0.759,2.475-2.33,4.617-4.708,6.424c-2.383,1.809-4.806,2.712-7.283,2.712H146.895c-2.664,0-4.566-0.9-5.708-2.712
		C140.043,196.662,139.854,194.519,140.615,192.045z"/>
</g>
</svg>
