<?xml version="1.0" encoding="utf-8"?>
<!-- Generator: Adobe Illustrator 13.0.0, SVG Export Plug-In . SVG Version: 6.00 Build 14948)  -->
<!DOCTYPE svg PUBLIC "-//W3C//DTD SVG 1.1//EN" "http://www.w3.org/Graphics/SVG/1.1/DTD/svg11.dtd">
<svg version="1.1" id="Capa_1" xmlns="http://www.w3.org/2000/svg" xmlns:xlink="http://www.w3.org/1999/xlink" x="0px" y="0px"
	 width="124.813px" height="124.813px" viewBox="0 0 124.813 124.813" enable-background="new 0 0 124.813 124.813"
	 xml:space="preserve">
<g>
	<g>
		<path fill="#565656" d="M48.083,80.355l-1.915,11.374c-0.261,1.556,0.377,3.122,1.649,4.05c1.275,0.927,2.969,1.051,4.361,0.32
			l10.226-5.338L72.631,96.1c0.604,0.314,1.268,0.472,1.924,0.472c0.859,0,1.716-0.269,2.439-0.792
			c1.273-0.928,1.914-2.494,1.65-4.05l-1.913-11.374l8.234-8.077c1.126-1.103,1.527-2.749,1.044-4.247
			c-0.485-1.496-1.783-2.593-3.341-2.822l-11.41-1.692L66.12,53.188c-0.697-1.41-2.142-2.303-3.717-2.303
			c-1.571,0-3.015,0.893-3.718,2.303l-5.134,10.329l-11.41,1.691c-1.561,0.229-2.853,1.326-3.339,2.822
			c-0.486,1.498-0.086,3.146,1.042,4.247L48.083,80.355z"/>
		<path fill="#565656" d="M111.443,13.269H98.378V6.022C98.378,2.696,95.682,0,92.355,0H91.4c-3.325,0-6.021,2.695-6.021,6.021
			v7.247H39.282V6.022C39.282,2.696,36.586,0,33.261,0h-0.956c-3.326,0-6.021,2.695-6.021,6.021v7.247H13.371
			c-6.833,0-12.395,5.56-12.395,12.395v86.757c0,6.831,5.562,12.394,12.395,12.394h98.072c6.832,0,12.395-5.562,12.395-12.394
			V25.663C123.837,18.828,118.275,13.269,111.443,13.269z M109.826,110.803H14.988V43.268h94.839V110.803z"/>
	</g>
</g>
</svg>
