<?xml version="1.0" standalone="no"?>
<!DOCTYPE svg PUBLIC "-//W3C//DTD SVG 1.1//EN" "http://www.w3.org/Graphics/SVG/1.1/DTD/svg11.dtd" >
<svg xmlns="http://www.w3.org/2000/svg">
<metadata>Generated by IcoMoon</metadata>
<defs>
<font id="guadaltel" horiz-adv-x="1024">
<font-face units-per-em="1024" ascent="960" descent="-64" />
<missing-glyph horiz-adv-x="1024" />
<glyph unicode="&#x20;" horiz-adv-x="512" d="" />
<glyph unicode="&#xe800;" glyph-name="archivo-audio" d="M912 742.857q16-16 27.429-43.429t11.429-50.286v-658.286q0-22.857-16-38.857t-38.857-16h-768q-22.857 0-38.857 16t-16 38.857v914.286q0 22.857 16 38.857t38.857 16h512q22.857 0 50.286-11.429t43.429-27.429zM658.286 882.286v-214.857h214.857q-5.714 16.571-12.571 23.429l-178.857 178.857q-6.857 6.857-23.429 12.571zM877.714 9.143v585.143h-237.714q-22.857 0-38.857 16t-16 38.857v237.714h-438.857v-877.714h731.429zM427.429 474.286q11.429-4.571 11.429-17.143v-310.857q0-12.571-11.429-17.143-4.571-1.143-6.857-1.143-6.857 0-13.143 5.143l-94.857 95.429h-74.857q-8 0-13.143 5.143t-5.143 13.143v109.714q0 8 5.143 13.143t13.143 5.143h74.857l94.857 95.429q9.143 8.571 20 4zM665.714 80.571q17.714 0 28.571 13.714 73.714 90.857 73.714 207.429t-73.714 207.429q-9.143 12-24.571 13.714t-26.857-8q-12-9.714-13.429-24.857t8.286-27.143q57.143-70.286 57.143-161.143t-57.143-161.143q-9.714-12-8.286-27.143t13.429-24.286q10.286-8.571 22.857-8.571zM545.143 165.143q15.429 0 26.857 11.429 49.714 53.143 49.714 125.143t-49.714 125.143q-10.286 10.857-25.714 11.429t-26.286-9.714-11.429-25.429 10.286-26.571q29.714-32.571 29.714-74.857t-29.714-74.857q-10.857-11.429-10.286-26.571t11.429-25.429q11.429-9.714 25.143-9.714z" />
<glyph unicode="&#xe801;" glyph-name="archivo-calculo" d="M912 742.857c10.667-10.666 19.81-25.143 27.429-43.429s11.429-35.047 11.429-50.286v-658.286c0-15.238-5.333-28.19-16-38.857s-23.619-16-38.857-16h-768c-15.238 0-28.19 5.334-38.857 16s-16 23.619-16 38.857v914.286c0 15.238 5.334 28.191 16 38.857s23.619 16 38.857 16h512c15.238 0 32-3.809 50.286-11.429s32.762-16.762 43.429-27.429l178.286-178.286zM658.286 882.286v-214.857h214.857c-3.809 11.048-8 18.857-12.571 23.429l-178.857 178.857c-4.571 4.571-12.381 8.762-23.429 12.571zM877.714 9.143v585.143h-237.714c-15.238 0-28.19 5.334-38.857 16s-16 23.619-16 38.857v237.714h-438.857v-877.714h731.429zM729.269 527.18h-433.43c-13.563 0-24.595-11.032-24.595-24.593v-385.746c0-13.561 11.033-24.593 24.595-24.593h216.537c0.061 0 0.117 0.009 0.179 0.009 0.059 0 0.118-0.009 0.178-0.009h216.539c13.561 0 24.591 11.033 24.591 24.593v385.747c-0.001 13.561-11.032 24.592-24.594 24.592zM487.787 141.433h-167.357v79.193h167.357v-79.193zM487.787 269.81h-167.357v79.197h167.357v-79.197zM704.676 141.433h-167.355v79.193h167.355v-79.193zM704.676 269.81h-167.355v79.197h167.355v-79.197z" />
<glyph unicode="&#xe802;" glyph-name="archivo-codigo" d="M912 742.857q16-16 27.429-43.429t11.429-50.286v-658.286q0-22.857-16-38.857t-38.857-16h-768q-22.857 0-38.857 16t-16 38.857v914.286q0 22.857 16 38.857t38.857 16h512q22.857 0 50.286-11.429t43.429-27.429zM658.286 882.286v-214.857h214.857q-5.714 16.571-12.571 23.429l-178.857 178.857q-6.857 6.857-23.429 12.571zM877.714 9.143v585.143h-237.714q-22.857 0-38.857 16t-16 38.857v237.714h-438.857v-877.714h731.429zM347.429 521.143q4.571 6.286 12 7.143t13.714-3.714l29.143-21.714q6.286-4.571 7.143-12t-3.714-13.714l-104-138.857 104-138.857q4.571-6.286 3.714-13.714t-7.143-12l-29.143-21.714q-6.286-4.571-13.714-3.714t-12 7.143l-129.143 172q-8 10.857 0 21.714zM805.714 349.143q8-10.857 0-21.714l-129.143-172q-4.571-6.286-12-7.143t-13.714 3.714l-29.143 21.714q-6.286 4.571-7.143 12t3.714 13.714l104 138.857-104 138.857q-4.571 6.286-3.714 13.714t7.143 12l29.143 21.714q6.286 4.571 13.714 3.714t12-7.143zM451.429 85.714q-7.429 1.143-11.714 7.429t-3.143 13.714l78.857 474.857q1.143 7.429 7.429 11.714t13.714 3.143l36-5.714q7.429-1.143 11.714-7.429t3.143-13.714l-78.857-474.857q-1.143-7.429-7.429-11.714t-13.714-3.143z" />
<glyph unicode="&#xe803;" glyph-name="archivo-copia" d="M969.143 740.571q22.857 0 38.857-16t16-38.857v-694.857q0-22.857-16-38.857t-38.857-16h-548.571q-22.857 0-38.857 16t-16 38.857v164.571h-310.857q-22.857 0-38.857 16t-16 38.857v384q0 22.857 11.429 50.286t27.429 43.429l233.143 233.143q16 16 43.429 27.429t50.286 11.429h237.714q22.857 0 38.857-16t16-38.857v-187.429q38.857 22.857 73.143 22.857h237.714zM658.286 618.857l-170.857-170.857h170.857v170.857zM292.571 838.286l-170.857-170.857h170.857v170.857zM404.571 468.571l180.571 180.571v237.714h-219.429v-237.714q0-22.857-16-38.857t-38.857-16h-237.714v-365.714h292.571v146.286q0 22.857 11.429 50.286t27.429 43.429zM950.857 9.143v658.286h-219.429v-237.714q0-22.857-16-38.857t-38.857-16h-237.714v-365.714h512z" />
<glyph unicode="&#xe804;" glyph-name="archivo-excel" d="M912 742.857q16-16 27.429-43.429t11.429-50.286v-658.286q0-22.857-16-38.857t-38.857-16h-768q-22.857 0-38.857 16t-16 38.857v914.286q0 22.857 16 38.857t38.857 16h512q22.857 0 50.286-11.429t43.429-27.429zM658.286 882.286v-214.857h214.857q-5.714 16.571-12.571 23.429l-178.857 178.857q-6.857 6.857-23.429 12.571zM877.714 9.143v585.143h-237.714q-22.857 0-38.857 16t-16 38.857v237.714h-438.857v-877.714h731.429zM318.286 142.857v-60.571h160.571v60.571h-42.857l58.857 92q2.857 4 5.714 9.429t4.286 7.714 2 2.286h1.143q0.571-2.286 2.857-5.714 1.143-2.286 2.571-4.286t3.429-4.571 3.714-4.857l61.143-92h-43.429v-60.571h166.286v60.571h-38.857l-109.714 156 111.429 161.143h38.286v61.143h-159.429v-61.143h42.286l-58.857-90.857q-2.286-4-5.714-9.429t-5.143-7.714l-1.143-1.714h-1.143q-0.571 2.286-2.857 5.714-3.429 6.286-9.714 13.143l-60.571 90.857h43.429v61.143h-165.714v-61.143h38.857l108-155.429-110.857-161.714h-38.857z" />
<glyph unicode="&#xe805;" glyph-name="archivo-imagen" d="M912 742.857q16-16 27.429-43.429t11.429-50.286v-658.286q0-22.857-16-38.857t-38.857-16h-768q-22.857 0-38.857 16t-16 38.857v914.286q0 22.857 16 38.857t38.857 16h512q22.857 0 50.286-11.429t43.429-27.429zM658.286 882.286v-214.857h214.857q-5.714 16.571-12.571 23.429l-178.857 178.857q-6.857 6.857-23.429 12.571zM877.714 9.143v585.143h-237.714q-22.857 0-38.857 16t-16 38.857v237.714h-438.857v-877.714h731.429zM804.571 265.143v-182.857h-585.143v109.714l109.714 109.714 73.143-73.143 219.429 219.429zM329.143 374.857q-45.714 0-77.714 32t-32 77.714 32 77.714 77.714 32 77.714-32 32-77.714-32-77.714-77.714-32z" />
<glyph unicode="&#xe806;" glyph-name="archivo-pdf" d="M912 742.857q16-16 27.429-43.429t11.429-50.286v-658.286q0-22.857-16-38.857t-38.857-16h-768q-22.857 0-38.857 16t-16 38.857v914.286q0 22.857 16 38.857t38.857 16h512q22.857 0 50.286-11.429t43.429-27.429zM658.286 882.286v-214.857h214.857q-5.714 16.571-12.571 23.429l-178.857 178.857q-6.857 6.857-23.429 12.571zM877.714 9.143v585.143h-237.714q-22.857 0-38.857 16t-16 38.857v237.714h-438.857v-877.714h731.429zM584 348q18.857-14.857 48-32 33.714 4 66.857 4 84 0 101.143-28 9.143-12.571 1.143-29.714 0-0.571-0.571-1.143l-1.143-1.143v-0.571q-3.429-21.714-40.571-21.714-27.429 0-65.714 11.429t-74.286 30.286q-126.286-13.714-224-47.429-87.429-149.714-138.286-149.714-8.571 0-16 4l-13.714 6.857q-0.571 0.571-3.429 2.857-5.714 5.714-3.429 20.571 5.143 22.857 32 52.286t75.429 55.143q8 5.143 13.143-3.429 1.143-1.143 1.143-2.286 29.714 48.571 61.143 112.571 38.857 77.714 59.429 149.714-13.714 46.857-17.429 91.143t3.714 72.857q6.286 22.857 24 22.857h12.571q13.143 0 20-8.571 10.286-12 5.143-38.857-1.143-3.429-2.286-4.571 0.571-1.714 0.571-4.571v-17.143q-1.143-70.286-8-109.714 31.429-93.714 83.429-136zM254.857 113.143q29.714 13.714 78.286 90.286-29.143-22.857-50-48t-28.286-42.286zM482.286 638.857q-8.571-24-1.143-75.429 0.571 4 4 25.143 0 1.714 4 24.571 0.571 2.286 2.286 4.571-0.571 0.571-0.571 1.143t-0.286 0.857-0.286 0.857q-0.571 12.571-7.429 20.571 0-0.571-0.571-1.143v-1.143zM411.429 261.143q77.143 30.857 162.286 46.286-1.143 0.571-7.429 5.429t-9.143 7.714q-43.429 38.286-72.571 100.571-15.429-49.143-47.429-112.571-17.143-32-25.714-47.429zM780.571 270.286q-13.714 13.714-80 13.714 43.429-16 70.857-16 8 0 10.286 0.571 0 0.571-1.143 1.714z" />
<glyph unicode="&#xe807;" glyph-name="archivo-ppt" d="M912 742.857q16-16 27.429-43.429t11.429-50.286v-658.286q0-22.857-16-38.857t-38.857-16h-768q-22.857 0-38.857 16t-16 38.857v914.286q0 22.857 16 38.857t38.857 16h512q22.857 0 50.286-11.429t43.429-27.429zM658.286 882.286v-214.857h214.857q-5.714 16.571-12.571 23.429l-178.857 178.857q-6.857 6.857-23.429 12.571zM877.714 9.143v585.143h-237.714q-22.857 0-38.857 16t-16 38.857v237.714h-438.857v-877.714h731.429zM310.857 142.857v-60.571h186.857v60.571h-53.143v95.429h78.286q43.429 0 67.429 8.571 38.286 13.143 60.857 49.714t22.571 83.429q0 46.286-21.143 80.571t-57.143 49.714q-27.429 10.857-74.286 10.857h-210.286v-61.143h52.571v-317.143h-52.571zM512.571 302.857h-68v153.143h68.571q29.714 0 47.429-10.286 32-18.857 32-65.714 0-50.857-35.429-68.571-17.714-8.571-44.571-8.571z" />
<glyph unicode="&#xe808;" glyph-name="archivo-tabla" d="M912 742.857c10.667-10.666 19.81-25.143 27.429-43.429s11.429-35.047 11.429-50.286v-658.286c0-15.238-5.333-28.19-16-38.857s-23.619-16-38.857-16h-768c-15.238 0-28.19 5.334-38.857 16s-16 23.619-16 38.857v914.286c0 15.238 5.334 28.191 16 38.857s23.619 16 38.857 16h512c15.238 0 32-3.809 50.286-11.429s32.762-16.762 43.429-27.429l178.286-178.286zM658.286 882.286v-214.857h214.857c-3.809 11.048-8 18.857-12.571 23.429l-178.857 178.857c-4.571 4.571-12.381 8.762-23.429 12.571zM877.714 9.143v585.143h-237.714c-15.238 0-28.19 5.334-38.857 16s-16 23.619-16 38.857v237.714h-438.857v-877.714h731.429zM714.055 506.589h-400.973c-12.547 0-22.754-10.206-22.754-22.751v-356.855c0-12.546 10.207-22.751 22.754-22.751h200.321c0.057 0 0.109 0.008 0.166 0.008 0.055 0 0.11-0.008 0.165-0.008h200.323c12.546 0 22.75 10.206 22.75 22.751v356.856c-0.001 12.545-10.205 22.75-22.751 22.75zM490.655 149.733h-154.823v73.263h154.823v-73.263zM490.655 268.496h-154.823v73.266h154.823v-73.266zM691.303 149.733h-154.821v73.263h154.822v-73.263h-0.001zM691.303 268.496h-154.821v73.266h154.822v-73.266h-0.001zM490.655 387.906h-154.823v73.263h154.823v-73.263zM691.303 387.906h-154.821v73.263h154.822v-73.263h-0.001z" />
<glyph unicode="&#xe809;" glyph-name="archivo-texto" d="M912 742.857q16-16 27.429-43.429t11.429-50.286v-658.286q0-22.857-16-38.857t-38.857-16h-768q-22.857 0-38.857 16t-16 38.857v914.286q0 22.857 16 38.857t38.857 16h512q22.857 0 50.286-11.429t43.429-27.429zM658.286 882.286v-214.857h214.857q-5.714 16.571-12.571 23.429l-178.857 178.857q-6.857 6.857-23.429 12.571zM877.714 9.143v585.143h-237.714q-22.857 0-38.857 16t-16 38.857v237.714h-438.857v-877.714h731.429zM292.571 502.857q0 8 5.143 13.143t13.143 5.143h402.286q8 0 13.143-5.143t5.143-13.143v-36.571q0-8-5.143-13.143t-13.143-5.143h-402.286q-8 0-13.143 5.143t-5.143 13.143v36.571zM713.143 374.857q8 0 13.143-5.143t5.143-13.143v-36.571q0-8-5.143-13.143t-13.143-5.143h-402.286q-8 0-13.143 5.143t-5.143 13.143v36.571q0 8 5.143 13.143t13.143 5.143h402.286zM713.143 228.571q8 0 13.143-5.143t5.143-13.143v-36.571q0-8-5.143-13.143t-13.143-5.143h-402.286q-8 0-13.143 5.143t-5.143 13.143v36.571q0 8 5.143 13.143t13.143 5.143h402.286z" />
<glyph unicode="&#xe80a;" glyph-name="archivo-texto2" d="M912 688q8-8 16-20.571h-269.714v269.714q12.571-8 20.571-16zM640 594.286h310.857v-603.429q0-22.857-16-38.857t-38.857-16h-768q-22.857 0-38.857 16t-16 38.857v914.286q0 22.857 16 38.857t38.857 16h457.143v-310.857q0-22.857 16-38.857t38.857-16zM731.429 173.714v36.571q0 8-5.143 13.143t-13.143 5.143h-402.286q-8 0-13.143-5.143t-5.143-13.143v-36.571q0-8 5.143-13.143t13.143-5.143h402.286q8 0 13.143 5.143t5.143 13.143zM731.429 320v36.571q0 8-5.143 13.143t-13.143 5.143h-402.286q-8 0-13.143-5.143t-5.143-13.143v-36.571q0-8 5.143-13.143t13.143-5.143h402.286q8 0 13.143 5.143t5.143 13.143zM731.429 466.286v36.571q0 8-5.143 13.143t-13.143 5.143h-402.286q-8 0-13.143-5.143t-5.143-13.143v-36.571q0-8 5.143-13.143t13.143-5.143h402.286q8 0 13.143 5.143t5.143 13.143z" />
<glyph unicode="&#xe80b;" glyph-name="archivo-vacio" d="M912 742.857q16-16 27.429-43.429t11.429-50.286v-658.286q0-22.857-16-38.857t-38.857-16h-768q-22.857 0-38.857 16t-16 38.857v914.286q0 22.857 16 38.857t38.857 16h512q22.857 0 50.286-11.429t43.429-27.429zM658.286 882.286v-214.857h214.857q-5.714 16.571-12.571 23.429l-178.857 178.857q-6.857 6.857-23.429 12.571zM877.714 9.143v585.143h-237.714q-22.857 0-38.857 16t-16 38.857v237.714h-438.857v-877.714h731.429z" />
<glyph unicode="&#xe80c;" glyph-name="archivo-vacio2" d="M658.286 667.429v269.714q12.571-8 20.571-16l233.143-233.143q8-8 16-20.571h-269.714zM585.143 649.143q0-22.857 16-38.857t38.857-16h310.857v-603.429q0-22.857-16-38.857t-38.857-16h-768q-22.857 0-38.857 16t-16 38.857v914.286q0 22.857 16 38.857t38.857 16h457.143v-310.857z" />
<glyph unicode="&#xe80d;" glyph-name="archivo-video" d="M912 742.857q16-16 27.429-43.429t11.429-50.286v-658.286q0-22.857-16-38.857t-38.857-16h-768q-22.857 0-38.857 16t-16 38.857v914.286q0 22.857 16 38.857t38.857 16h512q22.857 0 50.286-11.429t43.429-27.429zM658.286 882.286v-214.857h214.857q-5.714 16.571-12.571 23.429l-178.857 178.857q-6.857 6.857-23.429 12.571zM877.714 9.143v585.143h-237.714q-22.857 0-38.857 16t-16 38.857v237.714h-438.857v-877.714h731.429zM512 521.143q29.714 0 51.429-21.714t21.714-51.429v-219.429q0-29.714-21.714-51.429t-51.429-21.714h-219.429q-29.714 0-51.429 21.714t-21.714 51.429v219.429q0 29.714 21.714 51.429t51.429 21.714h219.429zM793.143 520q11.429-4.571 11.429-17.143v-329.143q0-12.571-11.429-17.143-4.571-1.143-6.857-1.143-8 0-13.143 5.143l-151.429 152v51.429l151.429 152q5.143 5.143 13.143 5.143 2.286 0 6.857-1.143z" />
<glyph unicode="&#xe80e;" glyph-name="archivo-word" d="M912 742.857q16-16 27.429-43.429t11.429-50.286v-658.286q0-22.857-16-38.857t-38.857-16h-768q-22.857 0-38.857 16t-16 38.857v914.286q0 22.857 16 38.857t38.857 16h512q22.857 0 50.286-11.429t43.429-27.429zM658.286 882.286v-214.857h214.857q-5.714 16.571-12.571 23.429l-178.857 178.857q-6.857 6.857-23.429 12.571zM877.714 9.143v585.143h-237.714q-22.857 0-38.857 16t-16 38.857v237.714h-438.857v-877.714h731.429zM206.286 521.143v-61.143h40l93.714-377.714h90.857l73.143 277.143q4 11.429 5.714 26.286 1.143 9.143 1.143 13.714h2.286l1.714-13.714q0.571-1.714 2-11.429t3.143-14.857l73.143-277.143h90.857l93.714 377.714h40v61.143h-171.429v-61.143h51.429l-56.571-250.286q-2.857-11.429-4-26.286l-1.143-12h-2.286l-1.714 12q-0.571 2.857-2.286 12t-2.857 14.286l-82.286 311.429h-65.143l-82.286-311.429q-1.143-5.143-2.571-14t-2-12.286l-2.286-12h-2.286l-1.143 12q-1.143 14.857-4 26.286l-56.571 250.286h51.429v61.143h-171.429z" />
<glyph unicode="&#xe80f;" glyph-name="archivo-zip" d="M438.857 740.571v73.143h-73.143v-73.143h73.143zM512 667.429v73.143h-73.143v-73.143h73.143zM438.857 594.286v73.143h-73.143v-73.143h73.143zM512 521.143v73.143h-73.143v-73.143h73.143zM912 742.857q16-16 27.429-43.429t11.429-50.286v-658.286q0-22.857-16-38.857t-38.857-16h-768q-22.857 0-38.857 16t-16 38.857v914.286q0 22.857 16 38.857t38.857 16h512q22.857 0 50.286-11.429t43.429-27.429zM658.286 882.286v-214.857h214.857q-5.714 16.571-12.571 23.429l-178.857 178.857q-6.857 6.857-23.429 12.571zM877.714 9.143v585.143h-237.714q-22.857 0-38.857 16t-16 38.857v237.714h-73.143v-73.143h-73.143v73.143h-292.571v-877.714h731.429zM519.429 421.143l61.143-199.429q4.571-15.429 4.571-29.714 0-47.429-41.429-78.571t-104.857-31.143-104.857 31.143-41.429 78.571q0 14.286 4.571 29.714 12 36 68.571 226.286v73.143h73.143v-73.143h45.143q12.571 0 22.286-7.429t13.143-19.429zM438.857 155.429q30.286 0 51.714 10.857t21.429 25.714-21.429 25.714-51.714 10.857-51.714-10.857-21.429-25.714 21.429-25.714 51.714-10.857z" />
<glyph unicode="&#xe810;" glyph-name="auriculares" d="M987.429 453.714q0-94.857-34.286-179.429l-11.429-28-105.714-18.857q-12.571-47.429-51.714-78t-89.429-30.571v-18.286q0-8-5.143-13.143t-13.143-5.143h-36.571q-8 0-13.143 5.143t-5.143 13.143v329.143q0 8 5.143 13.143t13.143 5.143h36.571q8 0 13.143-5.143t5.143-13.143v-18.286q40.571 0 74.286-20.286t53.143-54.571l38.857 6.857q16.571 54.286 16.571 110.286 0 84.571-50.286 159.429t-135.143 119.429-180.286 44.571-180.286-44.571-135.143-119.429-50.286-159.429q0-56 16.571-110.286l38.857-6.857q19.429 34.286 53.143 54.571t74.286 20.286v18.286q0 8 5.143 13.143t13.143 5.143h36.571q8 0 13.143-5.143t5.143-13.143v-329.143q0-8-5.143-13.143t-13.143-5.143h-36.571q-8 0-13.143 5.143t-5.143 13.143v18.286q-50.286 0-89.429 30.571t-51.714 78l-105.714 18.857-11.429 28q-34.286 84.571-34.286 179.429 0 86.286 38.286 166.286t102.286 138.571 152 93.429 182.857 34.857 182.857-34.857 152-93.429 102.286-138.571 38.286-166.286z" />
<glyph unicode="&#xe811;" glyph-name="bomba" d="M326.286 623.429q-5.714 14.286-19.429 20t-28 0q-61.714-25.143-109.143-72.571t-72.571-109.143q-5.714-14.286 0-28t20-19.429q7.429-2.857 13.714-2.857 24 0 34.286 22.857 19.429 48 56.286 84.857t84.857 56.286q14.286 6.286 20 20t0 28zM864.571 826.857l26.286-26.286-139.429-138.857 38.857-38.857q10.857-10.857 10.857-26t-10.857-26l-36.571-36.571q50.857-92 50.857-196 0-81.714-31.714-156.286t-85.714-128.571-128.571-85.714-156.286-31.714-156.286 31.714-128.571 85.714-85.714 128.571-31.714 156.286 31.714 156.286 85.714 128.571 128.571 85.714 156.286 31.714q104 0 196-50.857l36.571 36.571q10.857 10.857 26 10.857t26-10.857l38.857-38.857zM869.143 858.857q-5.714-5.714-12.571-5.714-7.429 0-13.143 5.714l-52 51.429q-5.143 5.714-5.143 13.143t5.143 13.143q5.714 5.143 13.143 5.143t13.143-5.143l51.429-52q5.714-5.143 5.714-12.857t-5.714-12.857zM1000.571 727.429q-6.286-5.143-13.143-5.143t-13.143 5.143l-51.429 52q-5.714 5.143-5.714 12.857t5.714 12.857q5.143 5.714 12.857 5.714t12.857-5.714l52-51.429q5.143-5.714 5.143-13.143t-5.143-13.143zM1024 832q0-8-5.143-13.143t-13.143-5.143h-54.857q-8 0-13.143 5.143t-5.143 13.143 5.143 13.143 13.143 5.143h54.857q8 0 13.143-5.143t5.143-13.143zM914.286 941.714v-54.857q0-8-5.143-13.143t-13.143-5.143-13.143 5.143-5.143 13.143v54.857q0 8 5.143 13.143t13.143 5.143 13.143-5.143 5.143-13.143zM1000.571 910.286l-52-51.429q-5.714-5.714-12.571-5.714-7.429 0-13.143 5.714-5.714 5.143-5.714 12.857t5.714 12.857l51.429 52q5.714 5.143 13.143 5.143t13.143-5.143q5.143-5.714 5.143-13.143t-5.143-13.143z" />
<glyph unicode="&#xe812;" glyph-name="bombilla" d="M640 630.857q0-7.429-5.429-12.857t-12.857-5.429-12.857 5.429-5.429 12.857q0 26.286-30.857 40.571t-60.571 14.286q-7.429 0-12.857 5.429t-5.429 12.857 5.429 12.857 12.857 5.429q28.571 0 56.857-9.143t49.714-30.857 21.429-51.429zM731.429 630.857q0 41.143-19.714 76.571t-51.429 58-70.286 35.429-78 12.857-78-12.857-70.286-35.429-51.429-58-19.714-76.571q0-57.714 38.857-102.857 5.714-6.286 17.429-18.857t17.429-18.857q73.143-87.429 80.571-170.286h130.286q7.429 82.857 80.571 170.286 5.714 6.286 17.429 18.857t17.429 18.857q38.857 45.143 38.857 102.857zM804.571 630.857q0-88.571-58.857-153.143-25.714-28-42.571-49.714t-34-54.571-19.429-61.429q26.857-16 26.857-46.857 0-21.143-14.286-36.571 14.286-15.429 14.286-36.571 0-29.714-25.714-46.286 7.429-13.143 7.429-26.857 0-26.286-18-40.571t-44.286-14.286q-11.429-25.143-34.286-40t-49.714-14.857-49.714 14.857-34.286 40q-26.286 0-44.286 14.286t-18 40.571q0 13.714 7.429 26.857-25.714 16.571-25.714 46.286 0 21.143 14.286 36.571-14.286 15.429-14.286 36.571 0 30.857 26.857 46.857-2.286 28.571-19.429 61.429t-34 54.571-42.571 49.714q-58.857 64.571-58.857 153.143 0 56.571 25.429 105.429t66.857 81.143 93.714 50.857 106.571 18.571 106.571-18.571 93.714-50.857 66.857-81.143 25.429-105.429z" />
<glyph unicode="&#xe813;" glyph-name="bombilla2" d="M780.288 570.88c5.466 2.731 9.387 6.656 11.776 11.776s2.56 10.069 0.512 14.848-5.968 8.021-11.771 9.728c-5.808 1.707-11.435 1.195-16.901-1.536l-52.224-23.552c-5.461-2.731-9.557-6.485-12.288-11.264s-2.731-9.899 0-15.36c2.048-4.779 5.803-8.021 11.259-9.728 5.466-1.708 10.923-1.195 16.384 1.536l53.253 23.552zM769.024 404.992c6.144-0.683 11.435 0.512 15.867 3.587 4.437 3.074 7.344 7.34 8.704 12.797 1.365 5.461 0 10.24-4.096 14.336-4.091 4.093-8.875 6.485-14.331 7.168l-57.344 9.214c-6.144 1.365-11.605 0.512-16.384-2.56-4.775-3.072-7.846-7.339-9.216-12.8-0.683-5.461 0.853-10.235 4.608-14.331s8.704-6.827 14.848-8.192l57.344-9.219zM686.080 697.856c6.827 12.288 5.461 22.187-4.096 29.696-4.775 2.731-9.899 3.413-15.36 2.048s-9.899-4.779-13.312-10.24l-30.72-49.152c-3.413-5.461-4.775-10.752-4.091-15.872 0.678-5.12 3.072-9.387 7.163-12.8 4.779-3.413 9.899-4.267 15.365-2.56 5.461 1.708 9.899 5.291 13.312 10.752l31.739 48.128zM665.6 503.296c0 21.845-3.925 41.131-11.776 57.856-7.846 16.725-18.603 30.72-32.251 41.984-13.653 11.264-29.872 19.797-48.64 25.6-18.773 5.803-39.083 8.704-60.928 8.704h-1.024c-43.691 0-80.043-11.435-109.056-34.304s-43.52-56.149-43.52-99.84v-4.096c0-0.683 0.341-1.365 1.024-2.048 0-4.779 0.341-9.387 1.024-13.824s1.365-9.045 2.048-13.824c3.413-17.749 9.557-35.84 18.432-54.272s18.432-38.229 28.672-59.392c6.827-14.336 11.605-27.136 14.336-38.4 2.731-11.259 4.949-20.992 6.656-29.179 1.707-8.192 3.413-14.677 5.12-19.456s5.291-7.509 10.752-8.192h131.072c4.779 0.683 8.192 3.413 10.24 8.192 2.048 4.775 3.755 11.259 5.12 19.456 1.365 8.192 3.413 17.92 6.144 29.179 2.736 11.264 7.509 24.064 14.336 38.4 10.923 21.163 20.821 40.96 29.696 59.392s15.020 36.523 18.432 54.272c0.683 4.779 1.365 9.387 2.053 13.824 0.683 4.437 1.019 9.045 1.019 13.824v2.048c0 0.683 0.174 1.365 0.517 2.048 0.331 0.683 0.502 1.365 0.502 2.048zM589.824 227.84c0 6.827-3.413 10.24-10.24 10.24h-135.168c-6.827 0-10.24-3.413-10.24-10.24v-23.552c0-6.827 3.413-10.24 10.24-10.24h135.168c6.827 0 10.24 3.413 10.24 10.24v23.552zM589.824 161.28c0 7.509-3.413 11.264-10.24 11.264h-135.168c-6.827 0-10.24-3.755-10.24-11.264v-23.547c0-6.827 3.413-10.24 10.24-10.24h135.168c6.827 0 10.24 3.413 10.24 10.24v23.547zM342.016 727.552c-4.096-3.413-6.656-7.851-7.68-13.312s0.171-10.923 3.584-16.384l31.744-48.128c3.413-5.461 7.851-9.045 13.312-10.752s10.581-0.853 15.36 2.56c4.096 3.413 6.485 7.68 7.168 12.8s-0.683 10.411-4.096 15.872l-30.72 49.152c-3.413 5.461-7.851 8.875-13.312 10.24s-10.581 0.683-15.36-2.048zM312.32 414.208c6.144 1.365 11.093 4.096 14.848 8.192s5.291 8.875 4.608 14.331c-1.365 5.466-4.437 9.728-9.216 12.8s-10.24 3.925-16.384 2.56l-57.344-9.216c-5.461-0.681-10.24-3.074-14.336-7.166-4.096-4.096-5.461-8.88-4.096-14.336 1.365-5.461 4.267-9.725 8.704-12.797 4.437-3.074 9.728-4.27 15.872-3.587l57.344 9.219zM231.424 597.504c-2.048-4.779-1.877-9.728 0.512-14.848s6.315-9.045 11.776-11.776l53.248-23.552c5.461-2.731 10.923-3.243 16.384-1.536s9.216 4.949 11.264 9.728c2.731 5.461 2.731 10.581 0 15.36s-6.827 8.533-12.288 11.264l-52.224 23.552c-5.461 2.731-11.093 3.243-16.896 1.536s-9.728-4.949-11.776-9.728zM493.568 688.64c0-6.144 1.877-11.435 5.632-15.872s8.363-6.656 13.822-6.656c5.463 0 9.9 2.219 13.314 6.656s5.12 9.728 5.12 15.872v57.344c0 6.144-1.707 11.435-5.12 15.872s-7.851 6.656-13.314 6.656c-5.46 0-10.073-2.219-13.822-6.656-3.755-4.437-5.632-9.728-5.632-15.872v-57.344zM512 960c70.315 0 136.704-13.483 199.168-40.448s116.736-63.488 162.816-109.568 82.603-100.352 109.568-162.816 40.448-128.853 40.448-199.168c0-47.104-6.144-92.501-18.432-136.192-12.293-43.686-29.525-84.475-51.712-122.368-22.187-37.888-48.811-72.363-79.872-103.424-31.058-31.061-65.536-57.69-103.424-79.872-37.891-22.187-78.677-39.424-122.371-51.712-43.687-12.288-89.085-18.432-136.189-18.432s-92.501 6.144-136.192 18.432c-43.691 12.293-84.48 29.525-122.368 51.712s-72.363 48.811-103.424 79.872c-31.061 31.058-57.685 65.536-79.872 103.424-22.187 37.891-39.424 78.677-51.712 122.37-12.288 43.689-18.432 89.086-18.432 136.19s6.144 92.501 18.432 136.192 29.525 84.48 51.712 122.368 48.811 72.363 79.872 103.424 65.536 57.685 103.424 79.872 78.677 39.424 122.368 51.712 89.088 18.432 136.192 18.432z" />
<glyph unicode="&#xe814;" glyph-name="cafe" d="M914.286 594.286q0 45.714-32 77.714t-77.714 32h-36.571v-219.429h36.571q45.714 0 77.714 32t32 77.714zM-36.571 155.429h1024q0-60.571-42.857-103.429t-103.429-42.857h-731.429q-60.571 0-103.429 42.857t-42.857 103.429zM1024 594.286q0-90.857-64.286-155.143t-155.143-64.286h-36.571v-18.286q0-52.571-37.714-90.286t-90.286-37.714h-402.286q-52.571 0-90.286 37.714t-37.714 90.286v420.571q0 14.857 10.857 25.714t25.714 10.857h658.286q90.857 0 155.143-64.286t64.286-155.143z" />
<glyph unicode="&#xe815;" glyph-name="camara" d="M512 576q68 0 116.286-48.286t48.286-116.286-48.286-116.286-116.286-48.286-116.286 48.286-48.286 116.286 48.286 116.286 116.286 48.286zM914.286 813.714q60.571 0 103.429-42.857t42.857-103.429v-512q0-60.571-42.857-103.429t-103.429-42.857h-804.571q-60.571 0-103.429 42.857t-42.857 103.429v512q0 60.571 42.857 103.429t103.429 42.857h128l29.143 77.714q10.857 28 39.714 48.286t59.143 20.286h292.571q30.286 0 59.143-20.286t39.714-48.286l29.143-77.714h128zM512 155.429q105.714 0 180.857 75.143t75.143 180.857-75.143 180.857-180.857 75.143-180.857-75.143-75.143-180.857 75.143-180.857 180.857-75.143z" />
<glyph unicode="&#xe816;" glyph-name="camara2" d="M530.286 484.571q0 8-5.143 13.143t-13.143 5.143q-37.714 0-64.571-26.857t-26.857-64.571q0-8 5.143-13.143t13.143-5.143 13.143 5.143 5.143 13.143q0 22.857 16 38.857t38.857 16q8 0 13.143 5.143t5.143 13.143zM658.286 410.286q0-60.571-42.857-103.429t-103.429-42.857-103.429 42.857-42.857 103.429 42.857 103.429 103.429 42.857 103.429-42.857 42.857-103.429zM73.143 82.286h877.714v73.143h-877.714v-73.143zM731.429 410.286q0 90.857-64.286 155.143t-155.143 64.286-155.143-64.286-64.286-155.143 64.286-155.143 155.143-64.286 155.143 64.286 64.286 155.143zM146.286 777.143h219.429v73.143h-219.429v-73.143zM73.143 667.429h877.714v146.286h-473.143l-36.571-73.143h-368v-73.143zM1024 813.714v-731.429q0-30.286-21.429-51.714t-51.714-21.429h-877.714q-30.286 0-51.714 21.429t-21.429 51.714v731.429q0 30.286 21.429 51.714t51.714 21.429h877.714q30.286 0 51.714-21.429t21.429-51.714z" />
<glyph unicode="&#xe817;" glyph-name="carrito" d="M402.286 82.286q0-29.714-21.714-51.429t-51.429-21.714-51.429 21.714-21.714 51.429 21.714 51.429 51.429 21.714 51.429-21.714 21.714-51.429zM914.286 82.286q0-29.714-21.714-51.429t-51.429-21.714-51.429 21.714-21.714 51.429 21.714 51.429 51.429 21.714 51.429-21.714 21.714-51.429zM987.429 704v-292.571q0-13.714-9.429-24.286t-23.143-12.286l-596.571-69.714q7.429-34.286 7.429-40 0-9.143-13.714-36.571h525.714q14.857 0 25.714-10.857t10.857-25.714-10.857-25.714-25.714-10.857h-585.143q-14.857 0-25.714 10.857t-10.857 25.714q0 6.286 4.571 18t9.143 20.571 12.286 22.857 8.857 16.857l-101.143 470.286h-116.571q-14.857 0-25.714 10.857t-10.857 25.714 10.857 25.714 25.714 10.857h146.286q9.143 0 16.286-3.714t11.143-8.857 7.429-14 4.571-14.857 3.143-16.857 2.571-14.857h686.286q14.857 0 25.714-10.857t10.857-25.714z" />
<glyph unicode="&#xe818;" glyph-name="cartel" d="M783.624 435.698l202.078 202.078-202.078 202.099h-271.614v97.775c0 12.291-10.058 22.349-22.349 22.349h-80.487c-12.291 0-22.349-10.058-22.349-22.349v-97.796h-337.896c-5.869 0-10.632-4.763-10.632-10.632v-382.913c0-5.869 4.763-10.632 10.632-10.632h337.896v-79.296h-125.015l-101.050-101.050 101.050-101.050h125.015v-195.933c0-12.27 10.058-22.37 22.349-22.37h80.487c12.291 0 22.349 10.101 22.349 22.37v195.933h154.339c5.89 0 10.632 4.785 10.632 10.632v180.835c0 5.848-4.742 10.632-10.632 10.632h-154.339v79.296l271.614 0.021z" />
<glyph unicode="&#xe819;" glyph-name="cerveza" d="M402.286 448v219.429h-146.286v-146.286q0-30.286 21.429-51.714t51.714-21.429h73.143zM987.429 192v-109.714h-658.286v109.714l73.143 109.714h-73.143q-90.857 0-155.143 64.286t-64.286 155.143v182.857l-36.571 36.571 18.286 73.143h274.286l18.286 73.143h548.571l18.286-109.714-36.571-18.286v-457.143z" />
<glyph unicode="&#xe81a;" glyph-name="codigo" d="M36 82.286h-36v804.571h36v-804.571zM72 82.857h-18.286v804h18.286v-804zM125.714 82.857h-17.714v804h17.714v-804zM215.429 82.857h-17.714v804h17.714v-804zM305.143 82.857h-35.429v804h35.429v-804zM377.143 82.857h-17.714v804h17.714v-804zM413.143 82.857h-17.714v804h17.714v-804zM449.143 82.857h-17.714v804h17.714v-804zM538.857 82.857h-36v804h36v-804zM628.571 82.857h-36v804h36v-804zM700.571 82.857h-36v804h36v-804zM772.571 82.857h-36v804h36v-804zM826.286 82.857h-36v804h36v-804zM934.286 82.857h-53.714v804h53.714v-804zM970.286 82.857h-18.286v804h18.286v-804zM1024 82.286h-36v804.571h36v-804.571z" />
<glyph unicode="&#xe81b;" glyph-name="codigo2" d="M329.143 301.714v-73.143h-73.143v73.143h73.143zM329.143 740.571v-73.143h-73.143v73.143h73.143zM768 740.571v-73.143h-73.143v73.143h73.143zM182.857 156h219.429v218.857h-219.429v-218.857zM182.857 594.286h219.429v219.429h-219.429v-219.429zM621.714 594.286h219.429v219.429h-219.429v-219.429zM475.429 448v-365.714h-365.714v365.714h365.714zM768 155.429v-73.143h-73.143v73.143h73.143zM914.286 155.429v-73.143h-73.143v73.143h73.143zM914.286 448v-219.429h-219.429v73.143h-73.143v-219.429h-73.143v365.714h219.429v-73.143h73.143v73.143h73.143zM475.429 886.857v-365.714h-365.714v365.714h365.714zM914.286 886.857v-365.714h-365.714v365.714h365.714z" />
<glyph unicode="&#xe81c;" glyph-name="control-aleatorio" d="M563.205 524.8c25.295 41.103 56.851 51.197 108.803 51.197h127.997v-95.998l223.995 172.801-223.995 179.198v-96.002h-127.997c-40.102 0-84.706-14.299-119.802-28.295-63.999-25.456-104.701-69.255-131.952-131.702-14.65-33.601-17.7-110.805-38.8-153.603-31.599-63.999-73.503-102.395-125.451-102.395h-256.002l0.004-160.004h255.998c24.101 0 78.298 14.303 113.398 28.302 63.999 25.449 106.353 68.751 151.604 167.499 19.252 42.051 29.396 148.2 42.201 169zM354.152 518.653c0.147 0.851 0.3 1.698 0.451 2.499 4.999 28.202 9.798 54.852 18.698 75.352 13.599 31.198 31.095 57.097 50.901 80.2-16.699 12.798-34.599 22.949-54.805 31.002-35.099 13.995-73.296 28.295-113.398 28.295h-255.995l-0.004-159.997h256.002c38.2 0 70.9-20.904 98.151-57.351zM800.005 319.999l-134.401 0.004c-43.803 0-68.4 8.399-90.252 35.296-2.399-7.452-4.949-14.6-7.799-20.85-22.152-48.298-44.6-85.399-69.655-115.003 16.148-12.047 33.605-22.949 54.301-31.148 35.099-13.999 79.7-28.302 119.802-28.302h127.997v-95.998l223.995 179.202-223.995 172.798v-95.998z" />
<glyph unicode="&#xe81d;" glyph-name="control-anterior" d="M78.844 448.002c0 0-9.667-39.274 46.264-72.554l681.409-429.324c20.14-11.989 45.158-10 64.049-10 75.563 0 75.231 60.631 75.231 73.128v877.502c0 14.78 0.336 73.124-75.231 73.124-18.893 0-43.905 1.999-64.049-9.996l-681.413-429.328c-55.931-33.276-46.26-72.55-46.26-72.55z" />
<glyph unicode="&#xe81e;" glyph-name="control-expulsar" d="M80.571 400.571l405.714 405.714q10.857 10.857 25.714 10.857t25.714-10.857l405.714-405.714q10.857-10.857 7.429-18.286t-18.286-7.429h-841.143q-14.857 0-18.286 7.429t7.429 18.286zM914.286 82.286h-804.571q-14.857 0-25.714 10.857t-10.857 25.714v146.286q0 14.857 10.857 25.714t25.714 10.857h804.571q14.857 0 25.714-10.857t10.857-25.714v-146.286q0-14.857-10.857-25.714t-25.714-10.857z" />
<glyph unicode="&#xe81f;" glyph-name="control-forward" d="M990.858 507.485l-416.839 351.987c-14.226 9.836-31.907 8.196-45.258 8.196-53.394 0-53.157-47.83-53.157-59.955v-266.739l-377.181 318.498c-14.234 9.836-31.915 8.196-45.263 8.196-53.394-0.004-53.161-47.834-53.161-59.955v-719.422c0-10.249-0.233-59.955 53.161-59.955 13.347 0 31.028-1.639 45.263 8.196l377.181 318.498v-266.739c0-10.249-0.237-59.955 53.157-59.955 13.351 0 31.032-1.639 45.258 8.196l416.839 351.983c39.523 27.288 32.692 59.485 32.692 59.485s6.831 32.201-32.692 59.485z" />
<glyph unicode="&#xe820;" glyph-name="control-grabar" d="M1022.976 449.024c0-282.769-229.231-512-512-512s-512 229.231-512 512 229.231 512 512 512 512-229.231 512-512z" />
<glyph unicode="&#xe821;" glyph-name="control-parar" d="M945.232 960h-866.465c-43.503 0-78.768-35.269-78.768-78.768v-866.465c0-43.503 35.265-78.768 78.768-78.768h866.465c43.507 0 78.768 35.265 78.768 78.768v866.465c0 43.499-35.265 78.768-78.768 78.768z" />
<glyph unicode="&#xe822;" glyph-name="control-pausa" d="M354.463 960h-196.923c-43.503 0-78.768-35.269-78.768-78.768v-866.465c0-43.503 35.265-78.768 78.768-78.768h196.923c43.503 0 78.768 35.265 78.768 78.768v866.465c-0.004 43.499-35.269 78.768-78.768 78.768zM866.461 960h-196.923c-43.507 0-78.772-35.269-78.772-78.768v-866.465c0-43.503 35.265-78.768 78.772-78.768h196.923c43.503 0 78.768 35.265 78.768 78.768v866.465c0.004 43.499-35.265 78.768-78.768 78.768z" />
<glyph unicode="&#xe823;" glyph-name="control-play" d="M512 886.857q119.429 0 220.286-58.857t159.714-159.714 58.857-220.286-58.857-220.286-159.714-159.714-220.286-58.857-220.286 58.857-159.714 159.714-58.857 220.286 58.857 220.286 159.714 159.714 220.286 58.857zM731.429 416.571q18.286 10.286 18.286 31.429t-18.286 31.429l-310.857 182.857q-17.714 10.857-36.571 0.571-18.286-10.857-18.286-32v-365.714q0-21.143 18.286-32 9.143-4.571 18.286-4.571 9.714 0 18.286 5.143z" />
<glyph unicode="&#xe824;" glyph-name="control-play2" d="M749.714 448q0-21.143-18.286-31.429l-310.857-182.857q-8.571-5.143-18.286-5.143-9.143 0-18.286 4.571-18.286 10.857-18.286 32v365.714q0 21.143 18.286 32 18.857 10.286 36.571-0.571l310.857-182.857q18.286-10.286 18.286-31.429zM822.857 448q0 84.571-41.714 156t-113.143 113.143-156 41.714-156-41.714-113.143-113.143-41.714-156 41.714-156 113.143-113.143 156-41.714 156 41.714 113.143 113.143 41.714 156zM950.857 448q0-119.429-58.857-220.286t-159.714-159.714-220.286-58.857-220.286 58.857-159.714 159.714-58.857 220.286 58.857 220.286 159.714 159.714 220.286 58.857 220.286-58.857 159.714-159.714 58.857-220.286z" />
<glyph unicode="&#xe825;" glyph-name="control-primero" d="M892.479 959.876c-16.241 0-37.755 1.995-55.071-9.974l-458.951-387.545v308.483c0 49.176-39.859 89.035-89.031 89.035h-133.556c-49.166 0-89.031-39.859-89.031-89.035v-845.81c0-49.171 39.864-89.031 89.031-89.031h133.556c49.171 0 89.031 39.859 89.031 89.031v311.060l458.951-387.55c17.316-11.963 38.83-9.969 55.071-9.969 64.975 0 64.686 58.2 64.686 72.953v875.397c-0.005 12.471 0.284 72.953-64.686 72.953z" />
<glyph unicode="&#xe826;" glyph-name="control-repetir" d="M677.714 129.714c0-4.488-1.639-8.371-4.919-11.652-3.279-3.279-7.163-4.919-11.652-4.919h-497.143c-2.762 0-5.092 0.345-6.991 1.036s-3.452 1.899-4.661 3.625c-1.208 1.726-2.157 3.107-2.848 4.143s-1.208 3.021-1.554 5.955c-0.345 2.935-0.518 4.919-0.518 5.955v310.714h-99.429c-8.976 0-16.744 3.28-23.303 9.839s-9.839 14.327-9.839 23.303c0 8.286 2.589 15.363 7.768 21.232l165.714 198.857c6.559 7.595 15.018 11.393 25.375 11.393s18.816-3.798 25.375-11.393l165.714-198.857c5.179-5.869 7.768-12.946 7.768-21.232 0-8.976-3.279-16.744-9.839-23.303s-14.327-9.839-23.303-9.839h-99.429v-198.857h298.286c5.524 0 9.839-1.898 12.946-5.697l82.857-99.429c2.417-3.798 3.625-7.422 3.625-10.875zM1009.143 345.143c0-8.286-2.589-15.363-7.768-21.232l-165.714-198.857c-6.905-7.941-15.363-11.911-25.375-11.911s-18.47 3.97-25.375 11.911l-165.714 198.857c-5.179 5.869-7.768 12.946-7.768 21.232 0 8.977 3.28 16.745 9.839 23.303s14.327 9.839 23.303 9.839h99.429v198.857h-298.286c-5.523 0-9.839 2.071-12.946 6.214l-82.857 99.429c-2.417 3.107-3.625 6.559-3.625 10.357 0 4.488 1.64 8.372 4.919 11.652s7.164 4.919 11.652 4.919h497.143c2.762 0 5.093-0.345 6.991-1.036s3.453-1.898 4.661-3.625c1.209-1.726 2.158-3.107 2.848-4.143s1.209-3.021 1.554-5.955c0.345-2.934 0.518-4.919 0.518-5.955v-310.714h99.429c8.977 0 16.745-3.279 23.303-9.839 6.56-6.559 9.84-14.327 9.84-23.303z" />
<glyph unicode="&#xe827;" glyph-name="control-rewind" d="M970.839 867.664c-13.351 0-31.032 1.639-45.263-8.196l-377.177-318.498v266.743c0 10.249 0.233 59.955-53.161 59.955-13.347 0-31.028 1.639-45.263-8.196l-416.835-351.987c-39.527-27.283-32.692-59.485-32.692-59.485s-6.831-32.205 32.692-59.485l416.835-351.987c14.234-9.832 31.915-8.192 45.263-8.192 53.398 0 53.161 47.83 53.161 59.955v266.739l377.177-318.502c14.234-9.832 31.915-8.192 45.263-8.192 53.398 0 53.161 47.83 53.161 59.955v719.422c0 10.245 0.237 59.951-53.161 59.951z" />
<glyph unicode="&#xe828;" glyph-name="control-siguiente" d="M898.899 520.552l-681.411 429.329c-20.145 11.993-45.159 9.995-64.050 9.995-75.567 0-75.232-58.343-75.232-73.124v-877.501c0-12.496-0.331-73.128 75.232-73.128 18.892 0 43.91-1.989 64.050 9.999l681.407 429.325c55.93 33.28 46.266 72.555 46.266 72.555s9.669 39.275-46.261 72.55z" />
<glyph unicode="&#xe829;" glyph-name="control-ultimo" d="M868.129 960h-133.551c-49.171 0-89.026-39.859-89.026-89.035v-311.060l-458.951 387.55c-17.326 11.968-38.835 9.974-55.076 9.974-64.97 0-64.686-58.2-64.686-72.953v-875.397c0-12.471-0.284-72.953 64.686-72.953 16.241 0 37.75-1.995 55.076 9.974l458.956 387.55v-308.488c0-49.171 39.854-89.031 89.026-89.031h133.551c49.171 0 89.031 39.859 89.031 89.031v845.805c0 49.176-39.859 89.035-89.035 89.035z" />
<glyph unicode="&#xe82a;" glyph-name="copa" d="M970.857 853.714q0-20-24.571-44.571l-361.143-361.143v-438.857h182.857q14.857 0 25.714-10.857t10.857-25.714-10.857-25.714-25.714-10.857h-512q-14.857 0-25.714 10.857t-10.857 25.714 10.857 25.714 25.714 10.857h182.857v438.857l-361.143 361.143q-24.571 24.571-24.571 44.571 0 13.143 10.286 20.857t21.714 10 24.571 2.286h804.571q13.143 0 24.571-2.286t21.714-10 10.286-20.857z" />
<glyph unicode="&#xe82b;" glyph-name="cubiertos" d="M475.429 923.429v-365.714q0-34.857-20.286-63.429t-52.857-40v-445.143q0-29.714-21.714-51.429t-51.429-21.714h-73.143q-29.714 0-51.429 21.714t-21.714 51.429v445.143q-32.571 11.429-52.857 40t-20.286 63.429v365.714q0 14.857 10.857 25.714t25.714 10.857 25.714-10.857 10.857-25.714v-237.714q0-14.857 10.857-25.714t25.714-10.857 25.714 10.857 10.857 25.714v237.714q0 14.857 10.857 25.714t25.714 10.857 25.714-10.857 10.857-25.714v-237.714q0-14.857 10.857-25.714t25.714-10.857 25.714 10.857 10.857 25.714v237.714q0 14.857 10.857 25.714t25.714 10.857 25.714-10.857 10.857-25.714zM914.286 923.429v-914.286q0-29.714-21.714-51.429t-51.429-21.714h-73.143q-29.714 0-51.429 21.714t-21.714 51.429v292.571h-128q-7.429 0-12.857 5.429t-5.429 12.857v457.143q0 75.429 53.714 129.143t129.143 53.714h146.286q14.857 0 25.714-10.857t10.857-25.714z" />
<glyph unicode="&#xe82c;" glyph-name="cubo" d="M512 29.143l365.714 199.429v363.429l-365.714-133.143v-429.714zM475.429 523.429l398.857 145.143-398.857 145.143-398.857-145.143zM950.857 667.429v-438.857q0-20-10.286-37.143t-28-26.857l-402.286-219.429q-16-9.143-34.857-9.143t-34.857 9.143l-402.286 219.429q-17.714 9.714-28 26.857t-10.286 37.143v438.857q0 22.857 13.143 41.714t34.857 26.857l402.286 146.286q12.571 4.571 25.143 4.571t25.143-4.571l402.286-146.286q21.714-8 34.857-26.857t13.143-41.714z" />
<glyph unicode="&#xe82d;" glyph-name="cubos" d="M219.429 27.429l219.429 109.714v179.429l-219.429-93.714v-195.429zM182.857 286.857l230.857 98.857-230.857 98.857-230.857-98.857zM804.571 27.429l219.429 109.714v179.429l-219.429-93.714v-195.429zM768 286.857l230.857 98.857-230.857 98.857-230.857-98.857zM512 454.286l219.429 94.286v152l-219.429-93.714v-152.571zM475.429 670.857l252 108-252 108-252-108zM1097.143 374.857v-237.714q0-20.571-10.857-38.286t-29.714-26.857l-256-128q-14.286-8-32.571-8t-32.571 8l-256 128q-2.857 1.143-4 2.286-1.143-1.143-4-2.286l-256-128q-14.286-8-32.571-8t-32.571 8l-256 128q-18.857 9.143-29.714 26.857t-10.857 38.286v237.714q0 21.714 12.286 40t32.286 27.429l248 106.286v228.571q0 21.714 12.286 40t32.286 27.429l256 109.714q13.143 5.714 28.571 5.714t28.571-5.714l256-109.714q20-9.143 32.286-27.429t12.286-40v-228.571l248-106.286q20.571-9.143 32.571-27.429t12-40z" />
<glyph unicode="&#xe82e;" glyph-name="cuchara" d="M694.857 658.286q0-82.857-32.571-139.143t-86.857-77.429l25.714-469.143q1.143-14.857-9.143-25.714t-25.143-10.857h-109.714q-14.857 0-25.143 10.857t-9.143 25.714l25.714 469.143q-54.286 21.143-86.857 77.429t-32.571 139.143q0 73.143 24.286 142.571t67.143 114.286 91.429 44.857 91.429-44.857 67.143-114.286 24.286-142.571z" />
<glyph unicode="&#xe82f;" glyph-name="diamante" d="M48 521.143l356-380-171.429 380h-184.571zM512 80l199.429 441.143h-398.857zM234.286 594.286l116.571 219.429h-149.714l-164.571-219.429h197.714zM620 141.143l356 380h-184.571zM317.143 594.286h389.714l-116.571 219.429h-156.571zM789.714 594.286h197.714l-164.571 219.429h-149.714zM870.286 872l219.429-292.571q8-10.286 7.429-23.714t-9.714-23.143l-548.571-585.143q-10.286-11.429-26.857-11.429t-26.857 11.429l-548.571 585.143q-9.143 9.714-9.714 23.143t7.429 23.714l219.429 292.571q10.286 14.857 29.143 14.857h658.286q18.857 0 29.143-14.857z" />
<glyph unicode="&#xe830;" glyph-name="diana" d="M442.32 493.245c6.045 0 11.989-0.475 17.785-1.381l91.101 91.098c-32.484 17.354-69.556 27.21-108.883 27.21-127.84 0-231.85-104.008-231.85-231.85s104.010-231.85 231.85-231.85 231.847 104.008 231.847 231.85c0 39.329-9.854 76.396-27.21 108.88l-91.096-91.101c0.904-5.796 1.379-11.735 1.379-17.782 0-63.368-51.552-114.923-114.918-114.923-63.368 0-114.923 51.554-114.923 114.923s51.55 114.925 114.918 114.925zM715.168 555.414c33.211-50.998 52.539-111.828 52.539-177.089 0-179.424-145.964-325.393-325.385-325.393s-325.393 145.969-325.393 325.39 145.969 325.393 325.39 325.393c65.269 0 126.094-19.331 177.094-52.544l83.972 83.972c-73.222 53.719-163.498 85.499-261.064 85.499-243.897 0-442.32-198.425-442.32-442.32s198.422-442.322 442.32-442.322c243.895 0 442.312 198.427 442.312 442.322 0 97.569-31.773 187.845-85.492 261.062l-83.975-83.97zM1022.853 820.539c-2.755 8.714-10.142 15.16-19.144 16.726l-87.284 15.16-15.158 87.287c-1.568 9.002-8.017 16.386-16.726 19.141-8.709 2.763-18.226 0.438-24.689-6.025l-67.495-67.493c-4.587-4.59-7.165-10.817-7.17-17.307l0.005-100.696-364.658-364.648c-12.745-12.747-12.745-33.403 0-46.15 12.749-12.742 33.408-12.747 46.152 0l364.646 364.651h100.696c6.488 0 12.715 2.578 17.302 7.168l67.495 67.497c6.466 6.458 8.788 15.98 6.028 24.689z" />
<glyph unicode="&#xe831;" glyph-name="diana2" d="M658.286 448q0-60.571-42.857-103.429t-103.429-42.857-103.429 42.857-42.857 103.429 42.857 103.429 103.429 42.857 103.429-42.857 42.857-103.429zM731.429 448q0 90.857-64.286 155.143t-155.143 64.286-155.143-64.286-64.286-155.143 64.286-155.143 155.143-64.286 155.143 64.286 64.286 155.143zM804.571 448q0-121.143-85.714-206.857t-206.857-85.714-206.857 85.714-85.714 206.857 85.714 206.857 206.857 85.714 206.857-85.714 85.714-206.857zM877.714 448q0 74.286-29.143 142t-78 116.571-116.571 78-142 29.143-142-29.143-116.571-78-78-116.571-29.143-142 29.143-142 78-116.571 116.571-78 142-29.143 142 29.143 116.571 78 78 116.571 29.143 142zM950.857 448q0-119.429-58.857-220.286t-159.714-159.714-220.286-58.857-220.286 58.857-159.714 159.714-58.857 220.286 58.857 220.286 159.714 159.714 220.286 58.857 220.286-58.857 159.714-159.714 58.857-220.286z" />
<glyph unicode="&#xe832;" glyph-name="dinero" d="M402.286 301.714h219.429v54.857h-73.143v256h-65.143l-84.571-78.286 44-45.714q24 21.143 31.429 32.571h1.143v-164.571h-73.143v-54.857zM694.857 448q0-40-12-81.143t-34-76.571-58-57.714-78.857-22.286-78.857 22.286-58 57.714-34 76.571-12 81.143 12 81.143 34 76.571 58 57.714 78.857 22.286 78.857-22.286 58-57.714 34-76.571 12-81.143zM987.429 301.714v292.571q-60.571 0-103.429 42.857t-42.857 103.429h-658.286q0-60.571-42.857-103.429t-103.429-42.857v-292.571q60.571 0 103.429-42.857t42.857-103.429h658.286q0 60.571 42.857 103.429t103.429 42.857zM1060.571 777.143v-658.286q0-14.857-10.857-25.714t-25.714-10.857h-1024q-14.857 0-25.714 10.857t-10.857 25.714v658.286q0 14.857 10.857 25.714t25.714 10.857h1024q14.857 0 25.714-10.857t10.857-25.714z" />
<glyph unicode="&#xe833;" glyph-name="dinero2" d="M297.516 375.257c28.777 0 56.593 1.859 82.914 5.319v288.507c-26.319 3.458-54.137 5.316-82.914 5.316-164.312 0-297.513-60.412-297.513-134.938v-29.264c0-74.523 133.202-134.941 297.513-134.941zM297.516 224.609c28.777 0 56.593 1.859 82.914 5.314v84.567c-26.327-3.458-54.13-5.342-82.914-5.342-143.426 0-263.137 46.034-291.256 107.301-4.095-8.924-6.257-18.165-6.257-27.637v-29.264c0-74.526 133.202-134.938 297.513-134.938zM380.428 157.264v6.573c-26.327-3.458-54.13-5.342-82.914-5.342-143.426 0-263.137 46.034-291.256 107.301-4.095-8.922-6.257-18.162-6.257-27.635v-29.264c0-74.528 133.202-134.941 297.513-134.941 32.859 0 64.464 2.422 94.019 6.884-7.326 14.985-11.104 30.789-11.104 47.161v29.262zM726.489 902.938c-164.312 0-297.513-60.412-297.513-134.938v-29.264c0-74.526 133.202-134.938 297.513-134.938 164.309 0 297.513 60.412 297.513 134.938v29.264c0 74.526-133.204 134.938-297.513 134.938zM726.489 537.687c-143.426 0-263.137 46.032-291.256 107.301-4.095-8.922-6.257-18.162-6.257-27.637v-29.264c0-74.526 133.202-134.938 297.513-134.938 164.309 0 297.513 60.412 297.513 134.938v29.264c0 9.475-2.162 18.716-6.257 27.637-28.119-61.269-147.83-107.301-291.256-107.301zM726.489 387.034c-143.426 0-263.137 46.034-291.256 107.301-4.095-8.922-6.257-18.162-6.257-27.637v-29.264c0-74.528 133.202-134.941 297.513-134.941 164.309 0 297.513 60.412 297.513 134.941v29.264c0 9.475-2.162 18.716-6.257 27.637-28.119-61.269-147.83-107.301-291.256-107.301zM726.489 228.251c-143.426 0-263.137 46.034-291.256 107.301-4.095-8.924-6.257-18.162-6.257-27.635v-29.267c0-74.526 133.202-134.938 297.513-134.938 164.309 0 297.513 60.412 297.513 134.938v29.267c0 9.473-2.162 18.716-6.257 27.635-28.119-61.264-147.83-107.301-291.256-107.301zM726.489 77.601c-143.426 0-263.137 46.032-291.256 107.298-4.095-8.924-6.257-18.167-6.257-27.635v-29.264c0-74.526 133.202-134.938 297.513-134.938 164.309 0 297.513 60.412 297.513 134.938v29.267c0 9.473-2.162 18.716-6.257 27.635-28.119-61.267-147.83-107.301-291.256-107.301z" />
<glyph unicode="&#xe834;" glyph-name="diploma" d="M1023.581 320.49c-2.129 13.516-12.148 24.433-25.426 27.718-2.226 0.549-182.198 45.754-314.425 127.127l-144.38 144.413c-81.283 132.163-126.596 312.189-127.145 314.407-3.283 13.281-14.205 23.3-27.718 25.428-13.511 2.129-26.986-4.046-34.194-15.673l-43.592-70.302c-24.714 22.281-61.886 32.856-92.259 24.834l-2.484-0.661c-107.636-32.971-175.988-101.323-208.959-208.957l-0.659-2.486c-7.558-33.548 3.553-71.216 28.308-95.973 1.861-1.861 3.814-3.658 5.799-5.34l0.75-0.615c81.873-65.424 161.599-134.621 238.048-206.534-68.505-37.972-128.056-56.85-173.563-54.826-7.579 0.339-14.496-4.296-17.071-11.433s-0.214-15.119 5.835-19.703l51.39-38.952-58.31-55.942c-5.006-4.804-6.665-12.127-4.219-18.616 0.888-2.359 2.251-4.434 3.962-6.144 3.004-3.007 7.076-4.865 11.489-5.059 51.5-2.29 108.159 8.763 169.336 32.9-24.139-61.177-35.189-117.833-32.9-169.333 0.197-4.413 2.057-8.487 5.062-11.492 1.71-1.71 3.791-3.073 6.147-3.962 6.489-2.445 13.814-0.791 18.616 4.214l55.944 58.315 38.947-51.398c4.584-6.042 12.564-8.411 19.701-5.827 7.134 2.576 11.767 9.495 11.43 17.071-2.022 45.507 16.857 105.060 54.831 173.571 71.951-76.485 141.151-156.211 206.537-238.058l0.62-0.766c1.677-1.976 3.469-3.921 5.325-5.784 24.755-24.755 62.428-35.871 95.978-28.318l2.496 0.661c107.641 32.987 175.99 101.336 208.954 208.964 0 0 17.957 54.157-24.173 94.738l70.302 43.587c11.624 7.221 17.799 20.691 15.67 34.204zM367.802 843.083c6.754-21.178 15.080-45.711 24.943-72.074-13.467 15.828-26.815 31.751-40.011 47.776l15.068 24.298zM334.792 415.19c-81.569 77.421-166.911 151.833-254.675 221.987-0.465 0.406-0.927 0.837-1.376 1.286-8.002 8.002-13.452 21.367-10.261 31.899 26.541 85.365 76.576 135.402 161.949 161.946 9.656 3.221 23.534 0.564 33.183-11.637 5.35-6.693 10.731-13.37 16.13-20.037l10.33-12.671c62.3-76.273 127.742-150.57 195.52-221.977l-150.799-150.797zM896.304 166.429c-26.534-85.36-76.566-135.402-161.936-161.949-10.455-2.269-23.907 2.264-31.909 10.264-0.447 0.452-0.881 0.904-1.279 1.366-70.106 87.734-144.518 173.081-221.982 254.68l150.794 150.792c71.418-67.798 145.72-133.238 221.99-195.533l12.656-10.315c6.662-5.399 13.347-10.785 20.048-16.132 0.462-0.401 0.919-0.83 1.366-1.279 7.992-7.995 13.189-21.658 10.254-31.894zM882.78 288.734c-16.020 13.197-31.95 26.539-47.784 40.016 26.368-9.863 50.905-18.189 72.086-24.946l-24.303-15.070z" />
<glyph unicode="&#xe835;" glyph-name="edif-ayuntamiento" d="M475.429 960l548.571-219.429v-73.143h-73.143q0-14.857-11.714-25.714t-27.714-10.857h-872q-16 0-27.714 10.857t-11.714 25.714h-73.143v73.143zM73.143 594.286h146.286v-438.857h73.143v438.857h146.286v-438.857h73.143v438.857h146.286v-438.857h73.143v438.857h146.286v-438.857h33.714q16 0 27.714-10.857t11.714-25.714v-36.571h-950.857v36.571q0 14.857 11.714 25.714t27.714 10.857h33.714v438.857zM984.571 45.714q16 0 27.714-10.857t11.714-25.714v-73.143h-1097.143v73.143q0 14.857 11.714 25.714t27.714 10.857h1018.286z" />
<glyph unicode="&#xe836;" glyph-name="edif-banco" d="M1012.026 743.195l-5.986 1.273c-53.359 11.339-104.799 16.85-157.255 16.85-42.954 0-86.818-3.9-130.371-11.587v122.952c0 7.137-4.991 13.301-11.971 14.786l-5.989 1.273c-63.997 13.604-125.637 20.215-188.446 20.215-62.812 0-124.461-6.614-188.467-20.215l-5.986-1.273c-6.983-1.484-11.974-7.648-11.974-14.786v-122.946c-43.522 7.688-87.368 11.584-130.319 11.584-52.458 0-103.91-5.511-157.3-16.85l-5.986-1.27c-6.983-1.487-11.977-7.654-11.977-14.792v-726.251c0-8.347 6.766-15.115 15.115-15.115l993.77 0.003c8.35 0 15.115 6.769 15.115 15.115v726.248c0 7.137-4.991 13.301-11.974 14.786zM240.639 147.412c0-2.506-2.031-4.535-4.535-4.535h-114.273c-2.503 0-4.535 2.028-4.535 4.535v94.113c0 2.506 2.031 4.535 4.535 4.535h114.273c2.503 0 4.535-2.028 4.535-4.535v-94.113zM240.639 335.272c0-2.506-2.031-4.535-4.535-4.535h-114.273c-2.503 0-4.535 2.028-4.535 4.535v94.116c0 2.506 2.031 4.535 4.535 4.535h114.273c2.503 0 4.535-2.028 4.535-4.535v-94.116zM240.639 523.131c0-2.506-2.031-4.535-4.535-4.535h-114.273c-2.503 0-4.535 2.028-4.535 4.535v94.113c0 2.506 2.031 4.535 4.535 4.535h114.273c2.503 0 4.535-2.028 4.535-4.535v-94.113zM673.070 32.395h-79.88v269.043c0 8.347-6.766 15.115-15.115 15.115h-132.148c-8.35 0-15.115-6.769-15.115-15.115v-269.046h-79.88v815.626c53.858 10.333 108.058 15.572 161.082 15.572 53.027 0 107.211-5.239 161.057-15.572v-815.623zM906.707 147.412c0-2.506-2.031-4.535-4.535-4.535h-114.273c-2.503 0-4.535 2.028-4.535 4.535v94.113c0 2.506 2.031 4.535 4.535 4.535h114.273c2.503 0 4.535-2.028 4.535-4.535v-94.113zM906.707 335.272c0-2.506-2.031-4.535-4.535-4.535h-114.273c-2.503 0-4.535 2.028-4.535 4.535v94.116c0 2.506 2.031 4.535 4.535 4.535h114.273c2.503 0 4.535-2.028 4.535-4.535v-94.116zM906.707 523.131c0-2.506-2.031-4.535-4.535-4.535h-114.273c-2.503 0-4.535 2.028-4.535 4.535v94.113c0 2.506 2.031 4.535 4.535 4.535h114.273c2.503 0 4.535-2.028 4.535-4.535v-94.113zM483.169 735.888v-21.101c-36.872-9.737-59.451-35.663-59.451-68.976 0-58.447 50.152-73.635 83.339-83.686 35.705-10.813 42.9-15.708 42.788-29.16 0-14.876-24.55-18.846-39.054-18.846-17.812 0-37.833 8.017-48.692 19.495-1.602 1.696-3.818 2.687-6.155 2.751-2.331 0.063-4.598-0.798-6.288-2.403l-25.596-24.211c-3.531-3.346-3.685-8.918-0.342-12.452 14.903-15.75 36.264-27.479 59.451-32.809v-20.1c0-4.861 3.945-8.806 8.803-8.806h35.23c4.864 0 8.803 3.945 8.803 8.806v19.142c40.778 7.618 66.685 34.193 66.679 69.212 0.466 55.491-48.145 70.216-80.31 79.956-37.682 11.412-45.814 17.292-45.814 33.114 0 16.061 25.69 20.348 40.871 20.348 14.432 0 31.615-4.589 41.781-11.158 4.093-2.639 9.535-1.469 12.177 2.615l19.118 29.589c2.639 4.084 1.466 9.538-2.618 12.177-14.136 9.133-32.688 15.632-51.884 18.289v18.22c0 4.864-3.939 8.806-8.803 8.806h-35.23c-4.858-0.006-8.803-3.948-8.803-8.812z" />
<glyph unicode="&#xe837;" glyph-name="edif-banco2" d="M51.114 755.114h68.354v-136.532h-68.354v136.532zM51.114 345.557h68.354v-136.534h-68.354v136.534zM85.377 960v-136.532h68.182v-273.025h-68.182v-136.534h68.182v-273.025h-68.182v-136.532h136.532v-68.352h136.534v68.352h341.205v-68.352h136.704v68.352h136.534v955.648h-887.509zM529.023 379.648c-94.165 0-170.625 76.46-170.625 170.795 0 94.165 76.46 170.625 170.625 170.625 94.337 0 170.625-76.458 170.625-170.625 0.002-94.38-76.245-170.795-170.625-170.795zM870.443 755.114h-78.848c-11.733-20.011-32.684-34.091-57.686-34.091-37.804 0-68.354 30.55-68.354 68.354 0 37.63 30.548 68.182 68.354 68.182 25.002 0 45.951-14.080 57.686-34.091h78.848v-68.354zM529.023 652.886c56.578 0 102.443-45.865 102.443-102.443s-45.865-102.443-102.443-102.443-102.443 45.867-102.443 102.443 45.865 102.443 102.443 102.443z" />
<glyph unicode="&#xe838;" glyph-name="edif-casa" d="M1011.172 459.992c18.562 20.415 16.77 51.705-4.002 69.87l-457.639 400.437c-20.772 18.165-54.075 17.785-74.41-0.858l-459.195-420.928c-20.335-18.643-21.333-49.893-2.21-69.77l11.513-11.99c19.1-19.878 49.973-22.248 68.912-5.277l34.318 30.733v-449.932c0-27.605 22.368-49.953 49.953-49.953h178.995c27.585 0 49.953 22.348 49.953 49.953v314.771h228.311v-314.771c-0.397-27.585 19.34-49.933 46.925-49.933h189.69c27.585 0 49.953 22.348 49.953 49.953v443.577c0 0 9.48-8.305 21.173-18.582 11.673-10.258 36.19-2.033 54.753 18.402l13.008 14.3z" />
<glyph unicode="&#xe839;" glyph-name="edif-casa2" d="M841.143 393.143v-274.286q0-14.857-10.857-25.714t-25.714-10.857h-219.429v219.429h-146.286v-219.429h-219.429q-14.857 0-25.714 10.857t-10.857 25.714v274.286q0 0.571 0.286 1.714t0.286 1.714l328.571 270.857 328.571-270.857q0.571-1.143 0.571-3.429zM968.571 432.571l-35.429-42.286q-4.571-5.143-12-6.286h-1.714q-7.429 0-12 4l-395.429 329.714-395.429-329.714q-6.857-4.571-13.714-4-7.429 1.143-12 6.286l-35.429 42.286q-4.571 5.714-4 13.429t6.286 12.286l410.857 342.286q18.286 14.857 43.429 14.857t43.429-14.857l139.429-116.571v111.429q0 8 5.143 13.143t13.143 5.143h109.714q8 0 13.143-5.143t5.143-13.143v-233.143l125.143-104q5.714-4.571 6.286-12.286t-4-13.429z" />
<glyph unicode="&#xe83a;" glyph-name="edif-casa3" d="M766.976 573.952c0 6.144-2.389 10.923-7.168 14.336l-235.52 182.272c-6.827 5.461-14.336 5.461-22.528 0l-227.328-182.272c-4.096-3.413-6.144-8.192-6.144-14.336v-328.704c0-5.466 1.707-9.899 5.12-13.312s7.509-5.125 12.288-5.125h135.168c5.461 0 9.899 1.708 13.312 5.125 3.413 3.413 5.12 7.846 5.12 13.312v201.726h155.648v-201.725c0-5.466 1.707-9.899 5.12-13.312s7.851-5.125 13.312-5.125h135.168c5.461 0 9.899 1.708 13.312 5.125s5.12 7.846 5.12 13.312v328.702zM512 960c70.315 0 136.704-13.483 199.168-40.448s116.736-63.488 162.816-109.568 82.603-100.352 109.568-162.816 40.448-128.853 40.448-199.168c0-47.104-6.144-92.501-18.432-136.192-12.293-43.686-29.525-84.475-51.712-122.368-22.187-37.888-48.811-72.363-79.872-103.424-31.058-31.061-65.536-57.69-103.424-79.872-37.891-22.187-78.677-39.424-122.371-51.712-43.687-12.288-89.085-18.432-136.189-18.432s-92.501 6.144-136.192 18.432c-43.691 12.293-84.48 29.525-122.368 51.712s-72.363 48.811-103.424 79.872c-31.061 31.058-57.685 65.536-79.872 103.424-22.187 37.891-39.424 78.677-51.712 122.37-12.288 43.689-18.432 89.086-18.432 136.19s6.144 92.501 18.432 136.192 29.525 84.48 51.712 122.368 48.811 72.363 79.872 103.424 65.536 57.685 103.424 79.872 78.677 39.424 122.368 51.712 89.088 18.432 136.192 18.432z" />
<glyph unicode="&#xe83b;" glyph-name="edif-casa4" d="M44.16 466.944l425.216 16.864 258.72 298.848 247.296-370.528 48.608 6.976-290.88 413.12-297.056-55.008v52.8l-24.48 5.056-73.728-15.584v-60.448l-99.040-18.368-238.816-216.928v-57.12c0-0.032 24.416 0.608 44.16 0.32zM726.464 757.056l-249.728-288.512-407.776-16.224v-346.24l374.656-45.12 234.208 27.328v269.76l107.776 0.16v-257.312l172.672 21.152v287.68l-231.808 347.328zM228.032 214.112l-108.576 7.008v138.56l108.576-0.064v-145.504zM411.584 203.040l-126.24 8.096v149.12l126.24-0.032v-157.184zM624.672 209.504l-133.28-8.736v158.080l133.28 0.096v-149.44zM927.072 228.448l-100.64-6.624v136.8l100.64 0.128v-130.304z" />
<glyph unicode="&#xe83c;" glyph-name="edif-castillo" d="M304.371 575.26v153.121c0 11.443-9.362 20.805-20.805 20.805h-19.244c-11.443 0-20.805-9.362-20.805-20.805v-40.049h-56.692v40.049c0 10.922-8.322 19.764-19.036 20.701v55.964l121.395 39.217c8.634 2.809 9.57 14.667 1.456 18.724l-139.39 69.799c-6.761 3.329-14.667-1.56-14.667-9.050v-174.55c-10.61-0.936-19.036-9.882-19.036-20.701v-40.049h-56.692v40.049c0 11.443-9.362 20.805-20.805 20.805h-19.244c-11.443 0-20.805-9.362-20.805-20.805v-153.121c0-5.513 2.184-10.818 6.137-14.667l48.683-48.683c3.953-3.953 6.137-9.154 6.137-14.667v-514.289c0-11.443 9.362-20.805 20.805-20.805h160.715l1.040 535.093c0 5.513 2.184 10.817 6.137 14.667l48.683 48.683c3.849 3.745 6.033 9.049 6.033 14.563zM147.712 262.256h-10.402c-8.634 0-15.603 6.97-15.603 15.603v75.729c0 16.852 13.627 30.479 30.479 30.479 1.768 0 3.537-0.208 5.201-0.415 14.355-2.497 25.278-14.876 25.278-29.96v-75.729c0-8.634-6.97-15.603-15.603-15.603h-19.348v-0.104zM1002.986 749.185h-19.244c-11.443 0-20.805-9.362-20.805-20.805v-40.049h-56.692v40.049c0 11.13-8.736 20.18-19.658 20.701v55.86l121.394 39.218c8.635 2.809 9.569 14.667 1.456 18.724l-139.39 69.799c-6.761 3.329-14.667-1.56-14.667-9.050v-174.55c-10.298-1.248-18.31-9.986-18.31-20.597v-40.049h-56.796v40.049c0 11.443-9.362 20.805-20.805 20.805h-19.244c-11.443 0-20.805-9.362-20.805-20.805v-153.121c0-5.513 2.184-10.818 6.137-14.667l48.684-48.683c3.952-3.953 6.135-9.154 6.135-14.667l1.040-535.093h160.821c11.443 0 20.805 9.362 20.805 20.805v514.080c0 5.513 2.184 10.818 6.135 14.667l48.684 48.683c3.954 3.953 6.137 9.154 6.137 14.667v153.226c-0.207 11.545-9.569 20.804-21.012 20.804zM902.084 277.859c0-8.634-6.968-15.603-15.603-15.603h-29.646c-8.633 0-15.603 6.97-15.603 15.603v75.729c0 15.083 10.922 27.566 25.279 29.959 1.664 0.312 3.434 0.416 5.201 0.416 16.851 0 30.48-13.523 30.48-30.479v-75.625h-0.106zM694.456 446.896c0 11.443-9.362 20.805-20.805 20.805h-80.098c-11.443 0-20.805-9.362-20.805-20.805v-40.049h-121.707v40.049c0 11.443-9.362 20.805-20.805 20.805h-80.098c-11.443 0-20.805-9.362-20.805-20.805l-0.104-40.674-45.146-0.104v-443.969h85.299c11.443 0 20.805 9.362 20.805 20.805v100.902c0 67.303 54.508 121.707 121.707 121.707s121.707-54.404 121.707-121.707v-100.902c0-11.443 9.362-20.805 20.805-20.805h82.178v443.969l-42.025 0.104-0.104 40.674z" />
<glyph unicode="&#xe83d;" glyph-name="edif-castillo2" d="M818.461 635.622l99.705 159.563c3.831 6.108 5.634 13.162 5.634 20.396v106.466c0 21.253-16.79 37.953-38.065 37.953h-101.282c-21.253 0-39.192-16.7-39.192-37.953v-57.154c0-8.722-6.333-16.046-15.055-16.046h-102.139c-8.722 0-15.866 7.325-15.866 16.046v57.154c0 21.253-17.151 37.953-38.426 37.953h-123.594c-21.253 0-38.426-16.7-38.426-37.953v-57.154c0-8.722-7.122-16.046-15.844-16.046h-102.139c-8.722 0-15.077 7.325-15.077 16.046v57.154c0.023 21.253-17.895 37.953-39.17 37.953h-101.282c-21.253 0-38.043-16.7-38.043-37.953v-106.466c0-7.212 1.803-14.289 5.634-20.396l99.682-159.563c3.831-6.108 5.837-13.162 5.837-20.374v-435.126c0-13.522-7.189-26.030-18.773-32.994l-73.877-44.421c-11.584-6.964-18.503-19.472-18.503-33.017v-95.693c0-21.275 16.768-37.998 38.043-37.998h747.491c21.23 0 38.043 16.7 38.043 37.998v95.693c0 13.545-6.874 26.053-18.435 33.017l-74.080 44.398c-11.584 6.987-18.661 19.472-18.661 32.994v435.148c0.023 7.189 2.028 14.266 5.86 20.374zM612.178 409.506c0-15.663-12.621-28.87-28.284-28.87h-143.81c-15.663 0-28.307 13.207-28.307 28.87v123.571c0 54.472 44.105 98.465 98.578 98.465h3.268c54.495 0 98.555-43.993 98.555-98.465v-123.571z" />
<glyph unicode="&#xe83e;" glyph-name="edif-ciudad" d="M752.821 312.081h-22.207v-132.717c5.506 2.244 11.215 3.808 16.99 5.066v78.751c30.737 7.784 55.441 30.549 65.89 60.133-11.995 5.231-23.090 12.113-32.996 20.405-2.514-15.021-10.025-31.638-27.678-31.638zM696.631 264.32v-74.318c6.048-3.738 11.741-8.070 16.99-12.948v152.019h-12.624c-1.649 0-2.973 0.254-4.367 0.458-7.034 1-11.214 4.145-13.422 6.967-4.502 5.76-4.026 12.607-3.568 15.462v28.086c0 4.689 3.806 8.495 8.495 8.495s8.495-3.808 8.495-8.495l-0.256-31.365c-0.119-0.663-0.034-2.617 0.238-2.617h0.020c0.203 0 1.411 0 4.383 0h12.607v33.982c0 1.173 0.238 2.294 0.663 3.314 1.292 3.042 4.298 5.183 7.832 5.183 4.689 0 8.495-3.808 8.495-8.495v-50.974h22.207c9.654 0 11.777 21.374 11.777 26.676v3.754c-6.816 7.918-12.726 16.601-17.585 25.928-1.732 3.33-3.399 6.709-4.86 10.194-6.777 16.159-10.535 33.879-10.535 52.45 0 0.357 0.052 0.714 0.052 1.070-2.429 0.187-4.86 0.373-7.322 0.373-52.282 0-94.673-42.39-94.673-94.671-0.018-42.648 28.188-78.685 66.96-90.528zM276.769 145.825c19.778 23.653 49.273 36.836 81.114 36.836 18.062 0 35.036-4.757 49.902-13.049v652.199h-186.9v-638.335c22.122-6.302 41.711-19.641 55.883-37.651zM271.857 278.099h16.99v-33.982h-16.99v33.982zM271.857 329.073h16.99v-33.982h-16.99v33.982zM271.857 380.045h16.99v-33.982h-16.99v33.982zM271.857 431.019h16.99v-33.982h-16.99v33.982zM271.857 481.991h16.99v-33.982h-16.99v33.982zM271.857 532.965h16.99v-33.982h-16.99v33.982zM271.857 583.937h16.99v-33.982h-16.99v33.982zM271.857 634.909h16.99v-33.982h-16.99v33.982zM271.857 685.883h16.99v-33.982h-16.99v33.982zM356.811 651.901h-16.99v33.982h16.99v-33.982zM356.811 600.929h-16.99v33.982h16.99v-33.982zM356.811 549.955h-16.99v33.982h16.99v-33.982zM356.811 498.981h-16.99v33.982h16.99v-33.982zM356.811 448.009h-16.99v33.982h16.99v-33.982zM356.811 397.037h-16.99v33.982h16.99v-33.982zM356.811 346.063h-16.99v33.982h16.99v-33.982zM356.811 295.091h-16.99v33.982h16.99v-33.982zM356.811 244.117h-16.99v33.982h16.99v-33.982zM305.839 278.099h16.99v-33.982h-16.99v33.982zM305.839 329.073h16.99v-33.982h-16.99v33.982zM305.839 380.045h16.99v-33.982h-16.99v33.982zM305.839 431.019h16.99v-33.982h-16.99v33.982zM305.839 481.991h16.99v-33.982h-16.99v33.982zM305.839 532.965h16.99v-33.982h-16.99v33.982zM305.839 583.937h16.99v-33.982h-16.99v33.982zM305.839 634.909h16.99v-33.982h-16.99v33.982zM322.829 651.901h-16.99v33.982h16.99v-33.982zM356.811 753.846v-50.974h-16.99v50.974h16.99zM322.829 753.846v-50.974h-16.99v50.974h16.99zM271.857 753.846h16.99v-50.974h-16.99v50.974zM92.024 98.895c0 26.61 10.654 47.338 26.914 62.084 5.147 4.673 10.856 8.733 16.99 12.166 1.885 1.055 3.788 2.056 5.743 3.008h-5.743v33.982h33.982v-24.79c7.527 1.427 15.19 2.226 22.854 2.226 3.754 0 7.459-0.27 11.128-0.681v261.118h-203.892v-373.801h94.096l-0.171 1.206c-1.306 7.154-1.901 17.5-1.901 23.481zM33.984 261.109h33.982v-33.982h-33.982v33.982zM33.984 312.081h33.982v-33.982h-33.982v33.982zM33.984 363.055h33.982v-33.982h-33.982v33.982zM118.938 329.073h-33.982v33.982h33.982v-33.982zM118.938 278.099h-33.982v33.982h33.982v-33.982zM84.958 261.109h33.982v-33.982h-33.982v33.982zM169.912 227.127h-33.982v33.982h33.982v-33.982zM169.912 278.099h-33.982v33.982h33.982v-33.982zM169.912 329.073h-33.982v33.982h33.982v-33.982zM169.912 380.045h-33.982v33.982h33.982v-33.982zM118.938 380.045h-33.982v33.982h33.982v-33.982zM33.984 414.027h33.982v-33.982h-33.982v33.982zM33.984 210.135h33.982v-33.982h-33.982v33.982zM84.958 210.135h33.982v-33.982h-33.982v33.982zM463.277 79.168l0.171-4.961h72.415l-0.171 1.206c-1.308 7.154-1.903 17.502-1.903 23.483 0 42.511 24.943 79.209 60.894 96.525v354.533h-169.91v-392.135c22.449-19.048 37.196-47.269 38.504-78.652zM560.703 295.091h-16.99v16.99h16.99v-16.99zM492.739 312.081h33.982v-16.99h-33.982v16.99zM492.739 363.055h33.982v-33.982h-33.982v33.982zM492.739 414.027h33.982v-33.982h-33.982v33.982zM492.739 465.001h33.982v-33.982h-33.982v33.982zM560.703 431.019h-16.99v33.982h16.99v-33.982zM560.703 380.045h-16.99v33.982h16.99v-33.982zM560.703 329.073h-16.99v33.982h16.99v-33.982zM560.703 481.991h-16.99v33.982h16.99v-33.982zM526.721 481.991h-33.982v33.982h33.982v-33.982zM458.757 515.973h16.99v-33.982h-16.99v33.982zM458.757 465.001h16.99v-33.982h-16.99v33.982zM458.757 414.027h16.99v-33.982h-16.99v33.982zM458.757 363.055h16.99v-33.982h-16.99v33.982zM458.757 312.081h16.99v-16.99h-16.99v16.99zM458.757 278.099h101.942v-16.99h-101.946v16.99h0.004zM458.757 244.117h101.946v-16.99h-101.946v16.99zM458.757 210.135h101.946v-16.99h-101.946v16.99zM764.595 388.625c4.758-8.241 10.469-15.853 16.99-22.683 10.263-10.757 22.496-19.54 36.139-25.862 9.94-4.604 20.627-7.85 31.825-9.566v-179.101c1.667-1.835 3.364-3.619 4.911-5.572 3.671 4.401 7.783 8.308 12.081 11.96v256.221h-23.362c-20.252 0-27.61 17.603-27.61 29.428v38.536c0 4.689 3.806 8.495 8.495 8.495s8.493-3.806 8.493-8.495v-38.536c0.052-2.871 0.952-12.438 10.622-12.438h23.362v50.974c0 1.173 0.24 2.294 0.663 3.314 1.294 3.042 4.3 5.183 7.832 5.183 4.691 0 8.495-3.806 8.495-8.495v-101.946h19.996c3.772 0 6.525 1.070 8.632 3.364 5.437 5.931 5.727 18.401 5.384 22.312l-0.034 42.29c0 4.689 3.806 8.495 8.495 8.495s8.495-3.808 8.495-8.495v-41.56c0.171-1.581 1.544-22.139-9.838-34.543-5.336-5.794-12.642-8.852-21.137-8.852h-19.998v-193.561c5.419 2.973 11.079 5.538 16.99 7.511v156.674c49.785 14.272 86.265 60.027 86.265 114.4 0 65.771-53.317 119.091-119.091 119.091s-119.089-53.317-119.089-119.091c0-0.629 0.085-1.224 0.085-1.851 0.329-20.965 6.087-40.59 15.908-57.598zM424.775 74.207h21.528c-0.865 22.241-8.989 41.798-21.528 57.090-5.028 6.134-10.602 11.69-16.99 16.226-14.204 10.094-31.315 16.039-49.902 16.039-36.581 0-67.964-17.909-81.557-49.511-9.888 24.519-30.194 43.65-55.441 51.976-5.437 1.803-11.146 2.973-16.99 3.705-3.653 0.46-7.34 0.851-11.128 0.851-19.439 0-40.626-6.711-56.836-19.76-3.244-2.617-6.253-5.522-9.039-8.648-10.823-12.113-17.875-27.967-17.875-47.523 0-5.538 0.681-3.447 1.631-20.441l314.126-0.004zM935.576 163.547c-12.488 0-24.28-2.244-35.053-6.235-6.047-2.244-11.724-5.098-16.99-8.513-6.338-4.129-12.081-9.005-16.99-14.749-5.030-5.88-9.311-12.523-12.525-19.998-1.274 3.145-2.87 6.118-4.469 9.073-15.242 28.188-44.805 47.456-79.092 47.456-7.969 0-15.547-1.377-22.854-3.381-5.929-1.613-11.605-3.738-16.99-6.491-5.643-2.87-11.079-6.1-16.007-10.025-0.306 0.425-0.681 0.816-0.986 1.24-4.842 6.61-10.585 12.486-16.99 17.569-15.325 12.166-34.579 19.574-55.663 19.574-16.94 0-32.743-5.251-46.283-14.033-26.269-17.026-43.907-47.541-43.907-80.402 0-5.538 0.682-3.449 1.631-20.441h471.586c-1.967 50.992-40.638 89.357-88.417 89.357z" />
<glyph unicode="&#xe83f;" glyph-name="edif-ciudad2" d="M252.305 760.039v-759.861h212.714v759.861h-212.714zM426.179 197.195h-133.926c-6.452 0-11.647 5.214-11.647 11.647s5.195 11.647 11.647 11.647h133.926c6.452 0 11.647-5.214 11.647-11.647 0.019-6.452-5.195-11.647-11.647-11.647zM426.179 267.056h-133.926c-6.452 0-11.647 5.214-11.647 11.647 0 6.452 5.195 11.665 11.647 11.665h133.926c6.452 0 11.647-5.214 11.647-11.665 0.019-6.452-5.195-11.647-11.647-11.647zM426.179 336.898h-133.926c-6.452 0-11.647 5.233-11.647 11.684 0 6.414 5.195 11.628 11.647 11.628h133.926c6.452 0 11.647-5.214 11.647-11.628 0.019-6.433-5.195-11.684-11.647-11.684zM426.179 406.815h-133.926c-6.452 0-11.647 5.176-11.647 11.628 0 6.414 5.195 11.647 11.647 11.647h133.926c6.452 0 11.647-5.233 11.647-11.647 0.019-6.452-5.195-11.628-11.647-11.628zM426.179 476.657h-133.926c-6.452 0-11.647 5.214-11.647 11.647 0 6.452 5.195 11.665 11.647 11.665h133.926c6.452 0 11.647-5.214 11.647-11.665 0.019-6.433-5.195-11.647-11.647-11.647zM426.179 546.537h-133.926c-6.452 0-11.647 5.214-11.647 11.647 0 6.414 5.195 11.647 11.647 11.647h133.926c6.452 0 11.647-5.214 11.647-11.647 0.019-6.433-5.195-11.647-11.647-11.647zM426.179 616.397h-133.926c-6.452 0-11.647 5.214-11.647 11.647s5.195 11.647 11.647 11.647h133.926c6.452 0 11.647-5.214 11.647-11.647s-5.195-11.647-11.647-11.647zM426.179 686.277h-133.926c-6.452 0-11.647 5.214-11.647 11.647 0 6.452 5.195 11.647 11.647 11.647h133.926c6.452 0 11.647-5.214 11.647-11.647 0.019-6.452-5.195-11.647-11.647-11.647zM811.286 895.859v-895.719h39.403v197.542h55.87v-197.486h22.149v197.486h55.87v-197.486h39.422v895.662h-212.714zM897.257 319.456h-46.568c-6.452 0-11.665 5.195-11.665 11.665 0 6.414 5.214 11.628 11.665 11.628h46.568c6.452 0 11.628-5.214 11.628-11.628 0-6.47-5.176-11.665-11.628-11.665zM897.257 389.336h-46.568c-6.452 0-11.665 5.214-11.665 11.628 0 6.452 5.214 11.684 11.665 11.684h46.568c6.452 0 11.628-5.233 11.628-11.684s-5.176-11.628-11.628-11.628zM897.257 459.196h-46.568c-6.452 0-11.665 5.214-11.665 11.665 0 6.433 5.214 11.647 11.665 11.647h46.568c6.452 0 11.628-5.214 11.628-11.647 0-6.47-5.176-11.665-11.628-11.665zM897.257 529.076h-46.568c-6.452 0-11.665 5.214-11.665 11.647s5.214 11.647 11.665 11.647h46.568c6.452 0 11.628-5.214 11.628-11.647s-5.176-11.647-11.628-11.647zM897.257 598.937h-46.568c-6.452 0-11.665 5.214-11.665 11.647 0 6.452 5.214 11.647 11.665 11.647h46.568c6.452 0 11.628-5.214 11.628-11.647s-5.176-11.647-11.628-11.647zM897.257 668.816h-46.568c-6.452 0-11.665 5.214-11.665 11.647s5.214 11.647 11.665 11.647h46.568c6.452 0 11.628-5.214 11.628-11.647 0-6.452-5.176-11.647-11.628-11.647zM897.257 738.677h-46.568c-6.452 0-11.665 5.214-11.665 11.647 0 6.452 5.214 11.647 11.665 11.647h46.568c6.452 0 11.628-5.214 11.628-11.647s-5.176-11.647-11.628-11.647zM897.257 808.557h-46.568c-6.452 0-11.665 5.214-11.665 11.628 0 6.452 5.214 11.647 11.665 11.647h46.568c6.452 0 11.628-5.214 11.628-11.647s-5.176-11.628-11.628-11.628zM984.578 319.456h-46.568c-6.47 0-11.665 5.195-11.665 11.665 0 6.414 5.195 11.628 11.665 11.628h46.568c6.414 0 11.647-5.214 11.647-11.628 0-6.47-5.233-11.665-11.647-11.665zM984.578 389.336h-46.568c-6.47 0-11.665 5.214-11.665 11.628 0 6.452 5.195 11.684 11.665 11.684h46.568c6.414 0 11.647-5.233 11.647-11.684s-5.233-11.628-11.647-11.628zM984.578 459.196h-46.568c-6.47 0-11.665 5.214-11.665 11.665 0 6.433 5.195 11.647 11.665 11.647h46.568c6.414 0 11.647-5.214 11.647-11.647 0-6.47-5.233-11.665-11.647-11.665zM984.578 529.076h-46.568c-6.47 0-11.665 5.214-11.665 11.647s5.195 11.647 11.665 11.647h46.568c6.414 0 11.647-5.214 11.647-11.647s-5.233-11.647-11.647-11.647zM984.578 598.937h-46.568c-6.47 0-11.665 5.214-11.665 11.647 0 6.452 5.195 11.647 11.665 11.647h46.568c6.414 0 11.647-5.214 11.647-11.647s-5.233-11.647-11.647-11.647zM984.578 668.816h-46.568c-6.47 0-11.665 5.214-11.665 11.647s5.195 11.647 11.665 11.647h46.568c6.414 0 11.647-5.214 11.647-11.647 0-6.452-5.233-11.647-11.647-11.647zM984.578 738.677h-46.568c-6.47 0-11.665 5.214-11.665 11.647 0 6.452 5.195 11.647 11.665 11.647h46.568c6.414 0 11.647-5.214 11.647-11.647s-5.233-11.647-11.647-11.647zM984.578 808.557h-46.568c-6.47 0-11.665 5.214-11.665 11.628 0 6.452 5.195 11.647 11.665 11.647h46.568c6.414 0 11.647-5.214 11.647-11.647s-5.233-11.628-11.647-11.628zM688.181 611.071c0 17.948-27.363 32.502-61.121 32.502-33.796 0-61.159-14.554-61.159-32.502v-32.502c0 0-16.298 0-36.384 0s-36.365-34.096-36.365-76.181v-76.181h267.834c0 0 0 34.115 0 76.181 0 42.085-16.298 76.181-36.403 76.181h-36.346c-0.056 0-0.056 14.554-0.056 32.502zM679.46 471.331h-104.801c0 0 0 16.185 0 36.159 0 19.955 23.462 36.159 52.419 36.159 28.92 0 52.382-16.166 52.382-36.159v-36.159zM493.152 395.15v-394.971h26.181v261.064c0 25.694 20.874 46.549 46.568 46.549 25.731 0 46.605-20.836 46.605-46.549v-261.064h29.088v261.064c0 25.694 20.836 46.549 46.568 46.549 25.713 0 46.586-20.836 46.586-46.549v-261.064h26.2v394.971h-267.797zM106.357 372.85c-58.739 0-106.357-52.156-106.357-116.503v-256.169h212.733v256.169c-0.019 64.347-47.637 116.503-106.376 116.503zM66.635 46.783h-36.403v59.677h36.403v-59.677zM66.635 137.968h-36.403v59.715h36.403v-59.715zM66.635 229.19h-36.403v59.677h36.403v-59.677zM124.549 46.783h-36.384v59.677h36.384v-59.677zM124.549 137.968h-36.384v59.715h36.384v-59.715zM124.549 229.19h-36.384v59.677h36.384v-59.677zM182.445 46.783h-36.384v59.677h36.384v-59.677zM182.445 137.968h-36.384v59.715h36.384v-59.715zM182.445 229.19h-36.384v59.677h36.384v-59.677z" />
<glyph unicode="&#xe840;" glyph-name="edif-colegio" d="M964.777 38.37v462.724c0 24.151-19.574 43.73-43.725 43.73h-207.647v125.899c0 11.891-6.444 22.851-16.822 28.641l-168.602 94.026c-0.929 0.52-1.889 0.975-2.854 1.395v53.658h90.791c7.242 0 13.117 5.875 13.117 13.12v66.268c0 7.245-5.875 13.12-13.117 13.12h-90.791v5.929c0 7.245-5.87 13.12-13.117 13.12s-13.117-5.875-13.117-13.12v-152.095c-0.965-0.422-1.925-0.878-2.857-1.395l-168.602-94.029c-10.389-5.788-16.827-16.75-16.827-28.641v-125.896h-207.652c-24.151 0-43.725-19.579-43.725-43.73v-462.721c-18.578-8.407-31.509-27.093-31.509-48.804 0-29.589 23.982-53.568 53.566-53.568h861.432c29.583 0 53.566 23.98 53.566 53.568-0.003 21.711-12.931 40.397-31.506 48.801zM795.755 392.406c0 14.067 11.405 25.472 25.482 25.472h47.629c14.065 0 25.472-11.405 25.472-25.472v-47.634c0-14.067-11.407-25.472-25.472-25.472h-47.626c-14.077 0-25.482 11.405-25.482 25.472v47.634h-0.003zM795.755 239.358c0 14.067 11.405 25.472 25.482 25.472h47.629c14.065 0 25.472-11.405 25.472-25.472v-47.629c0-14.067-11.407-25.472-25.472-25.472h-47.626c-14.077 0-25.482 11.405-25.482 25.472v47.629h-0.003zM642.715 392.406c0 14.067 11.4 25.472 25.467 25.472h47.634c14.060 0 25.47-11.405 25.47-25.472v-47.634c0-14.067-11.41-25.472-25.47-25.472h-47.634c-14.067 0-25.467 11.405-25.467 25.472v47.634zM642.715 239.358c0 14.067 11.4 25.472 25.467 25.472h47.634c14.060 0 25.47-11.405 25.47-25.472v-47.629c0-14.067-11.41-25.472-25.47-25.472h-47.634c-14.067 0-25.467 11.405-25.467 25.472v47.629zM512.001 670.619c39.849 0 72.154-32.302 72.154-72.151s-32.302-72.149-72.154-72.149c-39.849 0-72.151 32.302-72.151 72.151s32.302 72.149 72.151 72.149zM439.75 256.418c0 14.067 11.402 25.472 25.48 25.472h93.545c14.070 0 25.472-11.405 25.472-25.472v-200.679c0-4.593-1.226-8.896-3.359-12.618h-137.764c-2.132 3.722-3.366 8.026-3.366 12.618l-0.008 200.679zM282.712 392.406c0 14.067 11.402 25.472 25.47 25.472h47.631c14.067 0 25.47-11.405 25.47-25.472v-47.634c0-14.067-11.402-25.472-25.47-25.472h-47.631c-14.067 0-25.47 11.405-25.47 25.472v47.634zM282.712 239.358c0 14.067 11.402 25.472 25.47 25.472h47.631c14.067 0 25.47-11.405 25.47-25.472v-47.629c0-14.067-11.402-25.472-25.47-25.472h-47.631c-14.067 0-25.47 11.405-25.47 25.472v47.629zM129.657 392.406c0 14.067 11.402 25.472 25.477 25.472h47.626c14.072 0 25.477-11.405 25.477-25.472v-47.634c0-14.067-11.405-25.472-25.477-25.472h-47.624c-14.075 0-25.477 11.405-25.477 25.472v47.634zM129.657 239.358c0 14.067 11.402 25.472 25.477 25.472h47.626c14.072 0 25.477-11.405 25.477-25.472v-47.629c0-14.067-11.405-25.472-25.477-25.472h-47.624c-14.075 0-25.477 11.405-25.477 25.472v47.629z" />
<glyph unicode="&#xe841;" glyph-name="edif-colegio2" d="M906.667 16.595h-42.667v507.257c0 21.333-18.963 40.296-40.296 40.296h-82.965c-18.963 87.704-94.815 154.074-192 170.667v30.815h135.111c21.335 0 40.298 16.593 40.298 40.296v87.704c0 21.333-18.963 40.296-40.298 40.296h-137.48c-4.741 14.222-18.963 26.074-37.928 26.074-21.333 0-40.296-18.963-40.296-40.296v-184.889c-97.185-14.222-175.407-82.963-192-170.667h-82.963c-21.333 0-40.296-18.963-40.296-40.296v-507.257h-37.926c-21.333 0-40.296-16.593-40.296-40.298s18.963-40.296 40.296-40.296h794.074c21.335 0 40.298 18.963 40.298 40.296 0 21.335-18.963 40.298-42.667 40.298zM446.815 483.556h128v-90.074h-128v90.074zM446.815 137.481h128v-90.074h-128v90.074zM653.037 137.481h130.368v-90.074h-130.368v90.074zM785.778 218.076h-132.741v97.185h130.368v-97.185h2.372zM574.813 315.259v-97.185h-128v97.185h128zM368.593 218.076h-130.37v97.185h130.37v-97.185zM235.852 137.481h132.741v-90.074h-130.37v90.074h-2.37zM785.778 393.481h-132.741v90.074h130.368v-90.074h2.372zM235.852 483.556h132.741v-90.074h-130.37v90.074h-2.37z" />
<glyph unicode="&#xe842;" glyph-name="edif-colegio3" d="M993.714 152.51v0 209.895l-27.607 165.505h-263.004l85.445-63.906v-101.244l-55.159 40.809v-20.090h-16.373v-230.915h-17.056v253.027h16.373v30.395h-25.284l-191.718 141.096-185.158-144.513h-22.441v-30.45h18.45v-249.583h-17.986v227.471h-18.45v12.737l-39.196-32.554v103.294l78.53 64.398h-272.024l-27.607-165.505v-209.868h-13.448v-79.322h1024v79.322h-30.286zM134.755 193.456h-91.486v50.075h91.486v-50.075zM134.755 273.434h-91.486v50.021h91.486v-50.021zM172.694 193.456v50.075h91.458v-50.075h-91.458zM172.721 273.434v50.021h91.458v-50.021h-91.458zM502.83 515.063c20.036 0 36.244-16.264 36.244-36.244s-16.209-36.244-36.244-36.244c-20.008 0-36.244 16.264-36.244 36.244s16.236 36.244 36.244 36.244zM650.103 152.564h-20.090v228.455h-259.861v-228.455h-18.204v249.583h17.494v11.753h269.291v-8.309h11.371v-253.027zM825.093 198.649h-91.458v50.075h91.458v-50.075zM825.093 278.654h-91.458v50.021h91.458v-50.021zM954.518 198.649h-91.458v50.075h91.458v-50.075zM954.518 278.654h-91.458v50.021h91.458v-50.021zM500.069 662.747h-5.576v149.378h11.671v-2.843c12.792-5.576 43.761-16.154 61.2 2.761 22.332 24.19 61.446 0 61.446 0v-68.935c0 0-31.652 26.049-61.446 0-22.66-19.79-49.583-9.485-61.2-3.389v-76.972h-6.041l271.368-202.952v-57.701l-274.484 203.007-244.499-203.007v57.701l247.561 202.952z" />
<glyph unicode="&#xe843;" glyph-name="edif-edificio" d="M1009.331 84.185c0 0-9.546 0-12.726 0-6.968 0-6.968 8.247-6.968 8.247v576.856c0 14.522-11.884 26.403-26.403 26.403 0 0-153.195 0-204.26 0-7.334 0-6.944 6.953-6.944 6.953v111.205c0 1.1 0.619 2.335 4.269 2.335 8.068 0 14.669 6.601 14.669 14.669v26.054c0 8.068-6.601 14.669-14.669 14.669h-474.281c-8.068 0-14.669-6.601-14.669-14.669v-26.054c0-8.068 6.601-14.669 14.669-14.669 4.263 0 4.271-3.82 4.271-4.263v-106.714c0 0 0.725-9.52-5.51-9.52-55.151 0-220.595 0-220.595 0-14.522 0-26.403-11.882-26.403-26.403 0 0 0-434.016 0-578.689 0-5.501-2.981-6.413-9.001-6.413-7.786 0-10.113 0-10.113 0-8.068 0-14.669-6.601-14.669-14.669v-30.42c0-8.068 6.601-14.669 14.669-14.669h994.663c8.068 0 14.669 6.601 14.669 14.669v30.42c0 8.071-6.601 14.671-14.669 14.671zM575.227 569.203h87.788c6.457 0 11.735-5.281 11.735-11.735v-87.791c0-6.454-5.278-11.735-11.735-11.735h-87.788c-6.457 0-11.735 5.281-11.735 11.735v87.791c0 6.454 5.278 11.735 11.735 11.735zM563.492 623.659v87.791c0 6.454 5.278 11.735 11.735 11.735h87.788c6.457 0 11.735-5.281 11.735-11.735v-87.791c0-6.454-5.278-11.735-11.735-11.735h-87.788c-6.457 0-11.735 5.281-11.735 11.735zM575.227 420.649h87.788c6.457 0 11.735-5.281 11.735-11.735v-87.791c0-6.454-5.278-11.735-11.735-11.735h-87.788c-6.457 0-11.735 5.281-11.735 11.735v87.791c0 6.451 5.278 11.735 11.735 11.735zM588.256 244.151c6.451 0 11.735-5.281 11.735-11.735v-135.933c0-6.454-5.284-11.735-11.735-11.735h-135.933c-6.451 0-11.735 5.281-11.735 11.735v135.933c0 6.454 5.284 11.735 11.735 11.735h135.933zM474.977 623.659c0-6.454-5.281-11.735-11.735-11.735h-87.791c-6.454 0-11.735 5.281-11.735 11.735v87.791c0 6.454 5.281 11.735 11.735 11.735h87.791c6.454 0 11.735-5.281 11.735-11.735v-87.791zM375.45 569.203h87.791c6.454 0 11.735-5.281 11.735-11.735v-87.791c0-6.454-5.281-11.735-11.735-11.735h-87.791c-6.454 0-11.735 5.281-11.735 11.735v87.791c0 6.454 5.281 11.735 11.735 11.735zM375.45 420.649h87.791c6.454 0 11.735-5.281 11.735-11.735v-87.791c0-6.454-5.281-11.735-11.735-11.735h-87.791c-6.454 0-11.735 5.281-11.735 11.735v87.791c0 6.451 5.281 11.735 11.735 11.735zM786.592 560.182c0 6.454 5.284 11.735 11.735 11.735h87.794c6.451 0 11.735-5.281 11.735-11.735v-87.791c0-6.454-5.284-11.735-11.735-11.735h-87.794c-6.451 0-11.735 5.281-11.735 11.735v87.791zM786.592 406.198c0 6.454 5.284 11.735 11.735 11.735h87.794c6.451 0 11.735-5.281 11.735-11.735v-87.791c0-6.454-5.284-11.735-11.735-11.735h-87.794c-6.451 0-11.735 5.281-11.735 11.735v87.791zM786.592 257.646c0 6.454 5.284 11.735 11.735 11.735h87.794c6.451 0 11.735-5.281 11.735-11.735v-87.791c0-6.454-5.284-11.735-11.735-11.735h-87.794c-6.451 0-11.735 5.281-11.735 11.735v87.791zM125.563 560.182c0 6.454 5.281 11.735 11.735 11.735h87.791c6.454 0 11.735-5.281 11.735-11.735v-87.791c0-6.454-5.281-11.735-11.735-11.735h-87.791c-6.454 0-11.735 5.281-11.735 11.735v87.791zM125.563 406.198c0 6.454 5.281 11.735 11.735 11.735h87.791c6.454 0 11.735-5.281 11.735-11.735v-87.791c0-6.454-5.281-11.735-11.735-11.735h-87.791c-6.454 0-11.735 5.281-11.735 11.735v87.791zM125.563 257.646c0 6.454 5.281 11.735 11.735 11.735h87.791c6.454 0 11.735-5.281 11.735-11.735v-87.791c0-6.454-5.281-11.735-11.735-11.735h-87.791c-6.454 0-11.735 5.281-11.735 11.735v87.791z" />
<glyph unicode="&#xe844;" glyph-name="edif-edificio2" d="M841.143 960q14.857 0 25.714-10.857t10.857-25.714v-950.857q0-14.857-10.857-25.714t-25.714-10.857h-731.429q-14.857 0-25.714 10.857t-10.857 25.714v950.857q0 14.857 10.857 25.714t25.714 10.857h731.429zM365.714 795.429v-36.571q0-8 5.143-13.143t13.143-5.143h36.571q8 0 13.143 5.143t5.143 13.143v36.571q0 8-5.143 13.143t-13.143 5.143h-36.571q-8 0-13.143-5.143t-5.143-13.143zM365.714 649.143v-36.571q0-8 5.143-13.143t13.143-5.143h36.571q8 0 13.143 5.143t5.143 13.143v36.571q0 8-5.143 13.143t-13.143 5.143h-36.571q-8 0-13.143-5.143t-5.143-13.143zM365.714 502.857v-36.571q0-8 5.143-13.143t13.143-5.143h36.571q8 0 13.143 5.143t5.143 13.143v36.571q0 8-5.143 13.143t-13.143 5.143h-36.571q-8 0-13.143-5.143t-5.143-13.143zM365.714 356.571v-36.571q0-8 5.143-13.143t13.143-5.143h36.571q8 0 13.143 5.143t5.143 13.143v36.571q0 8-5.143 13.143t-13.143 5.143h-36.571q-8 0-13.143-5.143t-5.143-13.143zM292.571 173.714v36.571q0 8-5.143 13.143t-13.143 5.143h-36.571q-8 0-13.143-5.143t-5.143-13.143v-36.571q0-8 5.143-13.143t13.143-5.143h36.571q8 0 13.143 5.143t5.143 13.143zM292.571 320v36.571q0 8-5.143 13.143t-13.143 5.143h-36.571q-8 0-13.143-5.143t-5.143-13.143v-36.571q0-8 5.143-13.143t13.143-5.143h36.571q8 0 13.143 5.143t5.143 13.143zM292.571 466.286v36.571q0 8-5.143 13.143t-13.143 5.143h-36.571q-8 0-13.143-5.143t-5.143-13.143v-36.571q0-8 5.143-13.143t13.143-5.143h36.571q8 0 13.143 5.143t5.143 13.143zM292.571 612.571v36.571q0 8-5.143 13.143t-13.143 5.143h-36.571q-8 0-13.143-5.143t-5.143-13.143v-36.571q0-8 5.143-13.143t13.143-5.143h36.571q8 0 13.143 5.143t5.143 13.143zM292.571 758.857v36.571q0 8-5.143 13.143t-13.143 5.143h-36.571q-8 0-13.143-5.143t-5.143-13.143v-36.571q0-8 5.143-13.143t13.143-5.143h36.571q8 0 13.143 5.143t5.143 13.143zM585.143 27.429v109.714q0 8-5.143 13.143t-13.143 5.143h-182.857q-8 0-13.143-5.143t-5.143-13.143v-109.714q0-8 5.143-13.143t13.143-5.143h182.857q8 0 13.143 5.143t5.143 13.143zM585.143 320v36.571q0 8-5.143 13.143t-13.143 5.143h-36.571q-8 0-13.143-5.143t-5.143-13.143v-36.571q0-8 5.143-13.143t13.143-5.143h36.571q8 0 13.143 5.143t5.143 13.143zM585.143 466.286v36.571q0 8-5.143 13.143t-13.143 5.143h-36.571q-8 0-13.143-5.143t-5.143-13.143v-36.571q0-8 5.143-13.143t13.143-5.143h36.571q8 0 13.143 5.143t5.143 13.143zM585.143 612.571v36.571q0 8-5.143 13.143t-13.143 5.143h-36.571q-8 0-13.143-5.143t-5.143-13.143v-36.571q0-8 5.143-13.143t13.143-5.143h36.571q8 0 13.143 5.143t5.143 13.143zM585.143 758.857v36.571q0 8-5.143 13.143t-13.143 5.143h-36.571q-8 0-13.143-5.143t-5.143-13.143v-36.571q0-8 5.143-13.143t13.143-5.143h36.571q8 0 13.143 5.143t5.143 13.143zM731.429 173.714v36.571q0 8-5.143 13.143t-13.143 5.143h-36.571q-8 0-13.143-5.143t-5.143-13.143v-36.571q0-8 5.143-13.143t13.143-5.143h36.571q8 0 13.143 5.143t5.143 13.143zM731.429 320v36.571q0 8-5.143 13.143t-13.143 5.143h-36.571q-8 0-13.143-5.143t-5.143-13.143v-36.571q0-8 5.143-13.143t13.143-5.143h36.571q8 0 13.143 5.143t5.143 13.143zM731.429 466.286v36.571q0 8-5.143 13.143t-13.143 5.143h-36.571q-8 0-13.143-5.143t-5.143-13.143v-36.571q0-8 5.143-13.143t13.143-5.143h36.571q8 0 13.143 5.143t5.143 13.143zM731.429 612.571v36.571q0 8-5.143 13.143t-13.143 5.143h-36.571q-8 0-13.143-5.143t-5.143-13.143v-36.571q0-8 5.143-13.143t13.143-5.143h36.571q8 0 13.143 5.143t5.143 13.143zM731.429 758.857v36.571q0 8-5.143 13.143t-13.143 5.143h-36.571q-8 0-13.143-5.143t-5.143-13.143v-36.571q0-8 5.143-13.143t13.143-5.143h36.571q8 0 13.143 5.143t5.143 13.143z" />
<glyph unicode="&#xe845;" glyph-name="edif-edificio3" d="M329.143 210.286v-36.571q0-7.429-5.429-12.857t-12.857-5.429h-36.571q-7.429 0-12.857 5.429t-5.429 12.857v36.571q0 7.429 5.429 12.857t12.857 5.429h36.571q7.429 0 12.857-5.429t5.429-12.857zM329.143 356.571v-36.571q0-7.429-5.429-12.857t-12.857-5.429h-36.571q-7.429 0-12.857 5.429t-5.429 12.857v36.571q0 7.429 5.429 12.857t12.857 5.429h36.571q7.429 0 12.857-5.429t5.429-12.857zM475.429 356.571v-36.571q0-7.429-5.429-12.857t-12.857-5.429h-36.571q-7.429 0-12.857 5.429t-5.429 12.857v36.571q0 7.429 5.429 12.857t12.857 5.429h36.571q7.429 0 12.857-5.429t5.429-12.857zM329.143 502.857v-36.571q0-7.429-5.429-12.857t-12.857-5.429h-36.571q-7.429 0-12.857 5.429t-5.429 12.857v36.571q0 7.429 5.429 12.857t12.857 5.429h36.571q7.429 0 12.857-5.429t5.429-12.857zM768 210.286v-36.571q0-7.429-5.429-12.857t-12.857-5.429h-36.571q-7.429 0-12.857 5.429t-5.429 12.857v36.571q0 7.429 5.429 12.857t12.857 5.429h36.571q7.429 0 12.857-5.429t5.429-12.857zM621.714 356.571v-36.571q0-7.429-5.429-12.857t-12.857-5.429h-36.571q-7.429 0-12.857 5.429t-5.429 12.857v36.571q0 7.429 5.429 12.857t12.857 5.429h36.571q7.429 0 12.857-5.429t5.429-12.857zM475.429 502.857v-36.571q0-7.429-5.429-12.857t-12.857-5.429h-36.571q-7.429 0-12.857 5.429t-5.429 12.857v36.571q0 7.429 5.429 12.857t12.857 5.429h36.571q7.429 0 12.857-5.429t5.429-12.857zM329.143 649.143v-36.571q0-7.429-5.429-12.857t-12.857-5.429h-36.571q-7.429 0-12.857 5.429t-5.429 12.857v36.571q0 7.429 5.429 12.857t12.857 5.429h36.571q7.429 0 12.857-5.429t5.429-12.857zM768 356.571v-36.571q0-7.429-5.429-12.857t-12.857-5.429h-36.571q-7.429 0-12.857 5.429t-5.429 12.857v36.571q0 7.429 5.429 12.857t12.857 5.429h36.571q7.429 0 12.857-5.429t5.429-12.857zM621.714 502.857v-36.571q0-7.429-5.429-12.857t-12.857-5.429h-36.571q-7.429 0-12.857 5.429t-5.429 12.857v36.571q0 7.429 5.429 12.857t12.857 5.429h36.571q7.429 0 12.857-5.429t5.429-12.857zM475.429 649.143v-36.571q0-7.429-5.429-12.857t-12.857-5.429h-36.571q-7.429 0-12.857 5.429t-5.429 12.857v36.571q0 7.429 5.429 12.857t12.857 5.429h36.571q7.429 0 12.857-5.429t5.429-12.857zM329.143 795.429v-36.571q0-7.429-5.429-12.857t-12.857-5.429h-36.571q-7.429 0-12.857 5.429t-5.429 12.857v36.571q0 7.429 5.429 12.857t12.857 5.429h36.571q7.429 0 12.857-5.429t5.429-12.857zM768 502.857v-36.571q0-7.429-5.429-12.857t-12.857-5.429h-36.571q-7.429 0-12.857 5.429t-5.429 12.857v36.571q0 7.429 5.429 12.857t12.857 5.429h36.571q7.429 0 12.857-5.429t5.429-12.857zM621.714 649.143v-36.571q0-7.429-5.429-12.857t-12.857-5.429h-36.571q-7.429 0-12.857 5.429t-5.429 12.857v36.571q0 7.429 5.429 12.857t12.857 5.429h36.571q7.429 0 12.857-5.429t5.429-12.857zM475.429 795.429v-36.571q0-7.429-5.429-12.857t-12.857-5.429h-36.571q-7.429 0-12.857 5.429t-5.429 12.857v36.571q0 7.429 5.429 12.857t12.857 5.429h36.571q7.429 0 12.857-5.429t5.429-12.857zM768 649.143v-36.571q0-7.429-5.429-12.857t-12.857-5.429h-36.571q-7.429 0-12.857 5.429t-5.429 12.857v36.571q0 7.429 5.429 12.857t12.857 5.429h36.571q7.429 0 12.857-5.429t5.429-12.857zM621.714 795.429v-36.571q0-7.429-5.429-12.857t-12.857-5.429h-36.571q-7.429 0-12.857 5.429t-5.429 12.857v36.571q0 7.429 5.429 12.857t12.857 5.429h36.571q7.429 0 12.857-5.429t5.429-12.857zM768 795.429v-36.571q0-7.429-5.429-12.857t-12.857-5.429h-36.571q-7.429 0-12.857 5.429t-5.429 12.857v36.571q0 7.429 5.429 12.857t12.857 5.429h36.571q7.429 0 12.857-5.429t5.429-12.857zM621.714 9.143h219.429v877.714h-658.286v-877.714h219.429v128q0 7.429 5.429 12.857t12.857 5.429h182.857q7.429 0 12.857-5.429t5.429-12.857v-128zM914.286 923.429v-950.857q0-14.857-10.857-25.714t-25.714-10.857h-731.429q-14.857 0-25.714 10.857t-10.857 25.714v950.857q0 14.857 10.857 25.714t25.714 10.857h731.429q14.857 0 25.714-10.857t10.857-25.714z" />
<glyph unicode="&#xe846;" glyph-name="edif-edificio4" d="M474.991 655.787h97.016v-109.071h64.022v367.369c0 25.356-20.54 45.914-45.896 45.914h-453.092c-25.356 0-45.927-20.559-45.927-45.914v-932.175c0-25.358 20.569-45.91 45.927-45.91h163.011v298.457h126.274v249.794c0 27.133 19.966 49.658 48.651 58.454v113.079h0.014zM474.991 868.163h97.016v-137.752h-97.016v137.752zM253.809 93.649h-97.010v137.752h97.012v-137.752zM253.809 295.315h-97.010v137.762h97.012v-137.762zM253.809 518.036h-97.010v137.752h97.012v-137.752zM253.809 730.401h-97.010v137.762h97.012v-137.762zM415.607 295.315h-96.993v137.762h96.993v-137.762zM415.607 518.036h-96.993v137.752h96.993v-137.752zM415.607 730.401h-96.993v137.762h96.993v-137.762zM893.989 509.985h-383.755c-21.48 0-38.897-11.519-38.897-25.733v-522.506c0-14.233 17.416-25.746 38.897-25.746h138.074v167.295h110.867v-167.295h134.816c21.474 0 38.895 11.513 38.895 25.746v522.506c-0.002 14.214-17.422 25.733-38.897 25.733zM609.119 24.374h-82.159v77.208h82.159v-77.208zM609.119 137.411h-82.159v77.21h82.159v-77.21zM609.119 262.243h-82.159v77.208h82.159v-77.208zM609.119 381.296h-82.159v77.217h82.159v-77.217zM746.192 137.411h-82.161v77.21h82.161v-77.21zM746.192 262.243h-82.161v77.208h82.161v-77.208zM746.192 381.296h-82.161v77.217h82.161v-77.217zM878.652 22.65h-82.159v77.21h82.159v-77.21zM878.652 137.411h-82.159v77.21h82.159v-77.21zM878.652 262.243h-82.159v77.208h82.159v-77.208zM878.652 381.296h-82.159v77.217h82.159v-77.217z" />
<glyph unicode="&#xe847;" glyph-name="edif-estadio" d="M951.022 220.309l26.355 196.387c-26.355-10.231-61.163-19.461-103.643-27.356-99.195-18.571-230.75-28.802-370.534-28.802s-271.45 10.231-370.534 28.802c-42.258 7.896-76.842 17.014-103.087 27.133l26.912-196.054c1.112-6.005 5.449-14.457 10.12-18.46 35.474-29.804 111.983-65.611 261.998-81.514v162.359c0 15.347 12.455 27.801 27.801 27.801h293.358c15.346 0 27.801-12.454 27.801-27.801v-162.692c150.682 15.457 226.635 50.71 263.221 81.848 4.782 3.893 9.119 12.345 10.231 18.35zM999.174 578.054c-3.225-1.668-6.672-3.336-10.342-4.893-27.357-12.121-66.056-22.909-115.097-32.138-99.195-18.571-230.75-28.801-370.534-28.801s-271.45 10.23-370.534 28.801c-49.041 9.23-87.74 20.017-115.097 32.138-3.559 1.556-7.006 3.225-10.231 4.893l16.903-122.881c2.113-1 4.337-2.112 6.895-3.224 24.687-10.898 61.83-21.241 107.646-29.803 97.193-18.238 226.635-28.246 364.418-28.246s267.225 10.008 364.418 28.246c45.816 8.562 83.070 18.905 107.646 29.803 2.669 1.223 5.115 2.335 7.34 3.447l16.569 122.658zM31.137 603.631c24.687-10.898 61.83-21.24 107.646-29.803v0c1.112 0.668 2.335 1.224 3.781 1.557 81.068 18.905 215.403 30.136 359.302 30.136 145.79 0 281.125-11.454 361.971-30.804 1.001-0.221 2.002-0.667 2.892-1.112 0.334 0 0.556 0.112 0.89 0.112 45.816 8.563 83.070 18.905 107.646 29.803 20.017 8.896 27.69 16.347 30.025 20.239 0.667 1.112 0.89 1.89 0.89 2.447 0 2.447-5.56 11.454-30.915 22.686-10.898 4.782-24.243 9.564-39.7 14.012v56.27l84.516 50.264c5.227 3.114 5.227 8.229 0 11.343l-94.302 55.38c-2.113 0.89-4.448 1.446-6.895 1.446-9.23 0-16.681-7.451-16.681-16.681v-149.348c-10.898 2.558-22.463 4.893-34.585 7.228-92.968 17.459-215.293 27.356-346.402 28.246v50.042l84.516 50.264c5.227 3.114 5.227 8.229 0 11.343l-94.413 55.269c-2.112 0.89-4.448 1.446-6.895 1.446-9.23 0-16.681-7.451-16.681-16.681v-151.683c-131.999-0.667-255.548-10.676-349.070-28.246-11.232-2.113-21.796-4.337-31.916-6.561v47.151l84.516 50.264c5.227 3.114 5.227 8.229 0 11.343l-94.413 55.269c-2.113 0.89-4.448 1.446-6.895 1.446-9.23 0-16.681-7.451-16.681-16.681v-157.132c-16.569-4.671-30.915-9.675-42.369-14.79-25.357-11.234-30.917-20.241-30.917-22.687 0-0.556 0.222-1.334 0.89-2.447 2.558-4.115 10.231-11.454 30.248-20.35zM793.111 562.263c-77.956 11.454-181.376 17.904-291.134 17.904-108.981 0-212.067-6.45-290.022-17.793 84.96-11.009 185.712-16.903 291.245-16.903 105.088 0.111 205.173 5.893 289.91 16.792zM362.082 277.135v-191.939l-33.361-11.12-21.35-7.007c-5.783-1.889-10.564-8.452-10.564-14.568v-20.795c0-6.116 5.004-11.12 11.12-11.12h390.438c6.116 0 11.12 5.004 11.12 11.12v20.795c0 6.116-4.782 12.677-10.564 14.568l-21.351 7.007-33.361 11.12v191.939h-40.701v-143.343h-200.724v143.343h-40.701z" />
<glyph unicode="&#xe848;" glyph-name="edif-fabrica" d="M0 768h256v-64h-256v64zM0 960h256v-128h-256v128zM768 384v192l-256-192v192l-256-192v256h-256v-704h1024v640l-256-192zM448 128h-128v64h128v-64zM448 256h-128v64h128v-64zM704 128h-128v64h128v-64zM704 256h-128v64h128v-64zM960 128h-128v64h128v-64zM960 256h-128v64h128v-64z" />
<glyph unicode="&#xe849;" glyph-name="edif-fabrica2" d="M967.979 909.795c-0.455 7.507-6.676 13.36-14.197 13.36h-204.124c-7.521 0-13.742-5.854-14.197-13.36l-23.194-381.728h-62.333v172.425c0 5.114-2.745 9.833-7.194 12.365-4.446 2.529-9.904 2.475-14.302-0.142l-269.495-160.367v148.145c0 5.057-2.685 9.734-7.051 12.282s-9.759 2.588-14.163 0.1l-330.503-186.644c-4.466-2.523-7.228-7.253-7.228-12.382v-526.781c0-7.854 6.366-14.222 14.222-14.222h995.558c3.922 0 7.669 1.618 10.357 4.474s4.079 6.696 3.84 10.61l-55.999 921.867zM344.526 268.807h-196.262v119.461h196.262v-119.461zM626.109 268.807h-196.259v119.461h196.259v-119.461z" />
<glyph unicode="&#xe84a;" glyph-name="edif-gimnasio" d="M1024 481.906c0 36.168-29.385 65.554-65.554 65.554v0 81.378c0 36.168-29.385 65.554-65.554 65.554h-113.024c-36.168 0-65.554-29.386-65.554-65.554v-135.629h-404.626v135.629c0 36.168-29.386 65.554-65.554 65.554h-113.024c-36.168 0-65.554-29.386-65.554-65.554v-79.117c-36.168 0-65.554-29.386-65.554-65.554v-67.813c0-36.168 29.386-65.558 65.554-65.558v0-83.636c0-36.168 29.386-65.554 65.554-65.554h113.024c36.168 0 65.554 29.385 65.554 65.554v135.629h402.367v-135.629c0-36.168 29.385-65.554 65.554-65.554h113.024c36.168 0 65.554 29.385 65.554 65.554v79.117c36.168 0 65.558 29.385 65.558 65.554v70.075h2.255z" />
<glyph unicode="&#xe84b;" glyph-name="edif-hospital" d="M966.702 172.418c1.203 3.597 1.885 7.455 1.885 11.464v421.031c0 19.959-16.188 36.136-36.147 36.136h-201.181v-448.142c0-7.195-1.3-14.075-3.597-20.49h-23.6c1.203 3.597 1.885 7.455 1.885 11.464v578.253c0 19.959-16.188 36.136-36.147 36.136h-315.625c-19.959 0-36.136-16.177-36.136-36.136v-578.253c0-4.009 0.683-7.867 1.885-11.464h-23.589c-2.297 6.415-3.597 13.295-3.597 20.49v448.142h-196.359c-19.959 0-36.136-16.177-36.136-36.136v-421.031c0-4.009 0.683-7.867 1.875-11.464h-62.119v-74.699h1024v74.699h-57.298zM168.653 320.018h-51.804v51.793h51.804v-51.793zM168.653 410.959h-51.804v51.804h51.804v-51.804zM168.653 498.899h-51.804v51.804h51.804v-51.804zM249.377 320.018h-51.804v51.793h51.804v-51.793zM249.377 410.959h-51.804v51.804h51.804v-51.804zM249.377 498.899h-51.804v51.804h51.804v-51.804zM592.415 174.834h-152.097v189.75h152.097v-189.75zM511.995 527.223c-70.354 0-127.392 57.038-127.392 127.392 0 70.365 57.048 127.403 127.392 127.403 70.365 0 127.403-57.038 127.403-127.403s-57.038-127.392-127.403-127.392zM840.882 320.018h-51.793v51.793h51.793v-51.793zM840.882 410.959h-51.793v51.804h51.793v-51.804zM840.882 498.899h-51.793v51.804h51.793v-51.804zM921.595 320.018h-51.793v51.793h51.793v-51.793zM921.595 410.959h-51.793v51.804h51.793v-51.804zM921.595 498.899h-51.793v51.804h51.793v-51.804zM543.612 686.233h48.792v-63.235h-48.792v-48.814h-63.235v48.814h-48.792v63.235h48.792v48.792h63.235v-48.792z" />
<glyph unicode="&#xe84c;" glyph-name="edif-hospital3" d="M329.143 210.286v-36.571q0-7.429-5.429-12.857t-12.857-5.429h-36.571q-7.429 0-12.857 5.429t-5.429 12.857v36.571q0 7.429 5.429 12.857t12.857 5.429h36.571q7.429 0 12.857-5.429t5.429-12.857zM329.143 356.571v-36.571q0-7.429-5.429-12.857t-12.857-5.429h-36.571q-7.429 0-12.857 5.429t-5.429 12.857v36.571q0 7.429 5.429 12.857t12.857 5.429h36.571q7.429 0 12.857-5.429t5.429-12.857zM475.429 356.571v-36.571q0-7.429-5.429-12.857t-12.857-5.429h-36.571q-7.429 0-12.857 5.429t-5.429 12.857v36.571q0 7.429 5.429 12.857t12.857 5.429h36.571q7.429 0 12.857-5.429t5.429-12.857zM329.143 502.857v-36.571q0-7.429-5.429-12.857t-12.857-5.429h-36.571q-7.429 0-12.857 5.429t-5.429 12.857v36.571q0 7.429 5.429 12.857t12.857 5.429h36.571q7.429 0 12.857-5.429t5.429-12.857zM768 210.286v-36.571q0-7.429-5.429-12.857t-12.857-5.429h-36.571q-7.429 0-12.857 5.429t-5.429 12.857v36.571q0 7.429 5.429 12.857t12.857 5.429h36.571q7.429 0 12.857-5.429t5.429-12.857zM621.714 356.571v-36.571q0-7.429-5.429-12.857t-12.857-5.429h-36.571q-7.429 0-12.857 5.429t-5.429 12.857v36.571q0 7.429 5.429 12.857t12.857 5.429h36.571q7.429 0 12.857-5.429t5.429-12.857zM475.429 502.857v-36.571q0-7.429-5.429-12.857t-12.857-5.429h-36.571q-7.429 0-12.857 5.429t-5.429 12.857v36.571q0 7.429 5.429 12.857t12.857 5.429h36.571q7.429 0 12.857-5.429t5.429-12.857zM768 356.571v-36.571q0-7.429-5.429-12.857t-12.857-5.429h-36.571q-7.429 0-12.857 5.429t-5.429 12.857v36.571q0 7.429 5.429 12.857t12.857 5.429h36.571q7.429 0 12.857-5.429t5.429-12.857zM621.714 502.857v-36.571q0-7.429-5.429-12.857t-12.857-5.429h-36.571q-7.429 0-12.857 5.429t-5.429 12.857v36.571q0 7.429 5.429 12.857t12.857 5.429h36.571q7.429 0 12.857-5.429t5.429-12.857zM768 502.857v-36.571q0-7.429-5.429-12.857t-12.857-5.429h-36.571q-7.429 0-12.857 5.429t-5.429 12.857v36.571q0 7.429 5.429 12.857t12.857 5.429h36.571q7.429 0 12.857-5.429t5.429-12.857zM621.714 9.143h219.429v658.286h-146.286v-18.286q0-22.857-16-38.857t-38.857-16h-256q-22.857 0-38.857 16t-16 38.857v18.286h-146.286v-658.286h219.429v128q0 7.429 5.429 12.857t12.857 5.429h182.857q7.429 0 12.857-5.429t5.429-12.857v-128zM621.714 685.714v182.857q0 7.429-5.429 12.857t-12.857 5.429h-36.571q-7.429 0-12.857-5.429t-5.429-12.857v-54.857h-73.143v54.857q0 7.429-5.429 12.857t-12.857 5.429h-36.571q-7.429 0-12.857-5.429t-5.429-12.857v-182.857q0-7.429 5.429-12.857t12.857-5.429h36.571q7.429 0 12.857 5.429t5.429 12.857v54.857h73.143v-54.857q0-7.429 5.429-12.857t12.857-5.429h36.571q7.429 0 12.857 5.429t5.429 12.857zM914.286 704v-731.429q0-14.857-10.857-25.714t-25.714-10.857h-731.429q-14.857 0-25.714 10.857t-10.857 25.714v731.429q0 14.857 10.857 25.714t25.714 10.857h182.857v164.571q0 22.857 16 38.857t38.857 16h256q22.857 0 38.857-16t16-38.857v-164.571h182.857q14.857 0 25.714-10.857t10.857-25.714z" />
<glyph unicode="&#xe84d;" glyph-name="edif-hotel" d="M804.571 192v512q0 14.857-10.857 25.714t-25.714 10.857h-73.143q-14.857 0-25.714-10.857t-10.857-25.714v-182.857h-292.571v182.857q0 14.857-10.857 25.714t-25.714 10.857h-73.143q-14.857 0-25.714-10.857t-10.857-25.714v-512q0-14.857 10.857-25.714t25.714-10.857h73.143q14.857 0 25.714 10.857t10.857 25.714v182.857h292.571v-182.857q0-14.857 10.857-25.714t25.714-10.857h73.143q14.857 0 25.714 10.857t10.857 25.714zM950.857 722.286v-548.571q0-68-48.286-116.286t-116.286-48.286h-548.571q-68 0-116.286 48.286t-48.286 116.286v548.571q0 68 48.286 116.286t116.286 48.286h548.571q68 0 116.286-48.286t48.286-116.286z" />
</font>
</defs>
</svg>
